G04 #@! TF.GenerationSoftware,KiCad,Pcbnew,(5.0.0-rc2-dev-378-g94dbcc719)*
G04 #@! TF.CreationDate,2018-04-09T20:17:52+02:00*
G04 #@! TF.ProjectId,sekvencer_v0.01,73656B76656E6365725F76302E30312E,rev?*
G04 #@! TF.SameCoordinates,Original*
G04 #@! TF.FileFunction,Soldermask,Top*
G04 #@! TF.FilePolarity,Negative*
%FSLAX46Y46*%
G04 Gerber Fmt 4.6, Leading zero omitted, Abs format (unit mm)*
G04 Created by KiCad (PCBNEW (5.0.0-rc2-dev-378-g94dbcc719)) date 04/09/18 20:17:52*
%MOMM*%
%LPD*%
G01*
G04 APERTURE LIST*
%ADD10C,0.200000*%
%ADD11C,0.150000*%
%ADD12R,1.300000X1.400000*%
%ADD13C,2.400000*%
%ADD14R,1.900000X3.100000*%
%ADD15R,3.100000X1.900000*%
%ADD16C,1.900000*%
%ADD17R,1.900000X1.370000*%
%ADD18R,1.370000X1.200000*%
%ADD19R,1.000000X1.050000*%
%ADD20C,6.800000*%
%ADD21C,1.200000*%
%ADD22R,1.470000X2.200000*%
%ADD23R,1.370000X1.900000*%
%ADD24R,2.350000X2.100000*%
%ADD25O,2.350000X2.100000*%
%ADD26R,2.100000X2.400000*%
%ADD27O,2.100000X2.400000*%
%ADD28R,1.000000X1.950000*%
%ADD29C,1.700000*%
%ADD30R,1.700000X1.700000*%
%ADD31R,2.400000X1.700000*%
%ADD32R,2.400000X2.400000*%
%ADD33R,2.700000X2.900000*%
%ADD34R,5.800000X3.300000*%
%ADD35R,1.200000X1.300000*%
%ADD36R,1.900000X1.545000*%
%ADD37R,2.000000X0.950000*%
%ADD38R,0.950000X2.000000*%
%ADD39R,5.000000X1.500000*%
%ADD40R,9.800000X11.200000*%
%ADD41R,2.400000X2.100000*%
%ADD42O,2.400000X2.100000*%
%ADD43R,1.300000X1.200000*%
%ADD44R,2.100000X2.100000*%
%ADD45O,2.100000X2.100000*%
%ADD46C,5.400000*%
%ADD47R,1.600000X2.600000*%
%ADD48R,6.200000X6.800000*%
%ADD49R,1.500000X5.000000*%
%ADD50R,11.200000X9.800000*%
%ADD51R,2.000000X2.000000*%
%ADD52C,2.000000*%
%ADD53R,1.700000X2.400000*%
%ADD54R,1.300000X1.600000*%
G04 APERTURE END LIST*
D10*
X178246614Y-102870000D02*
G75*
G03X178246614Y-102870000I-954614J0D01*
G01*
X178056641Y-102870000D02*
G75*
G03X178056641Y-102870000I-764641J0D01*
G01*
X177867017Y-102870000D02*
G75*
G03X177867017Y-102870000I-575017J0D01*
G01*
X177673000Y-102870000D02*
G75*
G03X177673000Y-102870000I-381000J0D01*
G01*
X177546000Y-102870000D02*
G75*
G03X177546000Y-102870000I-254000J0D01*
G01*
X177381803Y-102870000D02*
G75*
G03X177381803Y-102870000I-89803J0D01*
G01*
X211328000Y-71882000D02*
G75*
G03X211328000Y-71882000I-127000J0D01*
G01*
X211455000Y-71882000D02*
G75*
G03X211455000Y-71882000I-254000J0D01*
G01*
X211582000Y-71882000D02*
G75*
G03X211582000Y-71882000I-381000J0D01*
G01*
X198577200Y-101498400D02*
G75*
G03X198577200Y-101498400I-50800J0D01*
G01*
X198735854Y-101498400D02*
G75*
G03X198735854Y-101498400I-209454J0D01*
G01*
X198885610Y-101498400D02*
G75*
G03X198885610Y-101498400I-359210J0D01*
G01*
X198935963Y-101498400D02*
G75*
G03X198935963Y-101498400I-409563J0D01*
G01*
D11*
G36*
X156210000Y-109728000D02*
X173228000Y-109728000D01*
X173228000Y-121920000D01*
X156210000Y-121920000D01*
X156210000Y-109728000D01*
G37*
X156210000Y-109728000D02*
X173228000Y-109728000D01*
X173228000Y-121920000D01*
X156210000Y-121920000D01*
X156210000Y-109728000D01*
G36*
X155956000Y-101092000D02*
X155956000Y-107950000D01*
X164338000Y-107950000D01*
X164338000Y-101092000D01*
X155956000Y-101092000D01*
G37*
X155956000Y-101092000D02*
X155956000Y-107950000D01*
X164338000Y-107950000D01*
X164338000Y-101092000D01*
X155956000Y-101092000D01*
D12*
X182775500Y-106871000D03*
X182775500Y-108521000D03*
X184000500Y-108521000D03*
X184000500Y-106871000D03*
D13*
X199707500Y-76454000D03*
D14*
X207378000Y-75946000D03*
X202578000Y-75946000D03*
D15*
X186944000Y-80632000D03*
X186944000Y-75832000D03*
D13*
X222453200Y-74980800D03*
X211201000Y-69850000D03*
D16*
X199948800Y-99872800D03*
D17*
X193548000Y-122616000D03*
X193548000Y-124526000D03*
D18*
X188525000Y-132969000D03*
X186125000Y-132969000D03*
D19*
X187325000Y-133594000D03*
X187325000Y-132344000D03*
D18*
X225412000Y-92964000D03*
X223012000Y-92964000D03*
D19*
X224212000Y-93589000D03*
X224212000Y-92339000D03*
D18*
X215576000Y-85852000D03*
X213176000Y-85852000D03*
D19*
X214376000Y-86477000D03*
X214376000Y-85227000D03*
D18*
X182512000Y-86360000D03*
X184912000Y-86360000D03*
D19*
X183712000Y-85735000D03*
X183712000Y-86985000D03*
D18*
X207448000Y-99822000D03*
X205048000Y-99822000D03*
D19*
X206248000Y-100447000D03*
X206248000Y-99197000D03*
D20*
X151384000Y-134620000D03*
D21*
X153784000Y-134620000D03*
X153081056Y-136317056D03*
X151384000Y-137020000D03*
X149686944Y-136317056D03*
X148984000Y-134620000D03*
X149686944Y-132922944D03*
X151384000Y-132220000D03*
X153081056Y-132922944D03*
D22*
X180867000Y-133096000D03*
X183877000Y-133096000D03*
D20*
X152400000Y-53340000D03*
D21*
X152400000Y-55740000D03*
X150702944Y-55037056D03*
X150000000Y-53340000D03*
X150702944Y-51642944D03*
X152400000Y-50940000D03*
X154097056Y-51642944D03*
X154800000Y-53340000D03*
X154097056Y-55037056D03*
X230297056Y-51642944D03*
X228600000Y-50940000D03*
X226902944Y-51642944D03*
X226200000Y-53340000D03*
X226902944Y-55037056D03*
X228600000Y-55740000D03*
X230297056Y-55037056D03*
X231000000Y-53340000D03*
D20*
X228600000Y-53340000D03*
X228600000Y-134620000D03*
D21*
X231000000Y-134620000D03*
X230297056Y-136317056D03*
X228600000Y-137020000D03*
X226902944Y-136317056D03*
X226200000Y-134620000D03*
X226902944Y-132922944D03*
X228600000Y-132220000D03*
X230297056Y-132922944D03*
D20*
X177800000Y-115824000D03*
D21*
X180200000Y-115824000D03*
X179497056Y-117521056D03*
X177800000Y-118224000D03*
X176102944Y-117521056D03*
X175400000Y-115824000D03*
X176102944Y-114126944D03*
X177800000Y-113424000D03*
X179497056Y-114126944D03*
D20*
X151384000Y-115824000D03*
D21*
X153784000Y-115824000D03*
X153081056Y-117521056D03*
X151384000Y-118224000D03*
X149686944Y-117521056D03*
X148984000Y-115824000D03*
X149686944Y-114126944D03*
X151384000Y-113424000D03*
X153081056Y-114126944D03*
D17*
X202438000Y-101729500D03*
X202438000Y-99819500D03*
D23*
X197551000Y-124714000D03*
X195641000Y-124714000D03*
D24*
X219202000Y-134166000D03*
D25*
X219202000Y-131666000D03*
X219202000Y-129166000D03*
X219202000Y-126666000D03*
X219202000Y-124166000D03*
X219202000Y-121666000D03*
X219202000Y-119166000D03*
X219202000Y-116666000D03*
X219202000Y-114166000D03*
D23*
X191455000Y-124460000D03*
X189545000Y-124460000D03*
X198567000Y-121920000D03*
X196657000Y-121920000D03*
D26*
X180848000Y-128524000D03*
D27*
X178348000Y-128524000D03*
D28*
X200279000Y-127160000D03*
X201549000Y-127160000D03*
X202819000Y-127160000D03*
X204089000Y-127160000D03*
X204089000Y-121760000D03*
X202819000Y-121760000D03*
X201549000Y-121760000D03*
X200279000Y-121760000D03*
D29*
X207010000Y-130556000D03*
X205740000Y-129286000D03*
D30*
X205740000Y-131826000D03*
D31*
X192500000Y-127374000D03*
D32*
X188500000Y-128524000D03*
D31*
X192500000Y-129674000D03*
D17*
X200406000Y-133736000D03*
X200406000Y-131826000D03*
D23*
X195641000Y-129794000D03*
X197551000Y-129794000D03*
X197551000Y-132334000D03*
X195641000Y-132334000D03*
X195641000Y-127254000D03*
X197551000Y-127254000D03*
D13*
X192024000Y-51388000D03*
D32*
X192024000Y-56388000D03*
X191516000Y-72390000D03*
D13*
X196516000Y-72390000D03*
D33*
X191008000Y-60842000D03*
X191008000Y-65142000D03*
D34*
X181610000Y-62614000D03*
X181610000Y-72514000D03*
D35*
X191074000Y-88122000D03*
X192974000Y-88122000D03*
X192024000Y-86122000D03*
D23*
X187391000Y-94996000D03*
X185481000Y-94996000D03*
D27*
X222290000Y-100330000D03*
D26*
X224790000Y-100330000D03*
D36*
X217932000Y-95022500D03*
X217932000Y-92937500D03*
D17*
X198143756Y-85913000D03*
X198143756Y-87823000D03*
D37*
X187774000Y-98927000D03*
X187774000Y-99727000D03*
X187774000Y-100527000D03*
X187774000Y-101327000D03*
X187774000Y-102127000D03*
X187774000Y-102927000D03*
X187774000Y-103727000D03*
X187774000Y-104527000D03*
D38*
X189224000Y-105977000D03*
X190024000Y-105977000D03*
X190824000Y-105977000D03*
X191624000Y-105977000D03*
X192424000Y-105977000D03*
X193224000Y-105977000D03*
X194024000Y-105977000D03*
X194824000Y-105977000D03*
D37*
X196274000Y-104527000D03*
X196274000Y-103727000D03*
X196274000Y-102927000D03*
X196274000Y-102127000D03*
X196274000Y-101327000D03*
X196274000Y-100527000D03*
X196274000Y-99727000D03*
X196274000Y-98927000D03*
D38*
X194824000Y-97477000D03*
X194024000Y-97477000D03*
X193224000Y-97477000D03*
X192424000Y-97477000D03*
X191624000Y-97477000D03*
X190824000Y-97477000D03*
X190024000Y-97477000D03*
X189224000Y-97477000D03*
D39*
X199384000Y-58576000D03*
X199384000Y-60276000D03*
X199384000Y-61976000D03*
X199384000Y-63676000D03*
X199384000Y-65376000D03*
D40*
X208534000Y-61976000D03*
D23*
X205293000Y-102616000D03*
X207203000Y-102616000D03*
D41*
X214376000Y-105156000D03*
D42*
X214376000Y-102656000D03*
D17*
X227584000Y-94935000D03*
X227584000Y-93025000D03*
D23*
X184343000Y-90932000D03*
X182433000Y-90932000D03*
D26*
X178308000Y-89408000D03*
D27*
X175808000Y-89408000D03*
D43*
X208296000Y-104714000D03*
X208296000Y-106614000D03*
X210296000Y-105664000D03*
D27*
X222290000Y-81915000D03*
D26*
X224790000Y-81915000D03*
D44*
X225044000Y-124460000D03*
D45*
X225044000Y-121920000D03*
X225044000Y-119380000D03*
X225044000Y-116840000D03*
X225044000Y-114300000D03*
X225044000Y-111760000D03*
D17*
X220472000Y-94935000D03*
X220472000Y-93025000D03*
X209804000Y-85913000D03*
X209804000Y-87823000D03*
X215392000Y-95057000D03*
X215392000Y-96967000D03*
X208280000Y-92395000D03*
X208280000Y-90485000D03*
X203708000Y-110175000D03*
X203708000Y-108265000D03*
D23*
X217038000Y-76200000D03*
X218948000Y-76200000D03*
D17*
X201168000Y-110175000D03*
X201168000Y-108265000D03*
X206248000Y-108265000D03*
X206248000Y-110175000D03*
X198628000Y-95057000D03*
X198628000Y-96967000D03*
D23*
X196149000Y-92964000D03*
X198059000Y-92964000D03*
D17*
X200304400Y-104079000D03*
X200304400Y-102169000D03*
X181610000Y-102809000D03*
X181610000Y-100899000D03*
X184404000Y-100899000D03*
X184404000Y-102809000D03*
X198628000Y-105725000D03*
X198628000Y-107635000D03*
D23*
X216977000Y-73660000D03*
X218887000Y-73660000D03*
X222443000Y-68072000D03*
X220533000Y-68072000D03*
X220533000Y-70612000D03*
X222443000Y-70612000D03*
X180909000Y-104775000D03*
X182819000Y-104775000D03*
D17*
X186245500Y-110238500D03*
X186245500Y-108328500D03*
D26*
X178308000Y-78867000D03*
D27*
X175808000Y-78867000D03*
X203494000Y-82042000D03*
D26*
X205994000Y-82042000D03*
X196342000Y-82042000D03*
D27*
X193842000Y-82042000D03*
D26*
X192786000Y-118618000D03*
D27*
X190286000Y-118618000D03*
D36*
X206756000Y-85825500D03*
X206756000Y-87910500D03*
D23*
X201229000Y-106172000D03*
X203139000Y-106172000D03*
D35*
X187706000Y-90662000D03*
X186756000Y-88662000D03*
X188656000Y-88662000D03*
D43*
X178197000Y-110236000D03*
X180197000Y-109286000D03*
X180197000Y-111186000D03*
X181340000Y-98994000D03*
X181340000Y-97094000D03*
X179340000Y-98044000D03*
X200676000Y-85918000D03*
X200676000Y-87818000D03*
X202676000Y-86868000D03*
D23*
X186751000Y-86106000D03*
X188661000Y-86106000D03*
D17*
X206248000Y-104709000D03*
X206248000Y-106619000D03*
D23*
X204663000Y-96012000D03*
X202753000Y-96012000D03*
X198059000Y-90424000D03*
X196149000Y-90424000D03*
X189291000Y-94742000D03*
X191201000Y-94742000D03*
D17*
X181864000Y-82611000D03*
X181864000Y-84521000D03*
X226568000Y-68011000D03*
X226568000Y-66101000D03*
D23*
X193037208Y-90170000D03*
X191127208Y-90170000D03*
D17*
X183896000Y-98999000D03*
X183896000Y-97089000D03*
X209804000Y-102555000D03*
X209804000Y-100645000D03*
X183388000Y-113853000D03*
X183388000Y-115763000D03*
D46*
X160589450Y-77859198D03*
X160589450Y-98179198D03*
X168209450Y-98179198D03*
X168209450Y-77859198D03*
D17*
X189484000Y-113731000D03*
X189484000Y-111821000D03*
X172212000Y-104201000D03*
X172212000Y-106111000D03*
D23*
X218501000Y-85852000D03*
X220411000Y-85852000D03*
D47*
X217176000Y-64652000D03*
X221736000Y-64652000D03*
D48*
X219456000Y-58352000D03*
D31*
X212312000Y-94862000D03*
D32*
X208312000Y-96012000D03*
D31*
X212312000Y-97162000D03*
X205200000Y-92590000D03*
D32*
X201200000Y-91440000D03*
D31*
X205200000Y-90290000D03*
D49*
X166939450Y-105612198D03*
X161859450Y-105612198D03*
D50*
X164399450Y-114762198D03*
D46*
X158814450Y-66297198D03*
X169614450Y-66297198D03*
X169614450Y-61087198D03*
X169614450Y-71497198D03*
X158814450Y-61087198D03*
X158814450Y-71497198D03*
X159126000Y-135044800D03*
X159126000Y-124634800D03*
X169926000Y-135044800D03*
X169926000Y-124634800D03*
X169926000Y-129844800D03*
X159126000Y-129844800D03*
D17*
X203200000Y-129855000D03*
X203200000Y-131765000D03*
D51*
X215392000Y-69088000D03*
D52*
X217892000Y-69088000D03*
D23*
X224597000Y-70612000D03*
X226507000Y-70612000D03*
X182311000Y-137795000D03*
X180401000Y-137795000D03*
D17*
X175768000Y-95697000D03*
X175768000Y-93787000D03*
X182880000Y-93025000D03*
X182880000Y-94935000D03*
D23*
X201991000Y-72390000D03*
X203901000Y-72390000D03*
D17*
X185928000Y-117409000D03*
X185928000Y-119319000D03*
X182626000Y-77663000D03*
X182626000Y-75753000D03*
X175768000Y-108143000D03*
X175768000Y-106233000D03*
D23*
X176083000Y-137795000D03*
X177993000Y-137795000D03*
X206055000Y-72390000D03*
X207965000Y-72390000D03*
X182433000Y-80518000D03*
X184343000Y-80518000D03*
X177739000Y-97790000D03*
X175829000Y-97790000D03*
D53*
X211702000Y-131604000D03*
D32*
X212852000Y-135604000D03*
D53*
X214002000Y-131604000D03*
D54*
X185040000Y-83312000D03*
X188340000Y-83312000D03*
M02*
