M48
;DRILL file {KiCad (5.0.0-rc2-dev-378-g94dbcc719)} date 04/09/18 20:18:43
;FORMAT={3:3/ absolute / metric / suppress leading zeros}
FMAT,2
METRIC,TZ
T1C0.400
T2C0.500
T3C0.600
T4C0.750
T5C0.800
T6C0.950
T7C1.000
T8C1.100
T9C1.200
T10C2.600
T11C3.200
%
G90
G05
M71
T1
X179705Y-86741
X183642Y-82169
X185039Y-92837
X185928Y-101727
X187325Y-78486
X189611Y-90297
X190373Y-75438
X191770Y-103886
X192532Y-100584
X193040Y-91313
X193802Y-99568
X194437Y-101727
X200279Y-123698
X202438Y-113284
X202946Y-67691
X204470Y-106426
X183712Y-85210
X183712Y-86360
X183712Y-87510
X224212Y-91814
X224212Y-92964
X224212Y-94114
X155314Y-85668
X156464Y-85668
X157614Y-85668
X206248Y-98672
X206248Y-99822
X206248Y-100972
X214376Y-84702
X214376Y-85852
X214376Y-87002
X177108Y-55238
X177108Y-56388
X177108Y-57538
X158171Y-88519
X159322Y-88519
X160472Y-88519
X187325Y-131819
X187325Y-132969
X187325Y-134119
T2
X148984Y-134620
X149687Y-132923
X149687Y-136317
X151384Y-132220
X151384Y-137020
X153081Y-132923
X153081Y-136317
X153784Y-134620
X226200Y-53340
X226903Y-51643
X226903Y-55037
X228600Y-50940
X228600Y-55740
X230297Y-51643
X230297Y-55037
X231000Y-53340
X175400Y-115824
X176103Y-114127
X176103Y-117521
X177800Y-113424
X177800Y-118224
X179497Y-114127
X179497Y-117521
X180200Y-115824
X150000Y-53340
X150703Y-51643
X150703Y-55037
X152400Y-50940
X152400Y-55740
X154097Y-51643
X154097Y-55037
X154800Y-53340
X148984Y-115824
X149687Y-114127
X149687Y-117521
X151384Y-113424
X151384Y-118224
X153081Y-114127
X153081Y-117521
X153784Y-115824
X226200Y-134620
X226903Y-132923
X226903Y-136317
X228600Y-132220
X228600Y-137020
X230297Y-132923
X230297Y-136317
X231000Y-134620
T3
X149352Y-59690
X149352Y-65024
X149352Y-70358
X149352Y-75438
X149352Y-80772
X149352Y-86106
X149352Y-91440
X149352Y-96774
X149352Y-102108
X149352Y-107442
X149352Y-112395
X149352Y-119253
X149352Y-123444
X149352Y-128778
X156718Y-82804
X157099Y-55753
X159131Y-50292
X160020Y-93091
X160909Y-86868
X162179Y-55753
X164211Y-50292
X165100Y-93091
X166116Y-83312
X166116Y-88773
X167894Y-55753
X168910Y-88773
X169926Y-50292
X170815Y-93091
X171450Y-83312
X172466Y-88773
X172847Y-107823
X174244Y-97790
X174244Y-104394
X174498Y-86614
X175260Y-50292
X175260Y-111506
X175260Y-121412
X175260Y-126492
X175260Y-131572
X175260Y-136017
X177292Y-102870
X177546Y-72517
X177673Y-62611
X178054Y-107950
X178181Y-82931
X179578Y-100076
X180023Y-104839
X180340Y-50292
X180340Y-94742
X180467Y-53086
X180467Y-90932
X180594Y-75311
X180594Y-80518
X181483Y-65278
X181483Y-69850
X181483Y-108839
X182372Y-60198
X183388Y-53086
X183388Y-117602
X183642Y-137668
X184531Y-75311
X184531Y-77089
X185674Y-97282
X185801Y-60452
X185801Y-106807
X185928Y-50292
X185928Y-120904
X186055Y-53086
X186182Y-111760
X186182Y-137668
X186373Y-105601
X186690Y-65278
X186817Y-82550
X186817Y-84074
X187960Y-124460
X188024Y-108331
X188341Y-116205
X188722Y-58420
X188722Y-67437
X188849Y-53086
X189357Y-63881
X189484Y-92456
X189484Y-101600
X189611Y-99314
X190373Y-82169
X190373Y-86106
X190881Y-78994
X191008Y-69596
X191516Y-137668
X192278Y-77597
X193294Y-63754
X193294Y-67310
X193548Y-121158
X193675Y-86741
X194310Y-79883
X194564Y-75184
X195326Y-121920
X195834Y-62230
X195834Y-118618
X196215Y-84455
X196342Y-67691
X196596Y-50292
X196850Y-77597
X196850Y-137668
X197104Y-94996
X198120Y-88773
X198526Y-101498
X198628Y-109220
X199390Y-125222
X199644Y-67691
X199771Y-70612
X199898Y-80264
X199898Y-83693
X200025Y-94107
X200406Y-135382
X200533Y-74486
X200660Y-89154
X201422Y-97282
X201422Y-111760
X201930Y-50292
X202184Y-137668
X202311Y-85217
X202387Y-102819
X202692Y-94107
X202692Y-123952
X202946Y-55372
X202946Y-58801
X202946Y-61976
X202946Y-64770
X203200Y-90678
X204013Y-101143
X204724Y-87249
X204915Y-97917
X204978Y-70612
X205232Y-94107
X205613Y-125222
X205994Y-127000
X206502Y-111760
X207264Y-50292
X207264Y-123698
X207518Y-137668
X207899Y-84074
X208153Y-80010
X208280Y-93726
X208280Y-108204
X208407Y-87884
X208534Y-55372
X208534Y-67691
X208788Y-133858
X208915Y-98298
X209423Y-76073
X210185Y-91186
X210566Y-111760
X210820Y-127508
X210947Y-81915
X211201Y-71882
X212344Y-98806
X212598Y-50292
X212852Y-88519
X212852Y-137668
X213360Y-82296
X213868Y-67691
X214376Y-55499
X214376Y-58801
X214503Y-61976
X214503Y-64770
X214630Y-111760
X214884Y-72644
X214884Y-76708
X215392Y-98298
X216408Y-131572
X216662Y-80010
X216662Y-84074
X217678Y-110363
X217932Y-50292
X218186Y-137668
X218948Y-78486
X219202Y-67945
X219202Y-70612
X219456Y-53975
X219456Y-62865
X219456Y-88138
X219964Y-83312
X220472Y-73533
X220472Y-76200
X220599Y-96520
X222250Y-121412
X222250Y-127000
X222250Y-131318
X223012Y-109982
X223139Y-86868
X223266Y-50292
X223266Y-80010
X223520Y-137668
X223774Y-58293
X223901Y-64389
X224282Y-73533
X224409Y-76200
X224536Y-68453
X226568Y-64770
X226568Y-129540
X227330Y-113030
X227330Y-118110
X227330Y-122936
X228346Y-70612
X231648Y-59436
X231648Y-64770
X231648Y-70104
X231648Y-75438
X231648Y-80772
X231648Y-86106
X231648Y-91440
X231648Y-96774
X231648Y-102108
X231648Y-107442
X231648Y-112776
X231648Y-117856
X231648Y-123190
X231648Y-128524
T4
X205740Y-129286
X205740Y-131826
X207010Y-130556
T5
X155896Y-63476
X155896Y-68810
X155896Y-74144
X155896Y-77978
X156210Y-127254
X156210Y-132588
X156464Y-95250
X156464Y-98552
X157674Y-58142
X157734Y-81026
X157988Y-137922
X159512Y-95250
X161036Y-137922
X161230Y-58142
X161290Y-81026
X162500Y-60174
X162500Y-63222
X162500Y-66524
X162500Y-69318
X162500Y-72112
X162500Y-74906
X162560Y-95250
X162814Y-123952
X162814Y-126746
X162814Y-129540
X162814Y-132842
X162814Y-135890
X164278Y-58142
X164338Y-77978
X164338Y-81026
X164338Y-98044
X164338Y-137922
X165802Y-60174
X165802Y-63222
X165802Y-66524
X165802Y-69318
X165802Y-72112
X165802Y-74906
X166116Y-95250
X166116Y-101092
X166116Y-123952
X166116Y-126746
X166116Y-129540
X166116Y-132842
X166116Y-135890
X167386Y-137922
X167580Y-58142
X167640Y-81026
X169418Y-95250
X169418Y-101092
X170628Y-58142
X170688Y-81026
X170942Y-137922
X172406Y-63476
X172406Y-68810
X172406Y-74144
X172466Y-77978
X172720Y-95250
X172720Y-98044
X172720Y-101092
X172720Y-127254
X172720Y-132588
X215392Y-69088
X217892Y-69088
T6
X219202Y-114166
X219202Y-116666
X219202Y-119166
X219202Y-121666
X219202Y-124166
X219202Y-126666
X219202Y-129166
X219202Y-131666
X219202Y-134166
T7
X222290Y-100330
X224790Y-100330
X191516Y-72390
X196516Y-72390
X192024Y-51388
X192024Y-56388
X178348Y-128524
X180848Y-128524
X175808Y-89408
X178308Y-89408
X193842Y-82042
X196342Y-82042
X225044Y-111760
X225044Y-114300
X225044Y-116840
X225044Y-119380
X225044Y-121920
X225044Y-124460
X190286Y-118618
X192786Y-118618
X222290Y-81915
X224790Y-81915
X175808Y-78867
X178308Y-78867
X214376Y-102656
X214376Y-105156
X203494Y-82042
X205994Y-82042
T8
X160589Y-77859
X160589Y-98179
X168209Y-77859
X168209Y-98179
T9
X157226Y-110998
X157226Y-113538
X157226Y-116078
X157226Y-118618
X157226Y-121158
X157417Y-101918
X157417Y-104458
X157417Y-106998
X160020Y-110998
X160020Y-113538
X160020Y-116078
X160020Y-118618
X160020Y-121158
X160211Y-101918
X160211Y-104458
X160211Y-106998
X162814Y-110998
X162814Y-113538
X162814Y-116078
X162814Y-118618
X162814Y-121158
X163513Y-101918
X163513Y-104458
X163513Y-106998
X166116Y-110998
X166116Y-113538
X166116Y-116078
X166116Y-118618
X166116Y-121158
X168656Y-110998
X168656Y-113538
X168656Y-116078
X168656Y-118618
X168656Y-121158
X171196Y-110998
X171196Y-113538
X171196Y-116078
X171196Y-118618
X171196Y-121158
T10
X158814Y-61087
X158814Y-66297
X158814Y-71497
X169614Y-61087
X169614Y-66297
X169614Y-71497
X159126Y-124635
X159126Y-129845
X159126Y-135045
X169926Y-124635
X169926Y-129845
X169926Y-135045
T11
X228600Y-53340
X177800Y-115824
X152400Y-53340
X228600Y-134620
X151384Y-134620
X151384Y-115824
T0
M30
