G04 #@! TF.GenerationSoftware,KiCad,Pcbnew,(5.0.0-rc2-dev-378-g94dbcc719)*
G04 #@! TF.CreationDate,2018-04-09T20:17:52+02:00*
G04 #@! TF.ProjectId,sekvencer_v0.01,73656B76656E6365725F76302E30312E,rev?*
G04 #@! TF.SameCoordinates,Original*
G04 #@! TF.FileFunction,Legend,Top*
G04 #@! TF.FilePolarity,Positive*
%FSLAX46Y46*%
G04 Gerber Fmt 4.6, Leading zero omitted, Abs format (unit mm)*
G04 Created by KiCad (PCBNEW (5.0.0-rc2-dev-378-g94dbcc719)) date 04/09/18 20:17:52*
%MOMM*%
%LPD*%
G01*
G04 APERTURE LIST*
%ADD10C,0.150000*%
%ADD11C,0.120000*%
%ADD12C,0.050000*%
G04 APERTURE END LIST*
D10*
X209185095Y-73604428D02*
X209947000Y-73604428D01*
X209566047Y-73985380D02*
X209566047Y-73223476D01*
X210947000Y-73985380D02*
X210375571Y-73985380D01*
X210661285Y-73985380D02*
X210661285Y-72985380D01*
X210566047Y-73128238D01*
X210470809Y-73223476D01*
X210375571Y-73271095D01*
X211327952Y-73080619D02*
X211375571Y-73033000D01*
X211470809Y-72985380D01*
X211708904Y-72985380D01*
X211804142Y-73033000D01*
X211851761Y-73080619D01*
X211899380Y-73175857D01*
X211899380Y-73271095D01*
X211851761Y-73413952D01*
X211280333Y-73985380D01*
X211899380Y-73985380D01*
X212185095Y-72985380D02*
X212518428Y-73985380D01*
X212851761Y-72985380D01*
D11*
X186309000Y-83312000D02*
X187452000Y-83312000D01*
X186944000Y-83693000D02*
X186309000Y-83312000D01*
X186944000Y-82931000D02*
X186944000Y-83693000D01*
X186309000Y-83312000D02*
X186944000Y-82931000D01*
X186309000Y-83820000D02*
X186309000Y-83312000D01*
X186309000Y-83312000D02*
X186309000Y-82804000D01*
X185928000Y-83312000D02*
X186309000Y-83312000D01*
X191008000Y-63754000D02*
X191008000Y-62230000D01*
X190246000Y-62357000D02*
X191770000Y-62357000D01*
X191008000Y-62357000D02*
X190246000Y-63500000D01*
X191770000Y-63500000D02*
X191008000Y-62357000D01*
X190246000Y-63500000D02*
X191770000Y-63500000D01*
D10*
X148066619Y-130056428D02*
X148828523Y-130056428D01*
X148447571Y-130437380D02*
X148447571Y-129675476D01*
X149780904Y-129437380D02*
X149304714Y-129437380D01*
X149257095Y-129913571D01*
X149304714Y-129865952D01*
X149399952Y-129818333D01*
X149638047Y-129818333D01*
X149733285Y-129865952D01*
X149780904Y-129913571D01*
X149828523Y-130008809D01*
X149828523Y-130246904D01*
X149780904Y-130342142D01*
X149733285Y-130389761D01*
X149638047Y-130437380D01*
X149399952Y-130437380D01*
X149304714Y-130389761D01*
X149257095Y-130342142D01*
X150447571Y-129437380D02*
X150542809Y-129437380D01*
X150638047Y-129485000D01*
X150685666Y-129532619D01*
X150733285Y-129627857D01*
X150780904Y-129818333D01*
X150780904Y-130056428D01*
X150733285Y-130246904D01*
X150685666Y-130342142D01*
X150638047Y-130389761D01*
X150542809Y-130437380D01*
X150447571Y-130437380D01*
X150352333Y-130389761D01*
X150304714Y-130342142D01*
X150257095Y-130246904D01*
X150209476Y-130056428D01*
X150209476Y-129818333D01*
X150257095Y-129627857D01*
X150304714Y-129532619D01*
X150352333Y-129485000D01*
X150447571Y-129437380D01*
X151828523Y-129437380D02*
X152161857Y-130437380D01*
X152495190Y-129437380D01*
X153780904Y-129437380D02*
X153971380Y-129437380D01*
X154066619Y-129485000D01*
X154161857Y-129580238D01*
X154209476Y-129770714D01*
X154209476Y-130104047D01*
X154161857Y-130294523D01*
X154066619Y-130389761D01*
X153971380Y-130437380D01*
X153780904Y-130437380D01*
X153685666Y-130389761D01*
X153590428Y-130294523D01*
X153542809Y-130104047D01*
X153542809Y-129770714D01*
X153590428Y-129580238D01*
X153685666Y-129485000D01*
X153780904Y-129437380D01*
X154638047Y-129437380D02*
X154638047Y-130246904D01*
X154685666Y-130342142D01*
X154733285Y-130389761D01*
X154828523Y-130437380D01*
X155019000Y-130437380D01*
X155114238Y-130389761D01*
X155161857Y-130342142D01*
X155209476Y-130246904D01*
X155209476Y-129437380D01*
X155542809Y-129437380D02*
X156114238Y-129437380D01*
X155828523Y-130437380D02*
X155828523Y-129437380D01*
X161433238Y-54554428D02*
X162195142Y-54554428D01*
X161814190Y-54935380D02*
X161814190Y-54173476D01*
X163147523Y-53935380D02*
X162671333Y-53935380D01*
X162623714Y-54411571D01*
X162671333Y-54363952D01*
X162766571Y-54316333D01*
X163004666Y-54316333D01*
X163099904Y-54363952D01*
X163147523Y-54411571D01*
X163195142Y-54506809D01*
X163195142Y-54744904D01*
X163147523Y-54840142D01*
X163099904Y-54887761D01*
X163004666Y-54935380D01*
X162766571Y-54935380D01*
X162671333Y-54887761D01*
X162623714Y-54840142D01*
X163814190Y-53935380D02*
X163909428Y-53935380D01*
X164004666Y-53983000D01*
X164052285Y-54030619D01*
X164099904Y-54125857D01*
X164147523Y-54316333D01*
X164147523Y-54554428D01*
X164099904Y-54744904D01*
X164052285Y-54840142D01*
X164004666Y-54887761D01*
X163909428Y-54935380D01*
X163814190Y-54935380D01*
X163718952Y-54887761D01*
X163671333Y-54840142D01*
X163623714Y-54744904D01*
X163576095Y-54554428D01*
X163576095Y-54316333D01*
X163623714Y-54125857D01*
X163671333Y-54030619D01*
X163718952Y-53983000D01*
X163814190Y-53935380D01*
X164433238Y-53935380D02*
X164766571Y-54935380D01*
X165099904Y-53935380D01*
X166195142Y-54935380D02*
X166195142Y-53935380D01*
X166671333Y-54935380D02*
X166671333Y-53935380D01*
X167242761Y-54935380D01*
X167242761Y-53935380D01*
X219019523Y-110688380D02*
X218543333Y-110688380D01*
X218543333Y-109688380D01*
X219924285Y-110593142D02*
X219876666Y-110640761D01*
X219733809Y-110688380D01*
X219638571Y-110688380D01*
X219495714Y-110640761D01*
X219400476Y-110545523D01*
X219352857Y-110450285D01*
X219305238Y-110259809D01*
X219305238Y-110116952D01*
X219352857Y-109926476D01*
X219400476Y-109831238D01*
X219495714Y-109736000D01*
X219638571Y-109688380D01*
X219733809Y-109688380D01*
X219876666Y-109736000D01*
X219924285Y-109783619D01*
X220352857Y-110688380D02*
X220352857Y-109688380D01*
X220590952Y-109688380D01*
X220733809Y-109736000D01*
X220829047Y-109831238D01*
X220876666Y-109926476D01*
X220924285Y-110116952D01*
X220924285Y-110259809D01*
X220876666Y-110450285D01*
X220829047Y-110545523D01*
X220733809Y-110640761D01*
X220590952Y-110688380D01*
X220352857Y-110688380D01*
X224194809Y-109545380D02*
X224194809Y-108545380D01*
X224623380Y-109497761D02*
X224766238Y-109545380D01*
X225004333Y-109545380D01*
X225099571Y-109497761D01*
X225147190Y-109450142D01*
X225194809Y-109354904D01*
X225194809Y-109259666D01*
X225147190Y-109164428D01*
X225099571Y-109116809D01*
X225004333Y-109069190D01*
X224813857Y-109021571D01*
X224718619Y-108973952D01*
X224671000Y-108926333D01*
X224623380Y-108831095D01*
X224623380Y-108735857D01*
X224671000Y-108640619D01*
X224718619Y-108593000D01*
X224813857Y-108545380D01*
X225051952Y-108545380D01*
X225194809Y-108593000D01*
X225623380Y-109545380D02*
X225623380Y-108545380D01*
X226004333Y-108545380D01*
X226099571Y-108593000D01*
X226147190Y-108640619D01*
X226194809Y-108735857D01*
X226194809Y-108878714D01*
X226147190Y-108973952D01*
X226099571Y-109021571D01*
X226004333Y-109069190D01*
X225623380Y-109069190D01*
X176855571Y-132389571D02*
X176998428Y-132437190D01*
X177046047Y-132484809D01*
X177093666Y-132580047D01*
X177093666Y-132722904D01*
X177046047Y-132818142D01*
X176998428Y-132865761D01*
X176903190Y-132913380D01*
X176522238Y-132913380D01*
X176522238Y-131913380D01*
X176855571Y-131913380D01*
X176950809Y-131961000D01*
X176998428Y-132008619D01*
X177046047Y-132103857D01*
X177046047Y-132199095D01*
X176998428Y-132294333D01*
X176950809Y-132341952D01*
X176855571Y-132389571D01*
X176522238Y-132389571D01*
X177522238Y-132913380D02*
X177522238Y-131913380D01*
X177950809Y-132627666D02*
X178427000Y-132627666D01*
X177855571Y-132913380D02*
X178188904Y-131913380D01*
X178522238Y-132913380D01*
X178807952Y-132865761D02*
X178950809Y-132913380D01*
X179188904Y-132913380D01*
X179284142Y-132865761D01*
X179331761Y-132818142D01*
X179379380Y-132722904D01*
X179379380Y-132627666D01*
X179331761Y-132532428D01*
X179284142Y-132484809D01*
X179188904Y-132437190D01*
X178998428Y-132389571D01*
X178903190Y-132341952D01*
X178855571Y-132294333D01*
X178807952Y-132199095D01*
X178807952Y-132103857D01*
X178855571Y-132008619D01*
X178903190Y-131961000D01*
X178998428Y-131913380D01*
X179236523Y-131913380D01*
X179379380Y-131961000D01*
X196636190Y-117403571D02*
X196779047Y-117451190D01*
X196826666Y-117498809D01*
X196874285Y-117594047D01*
X196874285Y-117736904D01*
X196826666Y-117832142D01*
X196779047Y-117879761D01*
X196683809Y-117927380D01*
X196302857Y-117927380D01*
X196302857Y-116927380D01*
X196636190Y-116927380D01*
X196731428Y-116975000D01*
X196779047Y-117022619D01*
X196826666Y-117117857D01*
X196826666Y-117213095D01*
X196779047Y-117308333D01*
X196731428Y-117355952D01*
X196636190Y-117403571D01*
X196302857Y-117403571D01*
X197302857Y-117927380D02*
X197302857Y-116927380D01*
X197731428Y-117641666D02*
X198207619Y-117641666D01*
X197636190Y-117927380D02*
X197969523Y-116927380D01*
X198302857Y-117927380D01*
X198588571Y-117879761D02*
X198731428Y-117927380D01*
X198969523Y-117927380D01*
X199064761Y-117879761D01*
X199112380Y-117832142D01*
X199160000Y-117736904D01*
X199160000Y-117641666D01*
X199112380Y-117546428D01*
X199064761Y-117498809D01*
X198969523Y-117451190D01*
X198779047Y-117403571D01*
X198683809Y-117355952D01*
X198636190Y-117308333D01*
X198588571Y-117213095D01*
X198588571Y-117117857D01*
X198636190Y-117022619D01*
X198683809Y-116975000D01*
X198779047Y-116927380D01*
X199017142Y-116927380D01*
X199160000Y-116975000D01*
X200350476Y-117927380D02*
X200350476Y-116927380D01*
X200588571Y-116927380D01*
X200731428Y-116975000D01*
X200826666Y-117070238D01*
X200874285Y-117165476D01*
X200921904Y-117355952D01*
X200921904Y-117498809D01*
X200874285Y-117689285D01*
X200826666Y-117784523D01*
X200731428Y-117879761D01*
X200588571Y-117927380D01*
X200350476Y-117927380D01*
X201350476Y-117927380D02*
X201350476Y-116927380D01*
X202398095Y-117927380D02*
X202064761Y-117451190D01*
X201826666Y-117927380D02*
X201826666Y-116927380D01*
X202207619Y-116927380D01*
X202302857Y-116975000D01*
X202350476Y-117022619D01*
X202398095Y-117117857D01*
X202398095Y-117260714D01*
X202350476Y-117355952D01*
X202302857Y-117403571D01*
X202207619Y-117451190D01*
X201826666Y-117451190D01*
X202826666Y-117403571D02*
X203160000Y-117403571D01*
X203302857Y-117927380D02*
X202826666Y-117927380D01*
X202826666Y-116927380D01*
X203302857Y-116927380D01*
X204302857Y-117832142D02*
X204255238Y-117879761D01*
X204112380Y-117927380D01*
X204017142Y-117927380D01*
X203874285Y-117879761D01*
X203779047Y-117784523D01*
X203731428Y-117689285D01*
X203683809Y-117498809D01*
X203683809Y-117355952D01*
X203731428Y-117165476D01*
X203779047Y-117070238D01*
X203874285Y-116975000D01*
X204017142Y-116927380D01*
X204112380Y-116927380D01*
X204255238Y-116975000D01*
X204302857Y-117022619D01*
X204588571Y-116927380D02*
X205160000Y-116927380D01*
X204874285Y-117927380D02*
X204874285Y-116927380D01*
X177244476Y-92638571D02*
X176911142Y-92638571D01*
X176911142Y-93162380D02*
X176911142Y-92162380D01*
X177387333Y-92162380D01*
X177720666Y-92876666D02*
X178196857Y-92876666D01*
X177625428Y-93162380D02*
X177958761Y-92162380D01*
X178292095Y-93162380D01*
X178625428Y-93162380D02*
X178625428Y-92162380D01*
X179196857Y-93162380D01*
X179196857Y-92162380D01*
X176014190Y-83256380D02*
X176014190Y-82256380D01*
X176395142Y-82256380D01*
X176490380Y-82304000D01*
X176538000Y-82351619D01*
X176585619Y-82446857D01*
X176585619Y-82589714D01*
X176538000Y-82684952D01*
X176490380Y-82732571D01*
X176395142Y-82780190D01*
X176014190Y-82780190D01*
X176871333Y-82256380D02*
X177442761Y-82256380D01*
X177157047Y-83256380D02*
X177157047Y-82256380D01*
X177633238Y-82256380D02*
X178204666Y-82256380D01*
X177918952Y-83256380D02*
X177918952Y-82256380D01*
X194048190Y-85860380D02*
X193714857Y-85384190D01*
X193476761Y-85860380D02*
X193476761Y-84860380D01*
X193857714Y-84860380D01*
X193952952Y-84908000D01*
X194000571Y-84955619D01*
X194048190Y-85050857D01*
X194048190Y-85193714D01*
X194000571Y-85288952D01*
X193952952Y-85336571D01*
X193857714Y-85384190D01*
X193476761Y-85384190D01*
X194476761Y-85336571D02*
X194810095Y-85336571D01*
X194952952Y-85860380D02*
X194476761Y-85860380D01*
X194476761Y-84860380D01*
X194952952Y-84860380D01*
X195857714Y-85860380D02*
X195381523Y-85860380D01*
X195381523Y-84860380D01*
X196714857Y-85860380D02*
X196143428Y-85860380D01*
X196429142Y-85860380D02*
X196429142Y-84860380D01*
X196333904Y-85003238D01*
X196238666Y-85098476D01*
X196143428Y-85146095D01*
X203192190Y-85923380D02*
X202858857Y-85447190D01*
X202620761Y-85923380D02*
X202620761Y-84923380D01*
X203001714Y-84923380D01*
X203096952Y-84971000D01*
X203144571Y-85018619D01*
X203192190Y-85113857D01*
X203192190Y-85256714D01*
X203144571Y-85351952D01*
X203096952Y-85399571D01*
X203001714Y-85447190D01*
X202620761Y-85447190D01*
X203620761Y-85399571D02*
X203954095Y-85399571D01*
X204096952Y-85923380D02*
X203620761Y-85923380D01*
X203620761Y-84923380D01*
X204096952Y-84923380D01*
X205001714Y-85923380D02*
X204525523Y-85923380D01*
X204525523Y-84923380D01*
X205287428Y-85018619D02*
X205335047Y-84971000D01*
X205430285Y-84923380D01*
X205668380Y-84923380D01*
X205763619Y-84971000D01*
X205811238Y-85018619D01*
X205858857Y-85113857D01*
X205858857Y-85209095D01*
X205811238Y-85351952D01*
X205239809Y-85923380D01*
X205858857Y-85923380D01*
X221210476Y-86431380D02*
X221210476Y-85431380D01*
X221591428Y-85431380D01*
X221686666Y-85479000D01*
X221734285Y-85526619D01*
X221781904Y-85621857D01*
X221781904Y-85764714D01*
X221734285Y-85859952D01*
X221686666Y-85907571D01*
X221591428Y-85955190D01*
X221210476Y-85955190D01*
X222400952Y-85431380D02*
X222591428Y-85431380D01*
X222686666Y-85479000D01*
X222781904Y-85574238D01*
X222829523Y-85764714D01*
X222829523Y-86098047D01*
X222781904Y-86288523D01*
X222686666Y-86383761D01*
X222591428Y-86431380D01*
X222400952Y-86431380D01*
X222305714Y-86383761D01*
X222210476Y-86288523D01*
X222162857Y-86098047D01*
X222162857Y-85764714D01*
X222210476Y-85574238D01*
X222305714Y-85479000D01*
X222400952Y-85431380D01*
X223162857Y-85431380D02*
X223400952Y-86431380D01*
X223591428Y-85717095D01*
X223781904Y-86431380D01*
X224020000Y-85431380D01*
X224400952Y-85907571D02*
X224734285Y-85907571D01*
X224877142Y-86431380D02*
X224400952Y-86431380D01*
X224400952Y-85431380D01*
X224877142Y-85431380D01*
X225877142Y-86431380D02*
X225543809Y-85955190D01*
X225305714Y-86431380D02*
X225305714Y-85431380D01*
X225686666Y-85431380D01*
X225781904Y-85479000D01*
X225829523Y-85526619D01*
X225877142Y-85621857D01*
X225877142Y-85764714D01*
X225829523Y-85859952D01*
X225781904Y-85907571D01*
X225686666Y-85955190D01*
X225305714Y-85955190D01*
X212693476Y-108875580D02*
X213264904Y-108875580D01*
X212979190Y-109875580D02*
X212979190Y-108875580D01*
X213598238Y-109351771D02*
X213931571Y-109351771D01*
X214074428Y-109875580D02*
X213598238Y-109875580D01*
X213598238Y-108875580D01*
X214074428Y-108875580D01*
X214503000Y-109875580D02*
X214503000Y-108875580D01*
X214836333Y-109589866D01*
X215169666Y-108875580D01*
X215169666Y-109875580D01*
X215645857Y-109875580D02*
X215645857Y-108875580D01*
X216026809Y-108875580D01*
X216122047Y-108923200D01*
X216169666Y-108970819D01*
X216217285Y-109066057D01*
X216217285Y-109208914D01*
X216169666Y-109304152D01*
X216122047Y-109351771D01*
X216026809Y-109399390D01*
X215645857Y-109399390D01*
X222162857Y-105001961D02*
X222305714Y-105049580D01*
X222543809Y-105049580D01*
X222639047Y-105001961D01*
X222686666Y-104954342D01*
X222734285Y-104859104D01*
X222734285Y-104763866D01*
X222686666Y-104668628D01*
X222639047Y-104621009D01*
X222543809Y-104573390D01*
X222353333Y-104525771D01*
X222258095Y-104478152D01*
X222210476Y-104430533D01*
X222162857Y-104335295D01*
X222162857Y-104240057D01*
X222210476Y-104144819D01*
X222258095Y-104097200D01*
X222353333Y-104049580D01*
X222591428Y-104049580D01*
X222734285Y-104097200D01*
X223067619Y-104049580D02*
X223305714Y-105049580D01*
X223496190Y-104335295D01*
X223686666Y-105049580D01*
X223924761Y-104049580D01*
X224877142Y-105049580D02*
X224543809Y-104573390D01*
X224305714Y-105049580D02*
X224305714Y-104049580D01*
X224686666Y-104049580D01*
X224781904Y-104097200D01*
X224829523Y-104144819D01*
X224877142Y-104240057D01*
X224877142Y-104382914D01*
X224829523Y-104478152D01*
X224781904Y-104525771D01*
X224686666Y-104573390D01*
X224305714Y-104573390D01*
X201279285Y-98195380D02*
X201279285Y-99004904D01*
X201326904Y-99100142D01*
X201374523Y-99147761D01*
X201469761Y-99195380D01*
X201660238Y-99195380D01*
X201755476Y-99147761D01*
X201803095Y-99100142D01*
X201850714Y-99004904D01*
X201850714Y-98195380D01*
X202898333Y-99100142D02*
X202850714Y-99147761D01*
X202707857Y-99195380D01*
X202612619Y-99195380D01*
X202469761Y-99147761D01*
X202374523Y-99052523D01*
X202326904Y-98957285D01*
X202279285Y-98766809D01*
X202279285Y-98623952D01*
X202326904Y-98433476D01*
X202374523Y-98338238D01*
X202469761Y-98243000D01*
X202612619Y-98195380D01*
X202707857Y-98195380D01*
X202850714Y-98243000D01*
X202898333Y-98290619D01*
X203898333Y-99100142D02*
X203850714Y-99147761D01*
X203707857Y-99195380D01*
X203612619Y-99195380D01*
X203469761Y-99147761D01*
X203374523Y-99052523D01*
X203326904Y-98957285D01*
X203279285Y-98766809D01*
X203279285Y-98623952D01*
X203326904Y-98433476D01*
X203374523Y-98338238D01*
X203469761Y-98243000D01*
X203612619Y-98195380D01*
X203707857Y-98195380D01*
X203850714Y-98243000D01*
X203898333Y-98290619D01*
X200183904Y-97829666D02*
X200660095Y-97829666D01*
X200088666Y-98115380D02*
X200422000Y-97115380D01*
X200755333Y-98115380D01*
X201088666Y-98115380D02*
X201088666Y-97115380D01*
X201326761Y-97115380D01*
X201469619Y-97163000D01*
X201564857Y-97258238D01*
X201612476Y-97353476D01*
X201660095Y-97543952D01*
X201660095Y-97686809D01*
X201612476Y-97877285D01*
X201564857Y-97972523D01*
X201469619Y-98067761D01*
X201326761Y-98115380D01*
X201088666Y-98115380D01*
X202660095Y-98020142D02*
X202612476Y-98067761D01*
X202469619Y-98115380D01*
X202374380Y-98115380D01*
X202231523Y-98067761D01*
X202136285Y-97972523D01*
X202088666Y-97877285D01*
X202041047Y-97686809D01*
X202041047Y-97543952D01*
X202088666Y-97353476D01*
X202136285Y-97258238D01*
X202231523Y-97163000D01*
X202374380Y-97115380D01*
X202469619Y-97115380D01*
X202612476Y-97163000D01*
X202660095Y-97210619D01*
X224215485Y-75001428D02*
X224977390Y-75001428D01*
X224596438Y-75382380D02*
X224596438Y-74620476D01*
X225929771Y-74382380D02*
X225453580Y-74382380D01*
X225405961Y-74858571D01*
X225453580Y-74810952D01*
X225548819Y-74763333D01*
X225786914Y-74763333D01*
X225882152Y-74810952D01*
X225929771Y-74858571D01*
X225977390Y-74953809D01*
X225977390Y-75191904D01*
X225929771Y-75287142D01*
X225882152Y-75334761D01*
X225786914Y-75382380D01*
X225548819Y-75382380D01*
X225453580Y-75334761D01*
X225405961Y-75287142D01*
X226263104Y-74382380D02*
X226596438Y-75382380D01*
X226929771Y-74382380D01*
D11*
X184788000Y-106046000D02*
X181988000Y-106046000D01*
X181988000Y-106046000D02*
X181988000Y-109346000D01*
X200907500Y-76454000D02*
G75*
G03X200907500Y-76454000I-1200000J0D01*
G01*
X204343000Y-75184000D02*
X204343000Y-76708000D01*
X204343000Y-75946000D02*
X205486000Y-75184000D01*
X205486000Y-76708000D02*
X204343000Y-75946000D01*
X205486000Y-75184000D02*
X205486000Y-76708000D01*
X203454000Y-75946000D02*
X206502000Y-75946000D01*
X201678000Y-77446000D02*
X207378000Y-77446000D01*
X201678000Y-74446000D02*
X201678000Y-77446000D01*
X207378000Y-74446000D02*
X201678000Y-74446000D01*
X187706000Y-77597000D02*
X186182000Y-77597000D01*
X186944000Y-77597000D02*
X187706000Y-78740000D01*
X186182000Y-78740000D02*
X186944000Y-77597000D01*
X187706000Y-78740000D02*
X186182000Y-78740000D01*
X186944000Y-76708000D02*
X186944000Y-79756000D01*
X185444000Y-74932000D02*
X185444000Y-80632000D01*
X188444000Y-74932000D02*
X185444000Y-74932000D01*
X188444000Y-80632000D02*
X188444000Y-74932000D01*
X223653200Y-74980800D02*
G75*
G03X223653200Y-74980800I-1200000J0D01*
G01*
X212401000Y-69850000D02*
G75*
G03X212401000Y-69850000I-1200000J0D01*
G01*
X201148800Y-99872800D02*
G75*
G03X201148800Y-99872800I-1200000J0D01*
G01*
X194558000Y-124571000D02*
X194558000Y-121871000D01*
X194558000Y-121871000D02*
X192538000Y-121871000D01*
X192538000Y-121871000D02*
X192538000Y-124571000D01*
X188320680Y-132260340D02*
X187810900Y-132261540D01*
X188325000Y-133679000D02*
X187815220Y-133680200D01*
X186336940Y-133680200D02*
X186846720Y-133679000D01*
X186329320Y-132262880D02*
X186839100Y-132261680D01*
X225207680Y-92255340D02*
X224697900Y-92256540D01*
X225212000Y-93674000D02*
X224702220Y-93675200D01*
X223223940Y-93675200D02*
X223733720Y-93674000D01*
X223216320Y-92257880D02*
X223726100Y-92256680D01*
X215371680Y-85143340D02*
X214861900Y-85144540D01*
X215376000Y-86562000D02*
X214866220Y-86563200D01*
X213387940Y-86563200D02*
X213897720Y-86562000D01*
X213380320Y-85145880D02*
X213890100Y-85144680D01*
X182716320Y-87068660D02*
X183226100Y-87067460D01*
X182712000Y-85650000D02*
X183221780Y-85648800D01*
X184700060Y-85648800D02*
X184190280Y-85650000D01*
X184707680Y-87066120D02*
X184197900Y-87067320D01*
X207243680Y-99113340D02*
X206733900Y-99114540D01*
X207248000Y-100532000D02*
X206738220Y-100533200D01*
X205259940Y-100533200D02*
X205769720Y-100532000D01*
X205252320Y-99115880D02*
X205762100Y-99114680D01*
X181722000Y-132186000D02*
X183022000Y-132186000D01*
X181722000Y-134006000D02*
X183022000Y-134006000D01*
X201728000Y-100624500D02*
X201728000Y-100924500D01*
X203148000Y-100624500D02*
X203148000Y-100924500D01*
X196746000Y-125424000D02*
X196446000Y-125424000D01*
X196746000Y-124004000D02*
X196446000Y-124004000D01*
X217492000Y-136776000D02*
X221512000Y-136776000D01*
X221512000Y-136776000D02*
X221512000Y-111556000D01*
X221512000Y-111556000D02*
X217492000Y-111556000D01*
X217492000Y-111556000D02*
X217492000Y-136776000D01*
X219202000Y-136776000D02*
X219202000Y-136276000D01*
X219202000Y-136276000D02*
X217992000Y-136276000D01*
X217992000Y-136276000D02*
X217992000Y-112056000D01*
X217992000Y-112056000D02*
X219202000Y-112056000D01*
X219202000Y-112056000D02*
X219202000Y-111556000D01*
X220012000Y-136776000D02*
X220012000Y-135776000D01*
X220012000Y-135776000D02*
X221512000Y-135776000D01*
X220012000Y-111556000D02*
X220012000Y-112556000D01*
X220012000Y-112556000D02*
X221512000Y-112556000D01*
X219312000Y-137076000D02*
X221812000Y-137076000D01*
X221812000Y-137076000D02*
X221812000Y-134576000D01*
X190350000Y-125170000D02*
X190650000Y-125170000D01*
X190350000Y-123750000D02*
X190650000Y-123750000D01*
X197762000Y-122630000D02*
X197462000Y-122630000D01*
X197762000Y-121210000D02*
X197462000Y-121210000D01*
X183408000Y-130984000D02*
X183408000Y-125014000D01*
X183408000Y-125014000D02*
X175788000Y-125014000D01*
X175788000Y-125014000D02*
X175788000Y-130984000D01*
X175788000Y-130984000D02*
X183408000Y-130984000D01*
X180098000Y-130974000D02*
X180098000Y-130224000D01*
X180098000Y-130224000D02*
X179098000Y-130224000D01*
X179098000Y-130224000D02*
X179098000Y-130974000D01*
X179098000Y-130974000D02*
X180098000Y-130974000D01*
X183398000Y-130974000D02*
X183398000Y-130224000D01*
X183398000Y-130224000D02*
X181598000Y-130224000D01*
X181598000Y-130224000D02*
X181598000Y-130974000D01*
X181598000Y-130974000D02*
X183398000Y-130974000D01*
X177598000Y-130974000D02*
X177598000Y-130224000D01*
X177598000Y-130224000D02*
X175798000Y-130224000D01*
X175798000Y-130224000D02*
X175798000Y-130974000D01*
X175798000Y-130974000D02*
X177598000Y-130974000D01*
X183398000Y-128724000D02*
X182648000Y-128724000D01*
X182648000Y-128724000D02*
X182648000Y-125774000D01*
X182648000Y-125774000D02*
X179598000Y-125774000D01*
X175798000Y-128724000D02*
X176548000Y-128724000D01*
X176548000Y-128724000D02*
X176548000Y-125774000D01*
X176548000Y-125774000D02*
X179598000Y-125774000D01*
X182448000Y-131274000D02*
X183698000Y-131274000D01*
X183698000Y-131274000D02*
X183698000Y-130024000D01*
D10*
X199609000Y-126535000D02*
X199659000Y-126535000D01*
X199609000Y-122385000D02*
X199754000Y-122385000D01*
X204759000Y-122385000D02*
X204614000Y-122385000D01*
X204759000Y-126535000D02*
X204614000Y-126535000D01*
X199609000Y-126535000D02*
X199609000Y-122385000D01*
X204759000Y-126535000D02*
X204759000Y-122385000D01*
X199659000Y-126535000D02*
X199659000Y-127935000D01*
D11*
X188080000Y-126004000D02*
X192920000Y-126004000D01*
X188080000Y-131044000D02*
X192920000Y-131044000D01*
X188080000Y-126004000D02*
X188080000Y-127284000D01*
X188080000Y-129764000D02*
X188080000Y-131044000D01*
X192920000Y-126004000D02*
X192920000Y-126484000D01*
X192920000Y-128264000D02*
X192920000Y-128784000D01*
X192920000Y-130564000D02*
X192920000Y-131044000D01*
X188080000Y-126384000D02*
X188080000Y-126384000D01*
X188080000Y-126384000D02*
X188080000Y-127284000D01*
X188080000Y-126384000D02*
X188080000Y-127284000D01*
X199696000Y-132631000D02*
X199696000Y-132931000D01*
X201116000Y-132631000D02*
X201116000Y-132931000D01*
X196446000Y-129084000D02*
X196746000Y-129084000D01*
X196446000Y-130504000D02*
X196746000Y-130504000D01*
X196446000Y-133044000D02*
X196746000Y-133044000D01*
X196446000Y-131624000D02*
X196746000Y-131624000D01*
X196446000Y-126544000D02*
X196746000Y-126544000D01*
X196446000Y-127964000D02*
X196746000Y-127964000D01*
X188649000Y-58867646D02*
X189649000Y-58867646D01*
X189149000Y-59367646D02*
X189149000Y-58367646D01*
X191425000Y-48807000D02*
X192623000Y-48807000D01*
X191162000Y-48847000D02*
X192886000Y-48847000D01*
X190962000Y-48887000D02*
X193086000Y-48887000D01*
X190794000Y-48927000D02*
X193254000Y-48927000D01*
X190646000Y-48967000D02*
X193402000Y-48967000D01*
X190514000Y-49007000D02*
X193534000Y-49007000D01*
X190394000Y-49047000D02*
X193654000Y-49047000D01*
X190282000Y-49087000D02*
X193766000Y-49087000D01*
X190178000Y-49127000D02*
X193870000Y-49127000D01*
X190080000Y-49167000D02*
X193968000Y-49167000D01*
X189987000Y-49207000D02*
X194061000Y-49207000D01*
X189899000Y-49247000D02*
X194149000Y-49247000D01*
X189815000Y-49287000D02*
X194233000Y-49287000D01*
X189735000Y-49327000D02*
X194313000Y-49327000D01*
X189659000Y-49367000D02*
X194389000Y-49367000D01*
X189585000Y-49407000D02*
X194463000Y-49407000D01*
X189514000Y-49447000D02*
X194534000Y-49447000D01*
X189445000Y-49487000D02*
X194603000Y-49487000D01*
X189379000Y-49527000D02*
X194669000Y-49527000D01*
X189315000Y-49567000D02*
X194733000Y-49567000D01*
X189254000Y-49607000D02*
X194794000Y-49607000D01*
X189194000Y-49647000D02*
X194854000Y-49647000D01*
X189135000Y-49687000D02*
X194913000Y-49687000D01*
X189079000Y-49727000D02*
X194969000Y-49727000D01*
X189024000Y-49767000D02*
X195024000Y-49767000D01*
X188970000Y-49807000D02*
X195078000Y-49807000D01*
X188918000Y-49847000D02*
X195130000Y-49847000D01*
X188868000Y-49887000D02*
X195180000Y-49887000D01*
X188818000Y-49927000D02*
X195230000Y-49927000D01*
X188770000Y-49967000D02*
X195278000Y-49967000D01*
X188723000Y-50007000D02*
X195325000Y-50007000D01*
X188677000Y-50047000D02*
X195371000Y-50047000D01*
X188632000Y-50087000D02*
X195416000Y-50087000D01*
X188588000Y-50127000D02*
X195460000Y-50127000D01*
X193265000Y-50167000D02*
X195502000Y-50167000D01*
X188546000Y-50167000D02*
X190783000Y-50167000D01*
X193265000Y-50207000D02*
X195544000Y-50207000D01*
X188504000Y-50207000D02*
X190783000Y-50207000D01*
X193265000Y-50247000D02*
X195585000Y-50247000D01*
X188463000Y-50247000D02*
X190783000Y-50247000D01*
X193265000Y-50287000D02*
X195625000Y-50287000D01*
X188423000Y-50287000D02*
X190783000Y-50287000D01*
X193265000Y-50327000D02*
X195664000Y-50327000D01*
X188384000Y-50327000D02*
X190783000Y-50327000D01*
X193265000Y-50367000D02*
X195703000Y-50367000D01*
X188345000Y-50367000D02*
X190783000Y-50367000D01*
X193265000Y-50407000D02*
X195740000Y-50407000D01*
X188308000Y-50407000D02*
X190783000Y-50407000D01*
X193265000Y-50447000D02*
X195777000Y-50447000D01*
X188271000Y-50447000D02*
X190783000Y-50447000D01*
X193265000Y-50487000D02*
X195813000Y-50487000D01*
X188235000Y-50487000D02*
X190783000Y-50487000D01*
X193265000Y-50527000D02*
X195848000Y-50527000D01*
X188200000Y-50527000D02*
X190783000Y-50527000D01*
X193265000Y-50567000D02*
X195882000Y-50567000D01*
X188166000Y-50567000D02*
X190783000Y-50567000D01*
X193265000Y-50607000D02*
X195916000Y-50607000D01*
X188132000Y-50607000D02*
X190783000Y-50607000D01*
X193265000Y-50647000D02*
X195949000Y-50647000D01*
X188099000Y-50647000D02*
X190783000Y-50647000D01*
X193265000Y-50687000D02*
X195981000Y-50687000D01*
X188067000Y-50687000D02*
X190783000Y-50687000D01*
X193265000Y-50727000D02*
X196013000Y-50727000D01*
X188035000Y-50727000D02*
X190783000Y-50727000D01*
X193265000Y-50767000D02*
X196044000Y-50767000D01*
X188004000Y-50767000D02*
X190783000Y-50767000D01*
X193265000Y-50807000D02*
X196074000Y-50807000D01*
X187974000Y-50807000D02*
X190783000Y-50807000D01*
X193265000Y-50847000D02*
X196104000Y-50847000D01*
X187944000Y-50847000D02*
X190783000Y-50847000D01*
X193265000Y-50887000D02*
X196134000Y-50887000D01*
X187914000Y-50887000D02*
X190783000Y-50887000D01*
X193265000Y-50927000D02*
X196162000Y-50927000D01*
X187886000Y-50927000D02*
X190783000Y-50927000D01*
X193265000Y-50967000D02*
X196190000Y-50967000D01*
X187858000Y-50967000D02*
X190783000Y-50967000D01*
X193265000Y-51007000D02*
X196218000Y-51007000D01*
X187830000Y-51007000D02*
X190783000Y-51007000D01*
X193265000Y-51047000D02*
X196245000Y-51047000D01*
X187803000Y-51047000D02*
X190783000Y-51047000D01*
X193265000Y-51087000D02*
X196271000Y-51087000D01*
X187777000Y-51087000D02*
X190783000Y-51087000D01*
X193265000Y-51127000D02*
X196297000Y-51127000D01*
X187751000Y-51127000D02*
X190783000Y-51127000D01*
X193265000Y-51167000D02*
X196322000Y-51167000D01*
X187726000Y-51167000D02*
X190783000Y-51167000D01*
X193265000Y-51207000D02*
X196347000Y-51207000D01*
X187701000Y-51207000D02*
X190783000Y-51207000D01*
X193265000Y-51247000D02*
X196371000Y-51247000D01*
X187677000Y-51247000D02*
X190783000Y-51247000D01*
X193265000Y-51287000D02*
X196395000Y-51287000D01*
X187653000Y-51287000D02*
X190783000Y-51287000D01*
X193265000Y-51327000D02*
X196419000Y-51327000D01*
X187629000Y-51327000D02*
X190783000Y-51327000D01*
X193265000Y-51367000D02*
X196441000Y-51367000D01*
X187607000Y-51367000D02*
X190783000Y-51367000D01*
X193265000Y-51407000D02*
X196464000Y-51407000D01*
X187584000Y-51407000D02*
X190783000Y-51407000D01*
X193265000Y-51447000D02*
X196486000Y-51447000D01*
X187562000Y-51447000D02*
X190783000Y-51447000D01*
X193265000Y-51487000D02*
X196507000Y-51487000D01*
X187541000Y-51487000D02*
X190783000Y-51487000D01*
X193265000Y-51527000D02*
X196528000Y-51527000D01*
X187520000Y-51527000D02*
X190783000Y-51527000D01*
X193265000Y-51567000D02*
X196549000Y-51567000D01*
X187499000Y-51567000D02*
X190783000Y-51567000D01*
X193265000Y-51607000D02*
X196569000Y-51607000D01*
X187479000Y-51607000D02*
X190783000Y-51607000D01*
X193265000Y-51647000D02*
X196588000Y-51647000D01*
X187460000Y-51647000D02*
X190783000Y-51647000D01*
X193265000Y-51687000D02*
X196608000Y-51687000D01*
X187440000Y-51687000D02*
X190783000Y-51687000D01*
X193265000Y-51727000D02*
X196627000Y-51727000D01*
X187421000Y-51727000D02*
X190783000Y-51727000D01*
X193265000Y-51767000D02*
X196645000Y-51767000D01*
X187403000Y-51767000D02*
X190783000Y-51767000D01*
X193265000Y-51807000D02*
X196663000Y-51807000D01*
X187385000Y-51807000D02*
X190783000Y-51807000D01*
X193265000Y-51847000D02*
X196681000Y-51847000D01*
X187367000Y-51847000D02*
X190783000Y-51847000D01*
X193265000Y-51887000D02*
X196698000Y-51887000D01*
X187350000Y-51887000D02*
X190783000Y-51887000D01*
X193265000Y-51927000D02*
X196714000Y-51927000D01*
X187334000Y-51927000D02*
X190783000Y-51927000D01*
X193265000Y-51967000D02*
X196731000Y-51967000D01*
X187317000Y-51967000D02*
X190783000Y-51967000D01*
X193265000Y-52007000D02*
X196747000Y-52007000D01*
X187301000Y-52007000D02*
X190783000Y-52007000D01*
X193265000Y-52047000D02*
X196762000Y-52047000D01*
X187286000Y-52047000D02*
X190783000Y-52047000D01*
X193265000Y-52087000D02*
X196778000Y-52087000D01*
X187270000Y-52087000D02*
X190783000Y-52087000D01*
X193265000Y-52127000D02*
X196792000Y-52127000D01*
X187256000Y-52127000D02*
X190783000Y-52127000D01*
X193265000Y-52167000D02*
X196807000Y-52167000D01*
X187241000Y-52167000D02*
X190783000Y-52167000D01*
X193265000Y-52207000D02*
X196821000Y-52207000D01*
X187227000Y-52207000D02*
X190783000Y-52207000D01*
X193265000Y-52247000D02*
X196835000Y-52247000D01*
X187213000Y-52247000D02*
X190783000Y-52247000D01*
X193265000Y-52287000D02*
X196848000Y-52287000D01*
X187200000Y-52287000D02*
X190783000Y-52287000D01*
X193265000Y-52327000D02*
X196861000Y-52327000D01*
X187187000Y-52327000D02*
X190783000Y-52327000D01*
X193265000Y-52367000D02*
X196874000Y-52367000D01*
X187174000Y-52367000D02*
X190783000Y-52367000D01*
X193265000Y-52407000D02*
X196886000Y-52407000D01*
X187162000Y-52407000D02*
X190783000Y-52407000D01*
X193265000Y-52447000D02*
X196898000Y-52447000D01*
X187150000Y-52447000D02*
X190783000Y-52447000D01*
X193265000Y-52487000D02*
X196909000Y-52487000D01*
X187139000Y-52487000D02*
X190783000Y-52487000D01*
X193265000Y-52527000D02*
X196921000Y-52527000D01*
X187127000Y-52527000D02*
X190783000Y-52527000D01*
X193265000Y-52567000D02*
X196931000Y-52567000D01*
X187117000Y-52567000D02*
X190783000Y-52567000D01*
X193265000Y-52607000D02*
X196942000Y-52607000D01*
X187106000Y-52607000D02*
X190783000Y-52607000D01*
X187096000Y-52647000D02*
X196952000Y-52647000D01*
X187086000Y-52687000D02*
X196962000Y-52687000D01*
X187077000Y-52727000D02*
X196971000Y-52727000D01*
X187068000Y-52767000D02*
X196980000Y-52767000D01*
X187059000Y-52807000D02*
X196989000Y-52807000D01*
X187050000Y-52847000D02*
X196998000Y-52847000D01*
X187042000Y-52887000D02*
X197006000Y-52887000D01*
X187034000Y-52927000D02*
X197014000Y-52927000D01*
X187027000Y-52967000D02*
X197021000Y-52967000D01*
X187020000Y-53007000D02*
X197028000Y-53007000D01*
X187013000Y-53047000D02*
X197035000Y-53047000D01*
X187006000Y-53087000D02*
X197042000Y-53087000D01*
X187000000Y-53127000D02*
X197048000Y-53127000D01*
X186994000Y-53167000D02*
X197054000Y-53167000D01*
X186989000Y-53208000D02*
X197059000Y-53208000D01*
X186984000Y-53248000D02*
X197064000Y-53248000D01*
X186979000Y-53288000D02*
X197069000Y-53288000D01*
X186974000Y-53328000D02*
X197074000Y-53328000D01*
X186970000Y-53368000D02*
X197078000Y-53368000D01*
X186966000Y-53408000D02*
X197082000Y-53408000D01*
X186962000Y-53448000D02*
X197086000Y-53448000D01*
X186959000Y-53488000D02*
X197089000Y-53488000D01*
X186956000Y-53528000D02*
X197092000Y-53528000D01*
X186954000Y-53568000D02*
X197094000Y-53568000D01*
X186951000Y-53608000D02*
X197097000Y-53608000D01*
X186949000Y-53648000D02*
X197099000Y-53648000D01*
X186947000Y-53688000D02*
X197101000Y-53688000D01*
X186946000Y-53728000D02*
X197102000Y-53728000D01*
X186945000Y-53768000D02*
X197103000Y-53768000D01*
X186944000Y-53808000D02*
X197104000Y-53808000D01*
X186944000Y-53848000D02*
X197104000Y-53848000D01*
X186944000Y-53888000D02*
X197104000Y-53888000D01*
X197144000Y-53888000D02*
G75*
G03X197144000Y-53888000I-5120000J0D01*
G01*
X199136000Y-72390000D02*
G75*
G03X199136000Y-72390000I-5120000J0D01*
G01*
X194016000Y-67310000D02*
X194016000Y-77470000D01*
X194056000Y-67310000D02*
X194056000Y-77470000D01*
X194096000Y-67310000D02*
X194096000Y-77470000D01*
X194136000Y-67311000D02*
X194136000Y-77469000D01*
X194176000Y-67312000D02*
X194176000Y-77468000D01*
X194216000Y-67313000D02*
X194216000Y-77467000D01*
X194256000Y-67315000D02*
X194256000Y-77465000D01*
X194296000Y-67317000D02*
X194296000Y-77463000D01*
X194336000Y-67320000D02*
X194336000Y-77460000D01*
X194376000Y-67322000D02*
X194376000Y-77458000D01*
X194416000Y-67325000D02*
X194416000Y-77455000D01*
X194456000Y-67328000D02*
X194456000Y-77452000D01*
X194496000Y-67332000D02*
X194496000Y-77448000D01*
X194536000Y-67336000D02*
X194536000Y-77444000D01*
X194576000Y-67340000D02*
X194576000Y-77440000D01*
X194616000Y-67345000D02*
X194616000Y-77435000D01*
X194656000Y-67350000D02*
X194656000Y-77430000D01*
X194696000Y-67355000D02*
X194696000Y-77425000D01*
X194737000Y-67360000D02*
X194737000Y-77420000D01*
X194777000Y-67366000D02*
X194777000Y-77414000D01*
X194817000Y-67372000D02*
X194817000Y-77408000D01*
X194857000Y-67379000D02*
X194857000Y-77401000D01*
X194897000Y-67386000D02*
X194897000Y-77394000D01*
X194937000Y-67393000D02*
X194937000Y-77387000D01*
X194977000Y-67400000D02*
X194977000Y-77380000D01*
X195017000Y-67408000D02*
X195017000Y-77372000D01*
X195057000Y-67416000D02*
X195057000Y-77364000D01*
X195097000Y-67425000D02*
X195097000Y-77355000D01*
X195137000Y-67434000D02*
X195137000Y-77346000D01*
X195177000Y-67443000D02*
X195177000Y-77337000D01*
X195217000Y-67452000D02*
X195217000Y-77328000D01*
X195257000Y-67462000D02*
X195257000Y-77318000D01*
X195297000Y-67472000D02*
X195297000Y-71149000D01*
X195297000Y-73631000D02*
X195297000Y-77308000D01*
X195337000Y-67483000D02*
X195337000Y-71149000D01*
X195337000Y-73631000D02*
X195337000Y-77297000D01*
X195377000Y-67493000D02*
X195377000Y-71149000D01*
X195377000Y-73631000D02*
X195377000Y-77287000D01*
X195417000Y-67505000D02*
X195417000Y-71149000D01*
X195417000Y-73631000D02*
X195417000Y-77275000D01*
X195457000Y-67516000D02*
X195457000Y-71149000D01*
X195457000Y-73631000D02*
X195457000Y-77264000D01*
X195497000Y-67528000D02*
X195497000Y-71149000D01*
X195497000Y-73631000D02*
X195497000Y-77252000D01*
X195537000Y-67540000D02*
X195537000Y-71149000D01*
X195537000Y-73631000D02*
X195537000Y-77240000D01*
X195577000Y-67553000D02*
X195577000Y-71149000D01*
X195577000Y-73631000D02*
X195577000Y-77227000D01*
X195617000Y-67566000D02*
X195617000Y-71149000D01*
X195617000Y-73631000D02*
X195617000Y-77214000D01*
X195657000Y-67579000D02*
X195657000Y-71149000D01*
X195657000Y-73631000D02*
X195657000Y-77201000D01*
X195697000Y-67593000D02*
X195697000Y-71149000D01*
X195697000Y-73631000D02*
X195697000Y-77187000D01*
X195737000Y-67607000D02*
X195737000Y-71149000D01*
X195737000Y-73631000D02*
X195737000Y-77173000D01*
X195777000Y-67622000D02*
X195777000Y-71149000D01*
X195777000Y-73631000D02*
X195777000Y-77158000D01*
X195817000Y-67636000D02*
X195817000Y-71149000D01*
X195817000Y-73631000D02*
X195817000Y-77144000D01*
X195857000Y-67652000D02*
X195857000Y-71149000D01*
X195857000Y-73631000D02*
X195857000Y-77128000D01*
X195897000Y-67667000D02*
X195897000Y-71149000D01*
X195897000Y-73631000D02*
X195897000Y-77113000D01*
X195937000Y-67683000D02*
X195937000Y-71149000D01*
X195937000Y-73631000D02*
X195937000Y-77097000D01*
X195977000Y-67700000D02*
X195977000Y-71149000D01*
X195977000Y-73631000D02*
X195977000Y-77080000D01*
X196017000Y-67716000D02*
X196017000Y-71149000D01*
X196017000Y-73631000D02*
X196017000Y-77064000D01*
X196057000Y-67733000D02*
X196057000Y-71149000D01*
X196057000Y-73631000D02*
X196057000Y-77047000D01*
X196097000Y-67751000D02*
X196097000Y-71149000D01*
X196097000Y-73631000D02*
X196097000Y-77029000D01*
X196137000Y-67769000D02*
X196137000Y-71149000D01*
X196137000Y-73631000D02*
X196137000Y-77011000D01*
X196177000Y-67787000D02*
X196177000Y-71149000D01*
X196177000Y-73631000D02*
X196177000Y-76993000D01*
X196217000Y-67806000D02*
X196217000Y-71149000D01*
X196217000Y-73631000D02*
X196217000Y-76974000D01*
X196257000Y-67826000D02*
X196257000Y-71149000D01*
X196257000Y-73631000D02*
X196257000Y-76954000D01*
X196297000Y-67845000D02*
X196297000Y-71149000D01*
X196297000Y-73631000D02*
X196297000Y-76935000D01*
X196337000Y-67865000D02*
X196337000Y-71149000D01*
X196337000Y-73631000D02*
X196337000Y-76915000D01*
X196377000Y-67886000D02*
X196377000Y-71149000D01*
X196377000Y-73631000D02*
X196377000Y-76894000D01*
X196417000Y-67907000D02*
X196417000Y-71149000D01*
X196417000Y-73631000D02*
X196417000Y-76873000D01*
X196457000Y-67928000D02*
X196457000Y-71149000D01*
X196457000Y-73631000D02*
X196457000Y-76852000D01*
X196497000Y-67950000D02*
X196497000Y-71149000D01*
X196497000Y-73631000D02*
X196497000Y-76830000D01*
X196537000Y-67973000D02*
X196537000Y-71149000D01*
X196537000Y-73631000D02*
X196537000Y-76807000D01*
X196577000Y-67995000D02*
X196577000Y-71149000D01*
X196577000Y-73631000D02*
X196577000Y-76785000D01*
X196617000Y-68019000D02*
X196617000Y-71149000D01*
X196617000Y-73631000D02*
X196617000Y-76761000D01*
X196657000Y-68043000D02*
X196657000Y-71149000D01*
X196657000Y-73631000D02*
X196657000Y-76737000D01*
X196697000Y-68067000D02*
X196697000Y-71149000D01*
X196697000Y-73631000D02*
X196697000Y-76713000D01*
X196737000Y-68092000D02*
X196737000Y-71149000D01*
X196737000Y-73631000D02*
X196737000Y-76688000D01*
X196777000Y-68117000D02*
X196777000Y-71149000D01*
X196777000Y-73631000D02*
X196777000Y-76663000D01*
X196817000Y-68143000D02*
X196817000Y-71149000D01*
X196817000Y-73631000D02*
X196817000Y-76637000D01*
X196857000Y-68169000D02*
X196857000Y-71149000D01*
X196857000Y-73631000D02*
X196857000Y-76611000D01*
X196897000Y-68196000D02*
X196897000Y-71149000D01*
X196897000Y-73631000D02*
X196897000Y-76584000D01*
X196937000Y-68224000D02*
X196937000Y-71149000D01*
X196937000Y-73631000D02*
X196937000Y-76556000D01*
X196977000Y-68252000D02*
X196977000Y-71149000D01*
X196977000Y-73631000D02*
X196977000Y-76528000D01*
X197017000Y-68280000D02*
X197017000Y-71149000D01*
X197017000Y-73631000D02*
X197017000Y-76500000D01*
X197057000Y-68310000D02*
X197057000Y-71149000D01*
X197057000Y-73631000D02*
X197057000Y-76470000D01*
X197097000Y-68340000D02*
X197097000Y-71149000D01*
X197097000Y-73631000D02*
X197097000Y-76440000D01*
X197137000Y-68370000D02*
X197137000Y-71149000D01*
X197137000Y-73631000D02*
X197137000Y-76410000D01*
X197177000Y-68401000D02*
X197177000Y-71149000D01*
X197177000Y-73631000D02*
X197177000Y-76379000D01*
X197217000Y-68433000D02*
X197217000Y-71149000D01*
X197217000Y-73631000D02*
X197217000Y-76347000D01*
X197257000Y-68465000D02*
X197257000Y-71149000D01*
X197257000Y-73631000D02*
X197257000Y-76315000D01*
X197297000Y-68498000D02*
X197297000Y-71149000D01*
X197297000Y-73631000D02*
X197297000Y-76282000D01*
X197337000Y-68532000D02*
X197337000Y-71149000D01*
X197337000Y-73631000D02*
X197337000Y-76248000D01*
X197377000Y-68566000D02*
X197377000Y-71149000D01*
X197377000Y-73631000D02*
X197377000Y-76214000D01*
X197417000Y-68601000D02*
X197417000Y-71149000D01*
X197417000Y-73631000D02*
X197417000Y-76179000D01*
X197457000Y-68637000D02*
X197457000Y-71149000D01*
X197457000Y-73631000D02*
X197457000Y-76143000D01*
X197497000Y-68674000D02*
X197497000Y-71149000D01*
X197497000Y-73631000D02*
X197497000Y-76106000D01*
X197537000Y-68711000D02*
X197537000Y-71149000D01*
X197537000Y-73631000D02*
X197537000Y-76069000D01*
X197577000Y-68750000D02*
X197577000Y-71149000D01*
X197577000Y-73631000D02*
X197577000Y-76030000D01*
X197617000Y-68789000D02*
X197617000Y-71149000D01*
X197617000Y-73631000D02*
X197617000Y-75991000D01*
X197657000Y-68829000D02*
X197657000Y-71149000D01*
X197657000Y-73631000D02*
X197657000Y-75951000D01*
X197697000Y-68870000D02*
X197697000Y-71149000D01*
X197697000Y-73631000D02*
X197697000Y-75910000D01*
X197737000Y-68912000D02*
X197737000Y-71149000D01*
X197737000Y-73631000D02*
X197737000Y-75868000D01*
X197777000Y-68954000D02*
X197777000Y-75826000D01*
X197817000Y-68998000D02*
X197817000Y-75782000D01*
X197857000Y-69043000D02*
X197857000Y-75737000D01*
X197897000Y-69089000D02*
X197897000Y-75691000D01*
X197937000Y-69136000D02*
X197937000Y-75644000D01*
X197977000Y-69184000D02*
X197977000Y-75596000D01*
X198017000Y-69234000D02*
X198017000Y-75546000D01*
X198057000Y-69284000D02*
X198057000Y-75496000D01*
X198097000Y-69336000D02*
X198097000Y-75444000D01*
X198137000Y-69390000D02*
X198137000Y-75390000D01*
X198177000Y-69445000D02*
X198177000Y-75335000D01*
X198217000Y-69501000D02*
X198217000Y-75279000D01*
X198257000Y-69560000D02*
X198257000Y-75220000D01*
X198297000Y-69620000D02*
X198297000Y-75160000D01*
X198337000Y-69681000D02*
X198337000Y-75099000D01*
X198377000Y-69745000D02*
X198377000Y-75035000D01*
X198417000Y-69811000D02*
X198417000Y-74969000D01*
X198457000Y-69880000D02*
X198457000Y-74900000D01*
X198497000Y-69951000D02*
X198497000Y-74829000D01*
X198537000Y-70025000D02*
X198537000Y-74755000D01*
X198577000Y-70101000D02*
X198577000Y-74679000D01*
X198617000Y-70181000D02*
X198617000Y-74599000D01*
X198657000Y-70265000D02*
X198657000Y-74515000D01*
X198697000Y-70353000D02*
X198697000Y-74427000D01*
X198737000Y-70446000D02*
X198737000Y-74334000D01*
X198777000Y-70544000D02*
X198777000Y-74236000D01*
X198817000Y-70648000D02*
X198817000Y-74132000D01*
X198857000Y-70760000D02*
X198857000Y-74020000D01*
X198897000Y-70880000D02*
X198897000Y-73900000D01*
X198937000Y-71012000D02*
X198937000Y-73768000D01*
X198977000Y-71160000D02*
X198977000Y-73620000D01*
X199017000Y-71328000D02*
X199017000Y-73452000D01*
X199057000Y-71528000D02*
X199057000Y-73252000D01*
X199097000Y-71791000D02*
X199097000Y-72989000D01*
X188536354Y-69515000D02*
X189536354Y-69515000D01*
X189036354Y-69015000D02*
X189036354Y-70015000D01*
X193158000Y-59442000D02*
X188858000Y-59442000D01*
X188858000Y-59442000D02*
X188858000Y-65142000D01*
X193158000Y-59442000D02*
X193158000Y-65142000D01*
X178310000Y-73864000D02*
X175310000Y-73864000D01*
X175310000Y-73864000D02*
X175310000Y-61264000D01*
X175310000Y-61264000D02*
X178310000Y-61264000D01*
X184910000Y-61264000D02*
X187910000Y-61264000D01*
X187910000Y-61264000D02*
X187910000Y-73864000D01*
X187910000Y-73864000D02*
X184910000Y-73864000D01*
X193604000Y-86362000D02*
X192674000Y-86362000D01*
X190444000Y-86362000D02*
X191374000Y-86362000D01*
X190444000Y-86362000D02*
X190444000Y-88522000D01*
X193604000Y-86362000D02*
X193604000Y-87822000D01*
X186286000Y-95706000D02*
X186586000Y-95706000D01*
X186286000Y-94286000D02*
X186586000Y-94286000D01*
X227640000Y-103080000D02*
X227640000Y-101830000D01*
X226390000Y-103080000D02*
X227640000Y-103080000D01*
X220490000Y-97580000D02*
X223540000Y-97580000D01*
X220490000Y-100530000D02*
X220490000Y-97580000D01*
X219740000Y-100530000D02*
X220490000Y-100530000D01*
X226590000Y-97580000D02*
X223540000Y-97580000D01*
X226590000Y-100530000D02*
X226590000Y-97580000D01*
X227340000Y-100530000D02*
X226590000Y-100530000D01*
X219740000Y-102780000D02*
X221540000Y-102780000D01*
X219740000Y-102030000D02*
X219740000Y-102780000D01*
X221540000Y-102030000D02*
X219740000Y-102030000D01*
X221540000Y-102780000D02*
X221540000Y-102030000D01*
X225540000Y-102780000D02*
X227340000Y-102780000D01*
X225540000Y-102030000D02*
X225540000Y-102780000D01*
X227340000Y-102030000D02*
X225540000Y-102030000D01*
X227340000Y-102780000D02*
X227340000Y-102030000D01*
X223040000Y-102780000D02*
X224040000Y-102780000D01*
X223040000Y-102030000D02*
X223040000Y-102780000D01*
X224040000Y-102030000D02*
X223040000Y-102030000D01*
X224040000Y-102780000D02*
X224040000Y-102030000D01*
X219730000Y-102790000D02*
X227350000Y-102790000D01*
X219730000Y-96820000D02*
X219730000Y-102790000D01*
X227350000Y-96820000D02*
X219730000Y-96820000D01*
X227350000Y-102790000D02*
X227350000Y-96820000D01*
X217222000Y-93830000D02*
X217222000Y-94130000D01*
X218642000Y-93830000D02*
X218642000Y-94130000D01*
X198853756Y-86718000D02*
X198853756Y-87018000D01*
X197433756Y-86718000D02*
X197433756Y-87018000D01*
D10*
X188399000Y-98102000D02*
X188399000Y-98327000D01*
X195649000Y-98102000D02*
X195649000Y-98427000D01*
X195649000Y-105352000D02*
X195649000Y-105027000D01*
X188399000Y-105352000D02*
X188399000Y-105027000D01*
X188399000Y-98102000D02*
X188724000Y-98102000D01*
X188399000Y-105352000D02*
X188724000Y-105352000D01*
X195649000Y-105352000D02*
X195324000Y-105352000D01*
X195649000Y-98102000D02*
X195324000Y-98102000D01*
X188399000Y-98327000D02*
X186974000Y-98327000D01*
D11*
X203709000Y-56776000D02*
X202209000Y-56776000D01*
X202209000Y-56776000D02*
X202209000Y-57726000D01*
X202209000Y-57726000D02*
X197084000Y-57726000D01*
X203709000Y-67176000D02*
X202209000Y-67176000D01*
X202209000Y-67176000D02*
X202209000Y-66226000D01*
X202209000Y-66226000D02*
X201109000Y-66226000D01*
X206098000Y-101906000D02*
X206398000Y-101906000D01*
X206098000Y-103326000D02*
X206398000Y-103326000D01*
X211916000Y-107716000D02*
X217886000Y-107716000D01*
X217886000Y-107716000D02*
X217886000Y-100096000D01*
X217886000Y-100096000D02*
X211916000Y-100096000D01*
X211916000Y-100096000D02*
X211916000Y-107716000D01*
X211926000Y-104406000D02*
X212676000Y-104406000D01*
X212676000Y-104406000D02*
X212676000Y-103406000D01*
X212676000Y-103406000D02*
X211926000Y-103406000D01*
X211926000Y-103406000D02*
X211926000Y-104406000D01*
X211926000Y-107706000D02*
X212676000Y-107706000D01*
X212676000Y-107706000D02*
X212676000Y-105906000D01*
X212676000Y-105906000D02*
X211926000Y-105906000D01*
X211926000Y-105906000D02*
X211926000Y-107706000D01*
X211926000Y-101906000D02*
X212676000Y-101906000D01*
X212676000Y-101906000D02*
X212676000Y-100106000D01*
X212676000Y-100106000D02*
X211926000Y-100106000D01*
X211926000Y-100106000D02*
X211926000Y-101906000D01*
X214176000Y-107706000D02*
X214176000Y-106956000D01*
X214176000Y-106956000D02*
X217126000Y-106956000D01*
X217126000Y-106956000D02*
X217126000Y-103906000D01*
X214176000Y-100106000D02*
X214176000Y-100856000D01*
X214176000Y-100856000D02*
X217126000Y-100856000D01*
X217126000Y-100856000D02*
X217126000Y-103906000D01*
X211626000Y-106756000D02*
X211626000Y-108006000D01*
X211626000Y-108006000D02*
X212876000Y-108006000D01*
X226874000Y-93830000D02*
X226874000Y-94130000D01*
X228294000Y-93830000D02*
X228294000Y-94130000D01*
X183538000Y-91642000D02*
X183238000Y-91642000D01*
X183538000Y-90222000D02*
X183238000Y-90222000D01*
X180868000Y-91868000D02*
X180868000Y-85898000D01*
X180868000Y-85898000D02*
X173248000Y-85898000D01*
X173248000Y-85898000D02*
X173248000Y-91868000D01*
X173248000Y-91868000D02*
X180868000Y-91868000D01*
X177558000Y-91858000D02*
X177558000Y-91108000D01*
X177558000Y-91108000D02*
X176558000Y-91108000D01*
X176558000Y-91108000D02*
X176558000Y-91858000D01*
X176558000Y-91858000D02*
X177558000Y-91858000D01*
X180858000Y-91858000D02*
X180858000Y-91108000D01*
X180858000Y-91108000D02*
X179058000Y-91108000D01*
X179058000Y-91108000D02*
X179058000Y-91858000D01*
X179058000Y-91858000D02*
X180858000Y-91858000D01*
X175058000Y-91858000D02*
X175058000Y-91108000D01*
X175058000Y-91108000D02*
X173258000Y-91108000D01*
X173258000Y-91108000D02*
X173258000Y-91858000D01*
X173258000Y-91858000D02*
X175058000Y-91858000D01*
X180858000Y-89608000D02*
X180108000Y-89608000D01*
X180108000Y-89608000D02*
X180108000Y-86658000D01*
X180108000Y-86658000D02*
X177058000Y-86658000D01*
X173258000Y-89608000D02*
X174008000Y-89608000D01*
X174008000Y-89608000D02*
X174008000Y-86658000D01*
X174008000Y-86658000D02*
X177058000Y-86658000D01*
X179908000Y-92158000D02*
X181158000Y-92158000D01*
X181158000Y-92158000D02*
X181158000Y-90908000D01*
X210056000Y-107244000D02*
X210056000Y-106314000D01*
X210056000Y-104084000D02*
X210056000Y-105014000D01*
X210056000Y-104084000D02*
X207896000Y-104084000D01*
X210056000Y-107244000D02*
X208596000Y-107244000D01*
X227640000Y-84665000D02*
X227640000Y-83415000D01*
X226390000Y-84665000D02*
X227640000Y-84665000D01*
X220490000Y-79165000D02*
X223540000Y-79165000D01*
X220490000Y-82115000D02*
X220490000Y-79165000D01*
X219740000Y-82115000D02*
X220490000Y-82115000D01*
X226590000Y-79165000D02*
X223540000Y-79165000D01*
X226590000Y-82115000D02*
X226590000Y-79165000D01*
X227340000Y-82115000D02*
X226590000Y-82115000D01*
X219740000Y-84365000D02*
X221540000Y-84365000D01*
X219740000Y-83615000D02*
X219740000Y-84365000D01*
X221540000Y-83615000D02*
X219740000Y-83615000D01*
X221540000Y-84365000D02*
X221540000Y-83615000D01*
X225540000Y-84365000D02*
X227340000Y-84365000D01*
X225540000Y-83615000D02*
X225540000Y-84365000D01*
X227340000Y-83615000D02*
X225540000Y-83615000D01*
X227340000Y-84365000D02*
X227340000Y-83615000D01*
X223040000Y-84365000D02*
X224040000Y-84365000D01*
X223040000Y-83615000D02*
X223040000Y-84365000D01*
X224040000Y-83615000D02*
X223040000Y-83615000D01*
X224040000Y-84365000D02*
X224040000Y-83615000D01*
X219730000Y-84375000D02*
X227350000Y-84375000D01*
X219730000Y-78405000D02*
X219730000Y-84375000D01*
X227350000Y-78405000D02*
X219730000Y-78405000D01*
X227350000Y-84375000D02*
X227350000Y-78405000D01*
X226374000Y-110430000D02*
X223714000Y-110430000D01*
X226374000Y-123190000D02*
X226374000Y-110430000D01*
X223714000Y-123190000D02*
X223714000Y-110430000D01*
X226374000Y-123190000D02*
X223714000Y-123190000D01*
X226374000Y-124460000D02*
X226374000Y-125790000D01*
X226374000Y-125790000D02*
X225044000Y-125790000D01*
X219762000Y-93830000D02*
X219762000Y-94130000D01*
X221182000Y-93830000D02*
X221182000Y-94130000D01*
X210514000Y-86718000D02*
X210514000Y-87018000D01*
X209094000Y-86718000D02*
X209094000Y-87018000D01*
X216102000Y-95862000D02*
X216102000Y-96162000D01*
X214682000Y-95862000D02*
X214682000Y-96162000D01*
X207570000Y-91290000D02*
X207570000Y-91590000D01*
X208990000Y-91290000D02*
X208990000Y-91590000D01*
X202998000Y-109070000D02*
X202998000Y-109370000D01*
X204418000Y-109070000D02*
X204418000Y-109370000D01*
X217843000Y-75490000D02*
X218143000Y-75490000D01*
X217843000Y-76910000D02*
X218143000Y-76910000D01*
X200458000Y-109070000D02*
X200458000Y-109370000D01*
X201878000Y-109070000D02*
X201878000Y-109370000D01*
X206958000Y-109070000D02*
X206958000Y-109370000D01*
X205538000Y-109070000D02*
X205538000Y-109370000D01*
X199338000Y-96162000D02*
X199338000Y-95862000D01*
X197918000Y-96162000D02*
X197918000Y-95862000D01*
X196954000Y-92254000D02*
X197254000Y-92254000D01*
X196954000Y-93674000D02*
X197254000Y-93674000D01*
X199594400Y-103274000D02*
X199594400Y-102974000D01*
X201014400Y-103274000D02*
X201014400Y-102974000D01*
X180900000Y-102004000D02*
X180900000Y-101704000D01*
X182320000Y-102004000D02*
X182320000Y-101704000D01*
X185114000Y-102004000D02*
X185114000Y-101704000D01*
X183694000Y-102004000D02*
X183694000Y-101704000D01*
X199338000Y-106530000D02*
X199338000Y-106830000D01*
X197918000Y-106530000D02*
X197918000Y-106830000D01*
X217782000Y-72950000D02*
X218082000Y-72950000D01*
X217782000Y-74370000D02*
X218082000Y-74370000D01*
X221638000Y-68782000D02*
X221338000Y-68782000D01*
X221638000Y-67362000D02*
X221338000Y-67362000D01*
X221638000Y-69902000D02*
X221338000Y-69902000D01*
X221638000Y-71322000D02*
X221338000Y-71322000D01*
X182014000Y-104065000D02*
X181714000Y-104065000D01*
X182014000Y-105485000D02*
X181714000Y-105485000D01*
X185535500Y-109133500D02*
X185535500Y-109433500D01*
X186955500Y-109133500D02*
X186955500Y-109433500D01*
X180868000Y-81327000D02*
X180868000Y-75357000D01*
X180868000Y-75357000D02*
X173248000Y-75357000D01*
X173248000Y-75357000D02*
X173248000Y-81327000D01*
X173248000Y-81327000D02*
X180868000Y-81327000D01*
X177558000Y-81317000D02*
X177558000Y-80567000D01*
X177558000Y-80567000D02*
X176558000Y-80567000D01*
X176558000Y-80567000D02*
X176558000Y-81317000D01*
X176558000Y-81317000D02*
X177558000Y-81317000D01*
X180858000Y-81317000D02*
X180858000Y-80567000D01*
X180858000Y-80567000D02*
X179058000Y-80567000D01*
X179058000Y-80567000D02*
X179058000Y-81317000D01*
X179058000Y-81317000D02*
X180858000Y-81317000D01*
X175058000Y-81317000D02*
X175058000Y-80567000D01*
X175058000Y-80567000D02*
X173258000Y-80567000D01*
X173258000Y-80567000D02*
X173258000Y-81317000D01*
X173258000Y-81317000D02*
X175058000Y-81317000D01*
X180858000Y-79067000D02*
X180108000Y-79067000D01*
X180108000Y-79067000D02*
X180108000Y-76117000D01*
X180108000Y-76117000D02*
X177058000Y-76117000D01*
X173258000Y-79067000D02*
X174008000Y-79067000D01*
X174008000Y-79067000D02*
X174008000Y-76117000D01*
X174008000Y-76117000D02*
X177058000Y-76117000D01*
X179908000Y-81617000D02*
X181158000Y-81617000D01*
X181158000Y-81617000D02*
X181158000Y-80367000D01*
X208844000Y-84792000D02*
X208844000Y-83542000D01*
X207594000Y-84792000D02*
X208844000Y-84792000D01*
X201694000Y-79292000D02*
X204744000Y-79292000D01*
X201694000Y-82242000D02*
X201694000Y-79292000D01*
X200944000Y-82242000D02*
X201694000Y-82242000D01*
X207794000Y-79292000D02*
X204744000Y-79292000D01*
X207794000Y-82242000D02*
X207794000Y-79292000D01*
X208544000Y-82242000D02*
X207794000Y-82242000D01*
X200944000Y-84492000D02*
X202744000Y-84492000D01*
X200944000Y-83742000D02*
X200944000Y-84492000D01*
X202744000Y-83742000D02*
X200944000Y-83742000D01*
X202744000Y-84492000D02*
X202744000Y-83742000D01*
X206744000Y-84492000D02*
X208544000Y-84492000D01*
X206744000Y-83742000D02*
X206744000Y-84492000D01*
X208544000Y-83742000D02*
X206744000Y-83742000D01*
X208544000Y-84492000D02*
X208544000Y-83742000D01*
X204244000Y-84492000D02*
X205244000Y-84492000D01*
X204244000Y-83742000D02*
X204244000Y-84492000D01*
X205244000Y-83742000D02*
X204244000Y-83742000D01*
X205244000Y-84492000D02*
X205244000Y-83742000D01*
X200934000Y-84502000D02*
X208554000Y-84502000D01*
X200934000Y-78532000D02*
X200934000Y-84502000D01*
X208554000Y-78532000D02*
X200934000Y-78532000D01*
X208554000Y-84502000D02*
X208554000Y-78532000D01*
X198902000Y-84502000D02*
X198902000Y-78532000D01*
X198902000Y-78532000D02*
X191282000Y-78532000D01*
X191282000Y-78532000D02*
X191282000Y-84502000D01*
X191282000Y-84502000D02*
X198902000Y-84502000D01*
X195592000Y-84492000D02*
X195592000Y-83742000D01*
X195592000Y-83742000D02*
X194592000Y-83742000D01*
X194592000Y-83742000D02*
X194592000Y-84492000D01*
X194592000Y-84492000D02*
X195592000Y-84492000D01*
X198892000Y-84492000D02*
X198892000Y-83742000D01*
X198892000Y-83742000D02*
X197092000Y-83742000D01*
X197092000Y-83742000D02*
X197092000Y-84492000D01*
X197092000Y-84492000D02*
X198892000Y-84492000D01*
X193092000Y-84492000D02*
X193092000Y-83742000D01*
X193092000Y-83742000D02*
X191292000Y-83742000D01*
X191292000Y-83742000D02*
X191292000Y-84492000D01*
X191292000Y-84492000D02*
X193092000Y-84492000D01*
X198892000Y-82242000D02*
X198142000Y-82242000D01*
X198142000Y-82242000D02*
X198142000Y-79292000D01*
X198142000Y-79292000D02*
X195092000Y-79292000D01*
X191292000Y-82242000D02*
X192042000Y-82242000D01*
X192042000Y-82242000D02*
X192042000Y-79292000D01*
X192042000Y-79292000D02*
X195092000Y-79292000D01*
X197942000Y-84792000D02*
X199192000Y-84792000D01*
X199192000Y-84792000D02*
X199192000Y-83542000D01*
X195346000Y-121078000D02*
X195346000Y-115108000D01*
X195346000Y-115108000D02*
X187726000Y-115108000D01*
X187726000Y-115108000D02*
X187726000Y-121078000D01*
X187726000Y-121078000D02*
X195346000Y-121078000D01*
X192036000Y-121068000D02*
X192036000Y-120318000D01*
X192036000Y-120318000D02*
X191036000Y-120318000D01*
X191036000Y-120318000D02*
X191036000Y-121068000D01*
X191036000Y-121068000D02*
X192036000Y-121068000D01*
X195336000Y-121068000D02*
X195336000Y-120318000D01*
X195336000Y-120318000D02*
X193536000Y-120318000D01*
X193536000Y-120318000D02*
X193536000Y-121068000D01*
X193536000Y-121068000D02*
X195336000Y-121068000D01*
X189536000Y-121068000D02*
X189536000Y-120318000D01*
X189536000Y-120318000D02*
X187736000Y-120318000D01*
X187736000Y-120318000D02*
X187736000Y-121068000D01*
X187736000Y-121068000D02*
X189536000Y-121068000D01*
X195336000Y-118818000D02*
X194586000Y-118818000D01*
X194586000Y-118818000D02*
X194586000Y-115868000D01*
X194586000Y-115868000D02*
X191536000Y-115868000D01*
X187736000Y-118818000D02*
X188486000Y-118818000D01*
X188486000Y-118818000D02*
X188486000Y-115868000D01*
X188486000Y-115868000D02*
X191536000Y-115868000D01*
X194386000Y-121368000D02*
X195636000Y-121368000D01*
X195636000Y-121368000D02*
X195636000Y-120118000D01*
X207466000Y-86718000D02*
X207466000Y-87018000D01*
X206046000Y-86718000D02*
X206046000Y-87018000D01*
X202334000Y-105462000D02*
X202034000Y-105462000D01*
X202334000Y-106882000D02*
X202034000Y-106882000D01*
X186126000Y-90422000D02*
X186126000Y-88962000D01*
X189286000Y-90422000D02*
X189286000Y-88262000D01*
X189286000Y-90422000D02*
X188356000Y-90422000D01*
X186126000Y-90422000D02*
X187056000Y-90422000D01*
X178437000Y-108656000D02*
X179897000Y-108656000D01*
X178437000Y-111816000D02*
X180597000Y-111816000D01*
X178437000Y-111816000D02*
X178437000Y-110886000D01*
X178437000Y-108656000D02*
X178437000Y-109586000D01*
X179580000Y-96464000D02*
X179580000Y-97394000D01*
X179580000Y-99624000D02*
X179580000Y-98694000D01*
X179580000Y-99624000D02*
X181740000Y-99624000D01*
X179580000Y-96464000D02*
X181040000Y-96464000D01*
X202436000Y-88448000D02*
X202436000Y-87518000D01*
X202436000Y-85288000D02*
X202436000Y-86218000D01*
X202436000Y-85288000D02*
X200276000Y-85288000D01*
X202436000Y-88448000D02*
X200976000Y-88448000D01*
X187556000Y-85396000D02*
X187856000Y-85396000D01*
X187556000Y-86816000D02*
X187856000Y-86816000D01*
X206958000Y-105814000D02*
X206958000Y-105514000D01*
X205538000Y-105814000D02*
X205538000Y-105514000D01*
X203558000Y-96722000D02*
X203858000Y-96722000D01*
X203558000Y-95302000D02*
X203858000Y-95302000D01*
X196954000Y-91134000D02*
X197254000Y-91134000D01*
X196954000Y-89714000D02*
X197254000Y-89714000D01*
X190096000Y-94032000D02*
X190396000Y-94032000D01*
X190096000Y-95452000D02*
X190396000Y-95452000D01*
X182574000Y-83716000D02*
X182574000Y-83416000D01*
X181154000Y-83716000D02*
X181154000Y-83416000D01*
X225858000Y-67206000D02*
X225858000Y-66906000D01*
X227278000Y-67206000D02*
X227278000Y-66906000D01*
X191932208Y-90880000D02*
X192232208Y-90880000D01*
X191932208Y-89460000D02*
X192232208Y-89460000D01*
X183186000Y-98194000D02*
X183186000Y-97894000D01*
X184606000Y-98194000D02*
X184606000Y-97894000D01*
X209094000Y-101450000D02*
X209094000Y-101750000D01*
X210514000Y-101450000D02*
X210514000Y-101750000D01*
X184098000Y-114658000D02*
X184098000Y-114958000D01*
X182678000Y-114658000D02*
X182678000Y-114958000D01*
X160589450Y-78979198D02*
X160589450Y-80939198D01*
X160589450Y-97139198D02*
X160589450Y-95179198D01*
X159759450Y-80939198D02*
X159759450Y-95179198D01*
X161414450Y-80939198D02*
X159764450Y-80939198D01*
X161419450Y-95179198D02*
X161419450Y-80939198D01*
X159764450Y-95179198D02*
X161414450Y-95179198D01*
X167384450Y-95179198D02*
X169034450Y-95179198D01*
X169039450Y-95179198D02*
X169039450Y-80939198D01*
X169034450Y-80939198D02*
X167384450Y-80939198D01*
X167379450Y-80939198D02*
X167379450Y-95179198D01*
X168209450Y-97139198D02*
X168209450Y-95179198D01*
X168209450Y-78979198D02*
X168209450Y-80939198D01*
X188774000Y-112926000D02*
X188774000Y-112626000D01*
X190194000Y-112926000D02*
X190194000Y-112626000D01*
X172922000Y-105306000D02*
X172922000Y-105006000D01*
X171502000Y-105306000D02*
X171502000Y-105006000D01*
X219306000Y-85142000D02*
X219606000Y-85142000D01*
X219306000Y-86562000D02*
X219606000Y-86562000D01*
X216006000Y-61422000D02*
X216006000Y-62922000D01*
X216006000Y-62922000D02*
X216276000Y-62922000D01*
X216276000Y-62922000D02*
X216276000Y-65752000D01*
X222906000Y-61422000D02*
X222906000Y-62922000D01*
X222906000Y-62922000D02*
X222636000Y-62922000D01*
X222636000Y-62922000D02*
X222636000Y-64022000D01*
X207892000Y-93492000D02*
X212732000Y-93492000D01*
X207892000Y-98532000D02*
X212732000Y-98532000D01*
X207892000Y-93492000D02*
X207892000Y-94772000D01*
X207892000Y-97252000D02*
X207892000Y-98532000D01*
X212732000Y-93492000D02*
X212732000Y-93972000D01*
X212732000Y-95752000D02*
X212732000Y-96272000D01*
X212732000Y-98052000D02*
X212732000Y-98532000D01*
X207892000Y-93872000D02*
X207892000Y-93872000D01*
X207892000Y-93872000D02*
X207892000Y-94772000D01*
X207892000Y-93872000D02*
X207892000Y-94772000D01*
X200780000Y-89300000D02*
X200780000Y-90200000D01*
X200780000Y-89300000D02*
X200780000Y-90200000D01*
X200780000Y-89300000D02*
X200780000Y-89300000D01*
X205620000Y-93480000D02*
X205620000Y-93960000D01*
X205620000Y-91180000D02*
X205620000Y-91700000D01*
X205620000Y-88920000D02*
X205620000Y-89400000D01*
X200780000Y-92680000D02*
X200780000Y-93960000D01*
X200780000Y-88920000D02*
X200780000Y-90200000D01*
X200780000Y-93960000D02*
X205620000Y-93960000D01*
X200780000Y-88920000D02*
X205620000Y-88920000D01*
X169599450Y-109937198D02*
X169599450Y-108437198D01*
X169599450Y-108437198D02*
X167789450Y-108437198D01*
X167789450Y-108437198D02*
X167789450Y-103312198D01*
X159199450Y-109937198D02*
X159199450Y-108437198D01*
X159199450Y-108437198D02*
X161009450Y-108437198D01*
X161009450Y-108437198D02*
X161009450Y-107337198D01*
D12*
X160114450Y-63587198D02*
X167114450Y-70587198D01*
X161114450Y-62587198D02*
X168114450Y-69587198D01*
X169139388Y-66587198D02*
G75*
G03X169139388Y-66587198I-5024938J0D01*
G01*
X169450938Y-130134800D02*
G75*
G03X169450938Y-130134800I-5024938J0D01*
G01*
X161426000Y-126134800D02*
X168426000Y-133134800D01*
X160426000Y-127134800D02*
X167426000Y-134134800D01*
D11*
X203910000Y-130660000D02*
X203910000Y-130960000D01*
X202490000Y-130660000D02*
X202490000Y-130960000D01*
X219262000Y-69088000D02*
G75*
G03X219262000Y-69088000I-2620000J0D01*
G01*
X216642000Y-66508000D02*
X216642000Y-71668000D01*
X216682000Y-66508000D02*
X216682000Y-71668000D01*
X216722000Y-66509000D02*
X216722000Y-71667000D01*
X216762000Y-66510000D02*
X216762000Y-71666000D01*
X216802000Y-66512000D02*
X216802000Y-71664000D01*
X216842000Y-66515000D02*
X216842000Y-71661000D01*
X216882000Y-66519000D02*
X216882000Y-68048000D01*
X216882000Y-70128000D02*
X216882000Y-71657000D01*
X216922000Y-66523000D02*
X216922000Y-68048000D01*
X216922000Y-70128000D02*
X216922000Y-71653000D01*
X216962000Y-66527000D02*
X216962000Y-68048000D01*
X216962000Y-70128000D02*
X216962000Y-71649000D01*
X217002000Y-66532000D02*
X217002000Y-68048000D01*
X217002000Y-70128000D02*
X217002000Y-71644000D01*
X217042000Y-66538000D02*
X217042000Y-68048000D01*
X217042000Y-70128000D02*
X217042000Y-71638000D01*
X217082000Y-66545000D02*
X217082000Y-68048000D01*
X217082000Y-70128000D02*
X217082000Y-71631000D01*
X217122000Y-66552000D02*
X217122000Y-68048000D01*
X217122000Y-70128000D02*
X217122000Y-71624000D01*
X217162000Y-66560000D02*
X217162000Y-68048000D01*
X217162000Y-70128000D02*
X217162000Y-71616000D01*
X217202000Y-66568000D02*
X217202000Y-68048000D01*
X217202000Y-70128000D02*
X217202000Y-71608000D01*
X217242000Y-66577000D02*
X217242000Y-68048000D01*
X217242000Y-70128000D02*
X217242000Y-71599000D01*
X217282000Y-66587000D02*
X217282000Y-68048000D01*
X217282000Y-70128000D02*
X217282000Y-71589000D01*
X217322000Y-66597000D02*
X217322000Y-68048000D01*
X217322000Y-70128000D02*
X217322000Y-71579000D01*
X217363000Y-66608000D02*
X217363000Y-68048000D01*
X217363000Y-70128000D02*
X217363000Y-71568000D01*
X217403000Y-66620000D02*
X217403000Y-68048000D01*
X217403000Y-70128000D02*
X217403000Y-71556000D01*
X217443000Y-66633000D02*
X217443000Y-68048000D01*
X217443000Y-70128000D02*
X217443000Y-71543000D01*
X217483000Y-66646000D02*
X217483000Y-68048000D01*
X217483000Y-70128000D02*
X217483000Y-71530000D01*
X217523000Y-66660000D02*
X217523000Y-68048000D01*
X217523000Y-70128000D02*
X217523000Y-71516000D01*
X217563000Y-66674000D02*
X217563000Y-68048000D01*
X217563000Y-70128000D02*
X217563000Y-71502000D01*
X217603000Y-66690000D02*
X217603000Y-68048000D01*
X217603000Y-70128000D02*
X217603000Y-71486000D01*
X217643000Y-66706000D02*
X217643000Y-68048000D01*
X217643000Y-70128000D02*
X217643000Y-71470000D01*
X217683000Y-66723000D02*
X217683000Y-68048000D01*
X217683000Y-70128000D02*
X217683000Y-71453000D01*
X217723000Y-66740000D02*
X217723000Y-68048000D01*
X217723000Y-70128000D02*
X217723000Y-71436000D01*
X217763000Y-66759000D02*
X217763000Y-68048000D01*
X217763000Y-70128000D02*
X217763000Y-71417000D01*
X217803000Y-66778000D02*
X217803000Y-68048000D01*
X217803000Y-70128000D02*
X217803000Y-71398000D01*
X217843000Y-66798000D02*
X217843000Y-68048000D01*
X217843000Y-70128000D02*
X217843000Y-71378000D01*
X217883000Y-66820000D02*
X217883000Y-68048000D01*
X217883000Y-70128000D02*
X217883000Y-71356000D01*
X217923000Y-66841000D02*
X217923000Y-68048000D01*
X217923000Y-70128000D02*
X217923000Y-71335000D01*
X217963000Y-66864000D02*
X217963000Y-68048000D01*
X217963000Y-70128000D02*
X217963000Y-71312000D01*
X218003000Y-66888000D02*
X218003000Y-68048000D01*
X218003000Y-70128000D02*
X218003000Y-71288000D01*
X218043000Y-66913000D02*
X218043000Y-68048000D01*
X218043000Y-70128000D02*
X218043000Y-71263000D01*
X218083000Y-66939000D02*
X218083000Y-68048000D01*
X218083000Y-70128000D02*
X218083000Y-71237000D01*
X218123000Y-66966000D02*
X218123000Y-68048000D01*
X218123000Y-70128000D02*
X218123000Y-71210000D01*
X218163000Y-66993000D02*
X218163000Y-68048000D01*
X218163000Y-70128000D02*
X218163000Y-71183000D01*
X218203000Y-67023000D02*
X218203000Y-68048000D01*
X218203000Y-70128000D02*
X218203000Y-71153000D01*
X218243000Y-67053000D02*
X218243000Y-68048000D01*
X218243000Y-70128000D02*
X218243000Y-71123000D01*
X218283000Y-67084000D02*
X218283000Y-68048000D01*
X218283000Y-70128000D02*
X218283000Y-71092000D01*
X218323000Y-67117000D02*
X218323000Y-68048000D01*
X218323000Y-70128000D02*
X218323000Y-71059000D01*
X218363000Y-67151000D02*
X218363000Y-68048000D01*
X218363000Y-70128000D02*
X218363000Y-71025000D01*
X218403000Y-67187000D02*
X218403000Y-68048000D01*
X218403000Y-70128000D02*
X218403000Y-70989000D01*
X218443000Y-67224000D02*
X218443000Y-68048000D01*
X218443000Y-70128000D02*
X218443000Y-70952000D01*
X218483000Y-67262000D02*
X218483000Y-68048000D01*
X218483000Y-70128000D02*
X218483000Y-70914000D01*
X218523000Y-67303000D02*
X218523000Y-68048000D01*
X218523000Y-70128000D02*
X218523000Y-70873000D01*
X218563000Y-67345000D02*
X218563000Y-68048000D01*
X218563000Y-70128000D02*
X218563000Y-70831000D01*
X218603000Y-67389000D02*
X218603000Y-68048000D01*
X218603000Y-70128000D02*
X218603000Y-70787000D01*
X218643000Y-67435000D02*
X218643000Y-68048000D01*
X218643000Y-70128000D02*
X218643000Y-70741000D01*
X218683000Y-67483000D02*
X218683000Y-68048000D01*
X218683000Y-70128000D02*
X218683000Y-70693000D01*
X218723000Y-67534000D02*
X218723000Y-68048000D01*
X218723000Y-70128000D02*
X218723000Y-70642000D01*
X218763000Y-67588000D02*
X218763000Y-68048000D01*
X218763000Y-70128000D02*
X218763000Y-70588000D01*
X218803000Y-67645000D02*
X218803000Y-68048000D01*
X218803000Y-70128000D02*
X218803000Y-70531000D01*
X218843000Y-67705000D02*
X218843000Y-68048000D01*
X218843000Y-70128000D02*
X218843000Y-70471000D01*
X218883000Y-67769000D02*
X218883000Y-68048000D01*
X218883000Y-70128000D02*
X218883000Y-70407000D01*
X218923000Y-67837000D02*
X218923000Y-68048000D01*
X218923000Y-70128000D02*
X218923000Y-70339000D01*
X218963000Y-67910000D02*
X218963000Y-70266000D01*
X219003000Y-67990000D02*
X219003000Y-70186000D01*
X219043000Y-68077000D02*
X219043000Y-70099000D01*
X219083000Y-68173000D02*
X219083000Y-70003000D01*
X219123000Y-68283000D02*
X219123000Y-69893000D01*
X219163000Y-68411000D02*
X219163000Y-69765000D01*
X219203000Y-68570000D02*
X219203000Y-69606000D01*
X219243000Y-68804000D02*
X219243000Y-69372000D01*
X213837225Y-67613000D02*
X214337225Y-67613000D01*
X214087225Y-67363000D02*
X214087225Y-67863000D01*
X227252000Y-69602000D02*
X224552000Y-69602000D01*
X227252000Y-71622000D02*
X227252000Y-69602000D01*
X224552000Y-71622000D02*
X227252000Y-71622000D01*
X180356000Y-138805000D02*
X183056000Y-138805000D01*
X183056000Y-138805000D02*
X183056000Y-136785000D01*
X183056000Y-136785000D02*
X180356000Y-136785000D01*
X174758000Y-93742000D02*
X174758000Y-96442000D01*
X174758000Y-96442000D02*
X176778000Y-96442000D01*
X176778000Y-96442000D02*
X176778000Y-93742000D01*
X183890000Y-94980000D02*
X183890000Y-92280000D01*
X183890000Y-92280000D02*
X181870000Y-92280000D01*
X181870000Y-92280000D02*
X181870000Y-94980000D01*
X204646000Y-71380000D02*
X201946000Y-71380000D01*
X204646000Y-73400000D02*
X204646000Y-71380000D01*
X201946000Y-73400000D02*
X204646000Y-73400000D01*
X186938000Y-120064000D02*
X186938000Y-117364000D01*
X184918000Y-120064000D02*
X186938000Y-120064000D01*
X184918000Y-117364000D02*
X184918000Y-120064000D01*
X181616000Y-75708000D02*
X181616000Y-78408000D01*
X181616000Y-78408000D02*
X183636000Y-78408000D01*
X183636000Y-78408000D02*
X183636000Y-75708000D01*
X175058000Y-107338000D02*
X175058000Y-107038000D01*
X176478000Y-107338000D02*
X176478000Y-107038000D01*
X177188000Y-137085000D02*
X176888000Y-137085000D01*
X177188000Y-138505000D02*
X176888000Y-138505000D01*
X206860000Y-71680000D02*
X207160000Y-71680000D01*
X206860000Y-73100000D02*
X207160000Y-73100000D01*
X183238000Y-79808000D02*
X183538000Y-79808000D01*
X183238000Y-81228000D02*
X183538000Y-81228000D01*
X176634000Y-98500000D02*
X176934000Y-98500000D01*
X176634000Y-97080000D02*
X176934000Y-97080000D01*
X210332000Y-136024000D02*
X210332000Y-131184000D01*
X215372000Y-136024000D02*
X215372000Y-131184000D01*
X210332000Y-136024000D02*
X211612000Y-136024000D01*
X214092000Y-136024000D02*
X215372000Y-136024000D01*
X210332000Y-131184000D02*
X210812000Y-131184000D01*
X212592000Y-131184000D02*
X213112000Y-131184000D01*
X214892000Y-131184000D02*
X215372000Y-131184000D01*
X210712000Y-136024000D02*
X210712000Y-136024000D01*
X210712000Y-136024000D02*
X211612000Y-136024000D01*
X210712000Y-136024000D02*
X211612000Y-136024000D01*
X184440000Y-82312000D02*
X184440000Y-84312000D01*
X184440000Y-84312000D02*
X188340000Y-84312000D01*
X184440000Y-82312000D02*
X188340000Y-82312000D01*
D10*
X181078190Y-108045190D02*
X181554380Y-108045190D01*
X180554380Y-108378523D02*
X181078190Y-108045190D01*
X180554380Y-107711857D01*
X181554380Y-106854714D02*
X181554380Y-107426142D01*
X181554380Y-107140428D02*
X180554380Y-107140428D01*
X180697238Y-107235666D01*
X180792476Y-107330904D01*
X180840095Y-107426142D01*
X208684904Y-76334880D02*
X208684904Y-75334880D01*
X208923000Y-75334880D01*
X209065857Y-75382500D01*
X209161095Y-75477738D01*
X209208714Y-75572976D01*
X209256333Y-75763452D01*
X209256333Y-75906309D01*
X209208714Y-76096785D01*
X209161095Y-76192023D01*
X209065857Y-76287261D01*
X208923000Y-76334880D01*
X208684904Y-76334880D01*
X210113476Y-75668214D02*
X210113476Y-76334880D01*
X209875380Y-75287261D02*
X209637285Y-76001547D01*
X210256333Y-76001547D01*
X190317380Y-78462095D02*
X189317380Y-78462095D01*
X189317380Y-78224000D01*
X189365000Y-78081142D01*
X189460238Y-77985904D01*
X189555476Y-77938285D01*
X189745952Y-77890666D01*
X189888809Y-77890666D01*
X190079285Y-77938285D01*
X190174523Y-77985904D01*
X190269761Y-78081142D01*
X190317380Y-78224000D01*
X190317380Y-78462095D01*
X189317380Y-76985904D02*
X189317380Y-77462095D01*
X189793571Y-77509714D01*
X189745952Y-77462095D01*
X189698333Y-77366857D01*
X189698333Y-77128761D01*
X189745952Y-77033523D01*
X189793571Y-76985904D01*
X189888809Y-76938285D01*
X190126904Y-76938285D01*
X190222142Y-76985904D01*
X190269761Y-77033523D01*
X190317380Y-77128761D01*
X190317380Y-77366857D01*
X190269761Y-77462095D01*
X190222142Y-77509714D01*
X187968190Y-123007380D02*
X187968190Y-122007380D01*
X188206285Y-122007380D01*
X188349142Y-122055000D01*
X188444380Y-122150238D01*
X188492000Y-122245476D01*
X188539619Y-122435952D01*
X188539619Y-122578809D01*
X188492000Y-122769285D01*
X188444380Y-122864523D01*
X188349142Y-122959761D01*
X188206285Y-123007380D01*
X187968190Y-123007380D01*
X188730095Y-123102619D02*
X189492000Y-123102619D01*
X189634857Y-122007380D02*
X190253904Y-122007380D01*
X189920571Y-122388333D01*
X190063428Y-122388333D01*
X190158666Y-122435952D01*
X190206285Y-122483571D01*
X190253904Y-122578809D01*
X190253904Y-122816904D01*
X190206285Y-122912142D01*
X190158666Y-122959761D01*
X190063428Y-123007380D01*
X189777714Y-123007380D01*
X189682476Y-122959761D01*
X189634857Y-122912142D01*
X190539619Y-122007380D02*
X190872952Y-123007380D01*
X191206285Y-122007380D01*
X191444380Y-122007380D02*
X192063428Y-122007380D01*
X191730095Y-122388333D01*
X191872952Y-122388333D01*
X191968190Y-122435952D01*
X192015809Y-122483571D01*
X192063428Y-122578809D01*
X192063428Y-122816904D01*
X192015809Y-122912142D01*
X191968190Y-122959761D01*
X191872952Y-123007380D01*
X191587238Y-123007380D01*
X191492000Y-122959761D01*
X191444380Y-122912142D01*
X186682142Y-135866142D02*
X186634523Y-135913761D01*
X186491666Y-135961380D01*
X186396428Y-135961380D01*
X186253571Y-135913761D01*
X186158333Y-135818523D01*
X186110714Y-135723285D01*
X186063095Y-135532809D01*
X186063095Y-135389952D01*
X186110714Y-135199476D01*
X186158333Y-135104238D01*
X186253571Y-135009000D01*
X186396428Y-134961380D01*
X186491666Y-134961380D01*
X186634523Y-135009000D01*
X186682142Y-135056619D01*
X187015476Y-134961380D02*
X187634523Y-134961380D01*
X187301190Y-135342333D01*
X187444047Y-135342333D01*
X187539285Y-135389952D01*
X187586904Y-135437571D01*
X187634523Y-135532809D01*
X187634523Y-135770904D01*
X187586904Y-135866142D01*
X187539285Y-135913761D01*
X187444047Y-135961380D01*
X187158333Y-135961380D01*
X187063095Y-135913761D01*
X187015476Y-135866142D01*
X188491666Y-134961380D02*
X188301190Y-134961380D01*
X188205952Y-135009000D01*
X188158333Y-135056619D01*
X188063095Y-135199476D01*
X188015476Y-135389952D01*
X188015476Y-135770904D01*
X188063095Y-135866142D01*
X188110714Y-135913761D01*
X188205952Y-135961380D01*
X188396428Y-135961380D01*
X188491666Y-135913761D01*
X188539285Y-135866142D01*
X188586904Y-135770904D01*
X188586904Y-135532809D01*
X188539285Y-135437571D01*
X188491666Y-135389952D01*
X188396428Y-135342333D01*
X188205952Y-135342333D01*
X188110714Y-135389952D01*
X188063095Y-135437571D01*
X188015476Y-135532809D01*
X223512142Y-90781142D02*
X223464523Y-90828761D01*
X223321666Y-90876380D01*
X223226428Y-90876380D01*
X223083571Y-90828761D01*
X222988333Y-90733523D01*
X222940714Y-90638285D01*
X222893095Y-90447809D01*
X222893095Y-90304952D01*
X222940714Y-90114476D01*
X222988333Y-90019238D01*
X223083571Y-89924000D01*
X223226428Y-89876380D01*
X223321666Y-89876380D01*
X223464523Y-89924000D01*
X223512142Y-89971619D01*
X223893095Y-89971619D02*
X223940714Y-89924000D01*
X224035952Y-89876380D01*
X224274047Y-89876380D01*
X224369285Y-89924000D01*
X224416904Y-89971619D01*
X224464523Y-90066857D01*
X224464523Y-90162095D01*
X224416904Y-90304952D01*
X223845476Y-90876380D01*
X224464523Y-90876380D01*
X224940714Y-90876380D02*
X225131190Y-90876380D01*
X225226428Y-90828761D01*
X225274047Y-90781142D01*
X225369285Y-90638285D01*
X225416904Y-90447809D01*
X225416904Y-90066857D01*
X225369285Y-89971619D01*
X225321666Y-89924000D01*
X225226428Y-89876380D01*
X225035952Y-89876380D01*
X224940714Y-89924000D01*
X224893095Y-89971619D01*
X224845476Y-90066857D01*
X224845476Y-90304952D01*
X224893095Y-90400190D01*
X224940714Y-90447809D01*
X225035952Y-90495428D01*
X225226428Y-90495428D01*
X225321666Y-90447809D01*
X225369285Y-90400190D01*
X225416904Y-90304952D01*
X213733142Y-88495142D02*
X213685523Y-88542761D01*
X213542666Y-88590380D01*
X213447428Y-88590380D01*
X213304571Y-88542761D01*
X213209333Y-88447523D01*
X213161714Y-88352285D01*
X213114095Y-88161809D01*
X213114095Y-88018952D01*
X213161714Y-87828476D01*
X213209333Y-87733238D01*
X213304571Y-87638000D01*
X213447428Y-87590380D01*
X213542666Y-87590380D01*
X213685523Y-87638000D01*
X213733142Y-87685619D01*
X214066476Y-87590380D02*
X214685523Y-87590380D01*
X214352190Y-87971333D01*
X214495047Y-87971333D01*
X214590285Y-88018952D01*
X214637904Y-88066571D01*
X214685523Y-88161809D01*
X214685523Y-88399904D01*
X214637904Y-88495142D01*
X214590285Y-88542761D01*
X214495047Y-88590380D01*
X214209333Y-88590380D01*
X214114095Y-88542761D01*
X214066476Y-88495142D01*
X215304571Y-87590380D02*
X215399809Y-87590380D01*
X215495047Y-87638000D01*
X215542666Y-87685619D01*
X215590285Y-87780857D01*
X215637904Y-87971333D01*
X215637904Y-88209428D01*
X215590285Y-88399904D01*
X215542666Y-88495142D01*
X215495047Y-88542761D01*
X215399809Y-88590380D01*
X215304571Y-88590380D01*
X215209333Y-88542761D01*
X215161714Y-88495142D01*
X215114095Y-88399904D01*
X215066476Y-88209428D01*
X215066476Y-87971333D01*
X215114095Y-87780857D01*
X215161714Y-87685619D01*
X215209333Y-87638000D01*
X215304571Y-87590380D01*
X183126142Y-89257142D02*
X183078523Y-89304761D01*
X182935666Y-89352380D01*
X182840428Y-89352380D01*
X182697571Y-89304761D01*
X182602333Y-89209523D01*
X182554714Y-89114285D01*
X182507095Y-88923809D01*
X182507095Y-88780952D01*
X182554714Y-88590476D01*
X182602333Y-88495238D01*
X182697571Y-88400000D01*
X182840428Y-88352380D01*
X182935666Y-88352380D01*
X183078523Y-88400000D01*
X183126142Y-88447619D01*
X183459476Y-88352380D02*
X184078523Y-88352380D01*
X183745190Y-88733333D01*
X183888047Y-88733333D01*
X183983285Y-88780952D01*
X184030904Y-88828571D01*
X184078523Y-88923809D01*
X184078523Y-89161904D01*
X184030904Y-89257142D01*
X183983285Y-89304761D01*
X183888047Y-89352380D01*
X183602333Y-89352380D01*
X183507095Y-89304761D01*
X183459476Y-89257142D01*
X184411857Y-88352380D02*
X185030904Y-88352380D01*
X184697571Y-88733333D01*
X184840428Y-88733333D01*
X184935666Y-88780952D01*
X184983285Y-88828571D01*
X185030904Y-88923809D01*
X185030904Y-89161904D01*
X184983285Y-89257142D01*
X184935666Y-89304761D01*
X184840428Y-89352380D01*
X184554714Y-89352380D01*
X184459476Y-89304761D01*
X184411857Y-89257142D01*
X205605142Y-98147142D02*
X205557523Y-98194761D01*
X205414666Y-98242380D01*
X205319428Y-98242380D01*
X205176571Y-98194761D01*
X205081333Y-98099523D01*
X205033714Y-98004285D01*
X204986095Y-97813809D01*
X204986095Y-97670952D01*
X205033714Y-97480476D01*
X205081333Y-97385238D01*
X205176571Y-97290000D01*
X205319428Y-97242380D01*
X205414666Y-97242380D01*
X205557523Y-97290000D01*
X205605142Y-97337619D01*
X205938476Y-97242380D02*
X206557523Y-97242380D01*
X206224190Y-97623333D01*
X206367047Y-97623333D01*
X206462285Y-97670952D01*
X206509904Y-97718571D01*
X206557523Y-97813809D01*
X206557523Y-98051904D01*
X206509904Y-98147142D01*
X206462285Y-98194761D01*
X206367047Y-98242380D01*
X206081333Y-98242380D01*
X205986095Y-98194761D01*
X205938476Y-98147142D01*
X207414666Y-97575714D02*
X207414666Y-98242380D01*
X207176571Y-97194761D02*
X206938476Y-97909047D01*
X207557523Y-97909047D01*
X182205333Y-135834380D02*
X181729142Y-135834380D01*
X181729142Y-134834380D01*
X182967238Y-134834380D02*
X182776761Y-134834380D01*
X182681523Y-134882000D01*
X182633904Y-134929619D01*
X182538666Y-135072476D01*
X182491047Y-135262952D01*
X182491047Y-135643904D01*
X182538666Y-135739142D01*
X182586285Y-135786761D01*
X182681523Y-135834380D01*
X182872000Y-135834380D01*
X182967238Y-135786761D01*
X183014857Y-135739142D01*
X183062476Y-135643904D01*
X183062476Y-135405809D01*
X183014857Y-135310571D01*
X182967238Y-135262952D01*
X182872000Y-135215333D01*
X182681523Y-135215333D01*
X182586285Y-135262952D01*
X182538666Y-135310571D01*
X182491047Y-135405809D01*
X204319142Y-101480857D02*
X204366761Y-101528476D01*
X204414380Y-101671333D01*
X204414380Y-101766571D01*
X204366761Y-101909428D01*
X204271523Y-102004666D01*
X204176285Y-102052285D01*
X203985809Y-102099904D01*
X203842952Y-102099904D01*
X203652476Y-102052285D01*
X203557238Y-102004666D01*
X203462000Y-101909428D01*
X203414380Y-101766571D01*
X203414380Y-101671333D01*
X203462000Y-101528476D01*
X203509619Y-101480857D01*
X203509619Y-101099904D02*
X203462000Y-101052285D01*
X203414380Y-100957047D01*
X203414380Y-100718952D01*
X203462000Y-100623714D01*
X203509619Y-100576095D01*
X203604857Y-100528476D01*
X203700095Y-100528476D01*
X203842952Y-100576095D01*
X204414380Y-101147523D01*
X204414380Y-100528476D01*
X203414380Y-100195142D02*
X203414380Y-99528476D01*
X204414380Y-99957047D01*
X199461380Y-125356857D02*
X198985190Y-125690190D01*
X199461380Y-125928285D02*
X198461380Y-125928285D01*
X198461380Y-125547333D01*
X198509000Y-125452095D01*
X198556619Y-125404476D01*
X198651857Y-125356857D01*
X198794714Y-125356857D01*
X198889952Y-125404476D01*
X198937571Y-125452095D01*
X198985190Y-125547333D01*
X198985190Y-125928285D01*
X198461380Y-125023523D02*
X198461380Y-124404476D01*
X198842333Y-124737809D01*
X198842333Y-124594952D01*
X198889952Y-124499714D01*
X198937571Y-124452095D01*
X199032809Y-124404476D01*
X199270904Y-124404476D01*
X199366142Y-124452095D01*
X199413761Y-124499714D01*
X199461380Y-124594952D01*
X199461380Y-124880666D01*
X199413761Y-124975904D01*
X199366142Y-125023523D01*
X198461380Y-123547333D02*
X198461380Y-123737809D01*
X198509000Y-123833047D01*
X198556619Y-123880666D01*
X198699476Y-123975904D01*
X198889952Y-124023523D01*
X199270904Y-124023523D01*
X199366142Y-123975904D01*
X199413761Y-123928285D01*
X199461380Y-123833047D01*
X199461380Y-123642571D01*
X199413761Y-123547333D01*
X199366142Y-123499714D01*
X199270904Y-123452095D01*
X199032809Y-123452095D01*
X198937571Y-123499714D01*
X198889952Y-123547333D01*
X198842333Y-123642571D01*
X198842333Y-123833047D01*
X198889952Y-123928285D01*
X198937571Y-123975904D01*
X199032809Y-124023523D01*
X186809142Y-124944142D02*
X186761523Y-124991761D01*
X186618666Y-125039380D01*
X186523428Y-125039380D01*
X186380571Y-124991761D01*
X186285333Y-124896523D01*
X186237714Y-124801285D01*
X186190095Y-124610809D01*
X186190095Y-124467952D01*
X186237714Y-124277476D01*
X186285333Y-124182238D01*
X186380571Y-124087000D01*
X186523428Y-124039380D01*
X186618666Y-124039380D01*
X186761523Y-124087000D01*
X186809142Y-124134619D01*
X187142476Y-124039380D02*
X187761523Y-124039380D01*
X187428190Y-124420333D01*
X187571047Y-124420333D01*
X187666285Y-124467952D01*
X187713904Y-124515571D01*
X187761523Y-124610809D01*
X187761523Y-124848904D01*
X187713904Y-124944142D01*
X187666285Y-124991761D01*
X187571047Y-125039380D01*
X187285333Y-125039380D01*
X187190095Y-124991761D01*
X187142476Y-124944142D01*
X188094857Y-124039380D02*
X188761523Y-124039380D01*
X188332952Y-125039380D01*
X196969142Y-120626142D02*
X196921523Y-120673761D01*
X196778666Y-120721380D01*
X196683428Y-120721380D01*
X196540571Y-120673761D01*
X196445333Y-120578523D01*
X196397714Y-120483285D01*
X196350095Y-120292809D01*
X196350095Y-120149952D01*
X196397714Y-119959476D01*
X196445333Y-119864238D01*
X196540571Y-119769000D01*
X196683428Y-119721380D01*
X196778666Y-119721380D01*
X196921523Y-119769000D01*
X196969142Y-119816619D01*
X197302476Y-119721380D02*
X197921523Y-119721380D01*
X197588190Y-120102333D01*
X197731047Y-120102333D01*
X197826285Y-120149952D01*
X197873904Y-120197571D01*
X197921523Y-120292809D01*
X197921523Y-120530904D01*
X197873904Y-120626142D01*
X197826285Y-120673761D01*
X197731047Y-120721380D01*
X197445333Y-120721380D01*
X197350095Y-120673761D01*
X197302476Y-120626142D01*
X198826285Y-119721380D02*
X198350095Y-119721380D01*
X198302476Y-120197571D01*
X198350095Y-120149952D01*
X198445333Y-120102333D01*
X198683428Y-120102333D01*
X198778666Y-120149952D01*
X198826285Y-120197571D01*
X198873904Y-120292809D01*
X198873904Y-120530904D01*
X198826285Y-120626142D01*
X198778666Y-120673761D01*
X198683428Y-120721380D01*
X198445333Y-120721380D01*
X198350095Y-120673761D01*
X198302476Y-120626142D01*
X205192380Y-125221904D02*
X206001904Y-125221904D01*
X206097142Y-125174285D01*
X206144761Y-125126666D01*
X206192380Y-125031428D01*
X206192380Y-124840952D01*
X206144761Y-124745714D01*
X206097142Y-124698095D01*
X206001904Y-124650476D01*
X205192380Y-124650476D01*
X205192380Y-123698095D02*
X205192380Y-124174285D01*
X205668571Y-124221904D01*
X205620952Y-124174285D01*
X205573333Y-124079047D01*
X205573333Y-123840952D01*
X205620952Y-123745714D01*
X205668571Y-123698095D01*
X205763809Y-123650476D01*
X206001904Y-123650476D01*
X206097142Y-123698095D01*
X206144761Y-123745714D01*
X206192380Y-123840952D01*
X206192380Y-124079047D01*
X206144761Y-124174285D01*
X206097142Y-124221904D01*
X185078761Y-128976380D02*
X184745428Y-128500190D01*
X184507333Y-128976380D02*
X184507333Y-127976380D01*
X184888285Y-127976380D01*
X184983523Y-128024000D01*
X185031142Y-128071619D01*
X185078761Y-128166857D01*
X185078761Y-128309714D01*
X185031142Y-128404952D01*
X184983523Y-128452571D01*
X184888285Y-128500190D01*
X184507333Y-128500190D01*
X185364476Y-127976380D02*
X185697809Y-128976380D01*
X186031142Y-127976380D01*
X186793047Y-128309714D02*
X186793047Y-128976380D01*
X186554952Y-127928761D02*
X186316857Y-128643047D01*
X186935904Y-128643047D01*
X200858380Y-136786857D02*
X200382190Y-137120190D01*
X200858380Y-137358285D02*
X199858380Y-137358285D01*
X199858380Y-136977333D01*
X199906000Y-136882095D01*
X199953619Y-136834476D01*
X200048857Y-136786857D01*
X200191714Y-136786857D01*
X200286952Y-136834476D01*
X200334571Y-136882095D01*
X200382190Y-136977333D01*
X200382190Y-137358285D01*
X199858380Y-136453523D02*
X199858380Y-135834476D01*
X200239333Y-136167809D01*
X200239333Y-136024952D01*
X200286952Y-135929714D01*
X200334571Y-135882095D01*
X200429809Y-135834476D01*
X200667904Y-135834476D01*
X200763142Y-135882095D01*
X200810761Y-135929714D01*
X200858380Y-136024952D01*
X200858380Y-136310666D01*
X200810761Y-136405904D01*
X200763142Y-136453523D01*
X199953619Y-135453523D02*
X199906000Y-135405904D01*
X199858380Y-135310666D01*
X199858380Y-135072571D01*
X199906000Y-134977333D01*
X199953619Y-134929714D01*
X200048857Y-134882095D01*
X200144095Y-134882095D01*
X200286952Y-134929714D01*
X200858380Y-135501142D01*
X200858380Y-134882095D01*
X199128142Y-130246380D02*
X198794809Y-129770190D01*
X198556714Y-130246380D02*
X198556714Y-129246380D01*
X198937666Y-129246380D01*
X199032904Y-129294000D01*
X199080523Y-129341619D01*
X199128142Y-129436857D01*
X199128142Y-129579714D01*
X199080523Y-129674952D01*
X199032904Y-129722571D01*
X198937666Y-129770190D01*
X198556714Y-129770190D01*
X199461476Y-129246380D02*
X200080523Y-129246380D01*
X199747190Y-129627333D01*
X199890047Y-129627333D01*
X199985285Y-129674952D01*
X200032904Y-129722571D01*
X200080523Y-129817809D01*
X200080523Y-130055904D01*
X200032904Y-130151142D01*
X199985285Y-130198761D01*
X199890047Y-130246380D01*
X199604333Y-130246380D01*
X199509095Y-130198761D01*
X199461476Y-130151142D01*
X200937666Y-129579714D02*
X200937666Y-130246380D01*
X200699571Y-129198761D02*
X200461476Y-129913047D01*
X201080523Y-129913047D01*
X195953142Y-134691380D02*
X195619809Y-134215190D01*
X195381714Y-134691380D02*
X195381714Y-133691380D01*
X195762666Y-133691380D01*
X195857904Y-133739000D01*
X195905523Y-133786619D01*
X195953142Y-133881857D01*
X195953142Y-134024714D01*
X195905523Y-134119952D01*
X195857904Y-134167571D01*
X195762666Y-134215190D01*
X195381714Y-134215190D01*
X196286476Y-133691380D02*
X196905523Y-133691380D01*
X196572190Y-134072333D01*
X196715047Y-134072333D01*
X196810285Y-134119952D01*
X196857904Y-134167571D01*
X196905523Y-134262809D01*
X196905523Y-134500904D01*
X196857904Y-134596142D01*
X196810285Y-134643761D01*
X196715047Y-134691380D01*
X196429333Y-134691380D01*
X196334095Y-134643761D01*
X196286476Y-134596142D01*
X197810285Y-133691380D02*
X197334095Y-133691380D01*
X197286476Y-134167571D01*
X197334095Y-134119952D01*
X197429333Y-134072333D01*
X197667428Y-134072333D01*
X197762666Y-134119952D01*
X197810285Y-134167571D01*
X197857904Y-134262809D01*
X197857904Y-134500904D01*
X197810285Y-134596142D01*
X197762666Y-134643761D01*
X197667428Y-134691380D01*
X197429333Y-134691380D01*
X197334095Y-134643761D01*
X197286476Y-134596142D01*
X194889380Y-128023857D02*
X194413190Y-128357190D01*
X194889380Y-128595285D02*
X193889380Y-128595285D01*
X193889380Y-128214333D01*
X193937000Y-128119095D01*
X193984619Y-128071476D01*
X194079857Y-128023857D01*
X194222714Y-128023857D01*
X194317952Y-128071476D01*
X194365571Y-128119095D01*
X194413190Y-128214333D01*
X194413190Y-128595285D01*
X193889380Y-127690523D02*
X193889380Y-127071476D01*
X194270333Y-127404809D01*
X194270333Y-127261952D01*
X194317952Y-127166714D01*
X194365571Y-127119095D01*
X194460809Y-127071476D01*
X194698904Y-127071476D01*
X194794142Y-127119095D01*
X194841761Y-127166714D01*
X194889380Y-127261952D01*
X194889380Y-127547666D01*
X194841761Y-127642904D01*
X194794142Y-127690523D01*
X193889380Y-126738142D02*
X193889380Y-126119095D01*
X194270333Y-126452428D01*
X194270333Y-126309571D01*
X194317952Y-126214333D01*
X194365571Y-126166714D01*
X194460809Y-126119095D01*
X194698904Y-126119095D01*
X194794142Y-126166714D01*
X194841761Y-126214333D01*
X194889380Y-126309571D01*
X194889380Y-126595285D01*
X194841761Y-126690523D01*
X194794142Y-126738142D01*
X186011142Y-54530857D02*
X186058761Y-54578476D01*
X186106380Y-54721333D01*
X186106380Y-54816571D01*
X186058761Y-54959428D01*
X185963523Y-55054666D01*
X185868285Y-55102285D01*
X185677809Y-55149904D01*
X185534952Y-55149904D01*
X185344476Y-55102285D01*
X185249238Y-55054666D01*
X185154000Y-54959428D01*
X185106380Y-54816571D01*
X185106380Y-54721333D01*
X185154000Y-54578476D01*
X185201619Y-54530857D01*
X185201619Y-54149904D02*
X185154000Y-54102285D01*
X185106380Y-54007047D01*
X185106380Y-53768952D01*
X185154000Y-53673714D01*
X185201619Y-53626095D01*
X185296857Y-53578476D01*
X185392095Y-53578476D01*
X185534952Y-53626095D01*
X186106380Y-54197523D01*
X186106380Y-53578476D01*
X186106380Y-52626095D02*
X186106380Y-53197523D01*
X186106380Y-52911809D02*
X185106380Y-52911809D01*
X185249238Y-53007047D01*
X185344476Y-53102285D01*
X185392095Y-53197523D01*
X193373142Y-66377142D02*
X193325523Y-66424761D01*
X193182666Y-66472380D01*
X193087428Y-66472380D01*
X192944571Y-66424761D01*
X192849333Y-66329523D01*
X192801714Y-66234285D01*
X192754095Y-66043809D01*
X192754095Y-65900952D01*
X192801714Y-65710476D01*
X192849333Y-65615238D01*
X192944571Y-65520000D01*
X193087428Y-65472380D01*
X193182666Y-65472380D01*
X193325523Y-65520000D01*
X193373142Y-65567619D01*
X193754095Y-65567619D02*
X193801714Y-65520000D01*
X193896952Y-65472380D01*
X194135047Y-65472380D01*
X194230285Y-65520000D01*
X194277904Y-65567619D01*
X194325523Y-65662857D01*
X194325523Y-65758095D01*
X194277904Y-65900952D01*
X193706476Y-66472380D01*
X194325523Y-66472380D01*
X195182666Y-65472380D02*
X194992190Y-65472380D01*
X194896952Y-65520000D01*
X194849333Y-65567619D01*
X194754095Y-65710476D01*
X194706476Y-65900952D01*
X194706476Y-66281904D01*
X194754095Y-66377142D01*
X194801714Y-66424761D01*
X194896952Y-66472380D01*
X195087428Y-66472380D01*
X195182666Y-66424761D01*
X195230285Y-66377142D01*
X195277904Y-66281904D01*
X195277904Y-66043809D01*
X195230285Y-65948571D01*
X195182666Y-65900952D01*
X195087428Y-65853333D01*
X194896952Y-65853333D01*
X194801714Y-65900952D01*
X194754095Y-65948571D01*
X194706476Y-66043809D01*
X194460380Y-63730095D02*
X193460380Y-63730095D01*
X193460380Y-63492000D01*
X193508000Y-63349142D01*
X193603238Y-63253904D01*
X193698476Y-63206285D01*
X193888952Y-63158666D01*
X194031809Y-63158666D01*
X194222285Y-63206285D01*
X194317523Y-63253904D01*
X194412761Y-63349142D01*
X194460380Y-63492000D01*
X194460380Y-63730095D01*
X193460380Y-62301523D02*
X193460380Y-62492000D01*
X193508000Y-62587238D01*
X193555619Y-62634857D01*
X193698476Y-62730095D01*
X193888952Y-62777714D01*
X194269904Y-62777714D01*
X194365142Y-62730095D01*
X194412761Y-62682476D01*
X194460380Y-62587238D01*
X194460380Y-62396761D01*
X194412761Y-62301523D01*
X194365142Y-62253904D01*
X194269904Y-62206285D01*
X194031809Y-62206285D01*
X193936571Y-62253904D01*
X193888952Y-62301523D01*
X193841333Y-62396761D01*
X193841333Y-62587238D01*
X193888952Y-62682476D01*
X193936571Y-62730095D01*
X194031809Y-62777714D01*
X181570333Y-59888380D02*
X181094142Y-59888380D01*
X181094142Y-58888380D01*
X182332238Y-59221714D02*
X182332238Y-59888380D01*
X182094142Y-58840761D02*
X181856047Y-59555047D01*
X182475095Y-59555047D01*
X190277761Y-86145619D02*
X190182523Y-86098000D01*
X190087285Y-86002761D01*
X189944428Y-85859904D01*
X189849190Y-85812285D01*
X189753952Y-85812285D01*
X189801571Y-86050380D02*
X189706333Y-86002761D01*
X189611095Y-85907523D01*
X189563476Y-85717047D01*
X189563476Y-85383714D01*
X189611095Y-85193238D01*
X189706333Y-85098000D01*
X189801571Y-85050380D01*
X189992047Y-85050380D01*
X190087285Y-85098000D01*
X190182523Y-85193238D01*
X190230142Y-85383714D01*
X190230142Y-85717047D01*
X190182523Y-85907523D01*
X190087285Y-86002761D01*
X189992047Y-86050380D01*
X189801571Y-86050380D01*
X190563476Y-85050380D02*
X191182523Y-85050380D01*
X190849190Y-85431333D01*
X190992047Y-85431333D01*
X191087285Y-85478952D01*
X191134904Y-85526571D01*
X191182523Y-85621809D01*
X191182523Y-85859904D01*
X191134904Y-85955142D01*
X191087285Y-86002761D01*
X190992047Y-86050380D01*
X190706333Y-86050380D01*
X190611095Y-86002761D01*
X190563476Y-85955142D01*
X185793142Y-93598380D02*
X185459809Y-93122190D01*
X185221714Y-93598380D02*
X185221714Y-92598380D01*
X185602666Y-92598380D01*
X185697904Y-92646000D01*
X185745523Y-92693619D01*
X185793142Y-92788857D01*
X185793142Y-92931714D01*
X185745523Y-93026952D01*
X185697904Y-93074571D01*
X185602666Y-93122190D01*
X185221714Y-93122190D01*
X186174095Y-92693619D02*
X186221714Y-92646000D01*
X186316952Y-92598380D01*
X186555047Y-92598380D01*
X186650285Y-92646000D01*
X186697904Y-92693619D01*
X186745523Y-92788857D01*
X186745523Y-92884095D01*
X186697904Y-93026952D01*
X186126476Y-93598380D01*
X186745523Y-93598380D01*
X187602666Y-92598380D02*
X187412190Y-92598380D01*
X187316952Y-92646000D01*
X187269333Y-92693619D01*
X187174095Y-92836476D01*
X187126476Y-93026952D01*
X187126476Y-93407904D01*
X187174095Y-93503142D01*
X187221714Y-93550761D01*
X187316952Y-93598380D01*
X187507428Y-93598380D01*
X187602666Y-93550761D01*
X187650285Y-93503142D01*
X187697904Y-93407904D01*
X187697904Y-93169809D01*
X187650285Y-93074571D01*
X187602666Y-93026952D01*
X187507428Y-92979333D01*
X187316952Y-92979333D01*
X187221714Y-93026952D01*
X187174095Y-93074571D01*
X187126476Y-93169809D01*
X218384380Y-91098666D02*
X218384380Y-91574857D01*
X217384380Y-91574857D01*
X218384380Y-90241523D02*
X218384380Y-90812952D01*
X218384380Y-90527238D02*
X217384380Y-90527238D01*
X217527238Y-90622476D01*
X217622476Y-90717714D01*
X217670095Y-90812952D01*
X196794380Y-88145857D02*
X196318190Y-88479190D01*
X196794380Y-88717285D02*
X195794380Y-88717285D01*
X195794380Y-88336333D01*
X195842000Y-88241095D01*
X195889619Y-88193476D01*
X195984857Y-88145857D01*
X196127714Y-88145857D01*
X196222952Y-88193476D01*
X196270571Y-88241095D01*
X196318190Y-88336333D01*
X196318190Y-88717285D01*
X196794380Y-87193476D02*
X196794380Y-87764904D01*
X196794380Y-87479190D02*
X195794380Y-87479190D01*
X195937238Y-87574428D01*
X196032476Y-87669666D01*
X196080095Y-87764904D01*
X195794380Y-86574428D02*
X195794380Y-86479190D01*
X195842000Y-86383952D01*
X195889619Y-86336333D01*
X195984857Y-86288714D01*
X196175333Y-86241095D01*
X196413428Y-86241095D01*
X196603904Y-86288714D01*
X196699142Y-86336333D01*
X196746761Y-86383952D01*
X196794380Y-86479190D01*
X196794380Y-86574428D01*
X196746761Y-86669666D01*
X196699142Y-86717285D01*
X196603904Y-86764904D01*
X196413428Y-86812523D01*
X196175333Y-86812523D01*
X195984857Y-86764904D01*
X195889619Y-86717285D01*
X195842000Y-86669666D01*
X195794380Y-86574428D01*
X192913095Y-94956380D02*
X192913095Y-95765904D01*
X192960714Y-95861142D01*
X193008333Y-95908761D01*
X193103571Y-95956380D01*
X193294047Y-95956380D01*
X193389285Y-95908761D01*
X193436904Y-95861142D01*
X193484523Y-95765904D01*
X193484523Y-94956380D01*
X194484523Y-95956380D02*
X193913095Y-95956380D01*
X194198809Y-95956380D02*
X194198809Y-94956380D01*
X194103571Y-95099238D01*
X194008333Y-95194476D01*
X193913095Y-95242095D01*
X207391095Y-54062380D02*
X207391095Y-54871904D01*
X207438714Y-54967142D01*
X207486333Y-55014761D01*
X207581571Y-55062380D01*
X207772047Y-55062380D01*
X207867285Y-55014761D01*
X207914904Y-54967142D01*
X207962523Y-54871904D01*
X207962523Y-54062380D01*
X208343476Y-54062380D02*
X208962523Y-54062380D01*
X208629190Y-54443333D01*
X208772047Y-54443333D01*
X208867285Y-54490952D01*
X208914904Y-54538571D01*
X208962523Y-54633809D01*
X208962523Y-54871904D01*
X208914904Y-54967142D01*
X208867285Y-55014761D01*
X208772047Y-55062380D01*
X208486333Y-55062380D01*
X208391095Y-55014761D01*
X208343476Y-54967142D01*
X207478333Y-101671380D02*
X207145000Y-101195190D01*
X206906904Y-101671380D02*
X206906904Y-100671380D01*
X207287857Y-100671380D01*
X207383095Y-100719000D01*
X207430714Y-100766619D01*
X207478333Y-100861857D01*
X207478333Y-101004714D01*
X207430714Y-101099952D01*
X207383095Y-101147571D01*
X207287857Y-101195190D01*
X206906904Y-101195190D01*
X207811666Y-100671380D02*
X208430714Y-100671380D01*
X208097380Y-101052333D01*
X208240238Y-101052333D01*
X208335476Y-101099952D01*
X208383095Y-101147571D01*
X208430714Y-101242809D01*
X208430714Y-101480904D01*
X208383095Y-101576142D01*
X208335476Y-101623761D01*
X208240238Y-101671380D01*
X207954523Y-101671380D01*
X207859285Y-101623761D01*
X207811666Y-101576142D01*
X228036380Y-91066857D02*
X227560190Y-91400190D01*
X228036380Y-91638285D02*
X227036380Y-91638285D01*
X227036380Y-91257333D01*
X227084000Y-91162095D01*
X227131619Y-91114476D01*
X227226857Y-91066857D01*
X227369714Y-91066857D01*
X227464952Y-91114476D01*
X227512571Y-91162095D01*
X227560190Y-91257333D01*
X227560190Y-91638285D01*
X227131619Y-90685904D02*
X227084000Y-90638285D01*
X227036380Y-90543047D01*
X227036380Y-90304952D01*
X227084000Y-90209714D01*
X227131619Y-90162095D01*
X227226857Y-90114476D01*
X227322095Y-90114476D01*
X227464952Y-90162095D01*
X228036380Y-90733523D01*
X228036380Y-90114476D01*
X227036380Y-89781142D02*
X227036380Y-89162095D01*
X227417333Y-89495428D01*
X227417333Y-89352571D01*
X227464952Y-89257333D01*
X227512571Y-89209714D01*
X227607809Y-89162095D01*
X227845904Y-89162095D01*
X227941142Y-89209714D01*
X227988761Y-89257333D01*
X228036380Y-89352571D01*
X228036380Y-89638285D01*
X227988761Y-89733523D01*
X227941142Y-89781142D01*
X185761333Y-91511380D02*
X185428000Y-91035190D01*
X185189904Y-91511380D02*
X185189904Y-90511380D01*
X185570857Y-90511380D01*
X185666095Y-90559000D01*
X185713714Y-90606619D01*
X185761333Y-90701857D01*
X185761333Y-90844714D01*
X185713714Y-90939952D01*
X185666095Y-90987571D01*
X185570857Y-91035190D01*
X185189904Y-91035190D01*
X186332761Y-90939952D02*
X186237523Y-90892333D01*
X186189904Y-90844714D01*
X186142285Y-90749476D01*
X186142285Y-90701857D01*
X186189904Y-90606619D01*
X186237523Y-90559000D01*
X186332761Y-90511380D01*
X186523238Y-90511380D01*
X186618476Y-90559000D01*
X186666095Y-90606619D01*
X186713714Y-90701857D01*
X186713714Y-90749476D01*
X186666095Y-90844714D01*
X186618476Y-90892333D01*
X186523238Y-90939952D01*
X186332761Y-90939952D01*
X186237523Y-90987571D01*
X186189904Y-91035190D01*
X186142285Y-91130428D01*
X186142285Y-91320904D01*
X186189904Y-91416142D01*
X186237523Y-91463761D01*
X186332761Y-91511380D01*
X186523238Y-91511380D01*
X186618476Y-91463761D01*
X186666095Y-91416142D01*
X186713714Y-91320904D01*
X186713714Y-91130428D01*
X186666095Y-91035190D01*
X186618476Y-90987571D01*
X186523238Y-90939952D01*
X208557904Y-108656380D02*
X208557904Y-107656380D01*
X208796000Y-107656380D01*
X208938857Y-107704000D01*
X209034095Y-107799238D01*
X209081714Y-107894476D01*
X209129333Y-108084952D01*
X209129333Y-108227809D01*
X209081714Y-108418285D01*
X209034095Y-108513523D01*
X208938857Y-108608761D01*
X208796000Y-108656380D01*
X208557904Y-108656380D01*
X209462666Y-107656380D02*
X210081714Y-107656380D01*
X209748380Y-108037333D01*
X209891238Y-108037333D01*
X209986476Y-108084952D01*
X210034095Y-108132571D01*
X210081714Y-108227809D01*
X210081714Y-108465904D01*
X210034095Y-108561142D01*
X209986476Y-108608761D01*
X209891238Y-108656380D01*
X209605523Y-108656380D01*
X209510285Y-108608761D01*
X209462666Y-108561142D01*
X220829142Y-91098666D02*
X220876761Y-91146285D01*
X220924380Y-91289142D01*
X220924380Y-91384380D01*
X220876761Y-91527238D01*
X220781523Y-91622476D01*
X220686285Y-91670095D01*
X220495809Y-91717714D01*
X220352952Y-91717714D01*
X220162476Y-91670095D01*
X220067238Y-91622476D01*
X219972000Y-91527238D01*
X219924380Y-91384380D01*
X219924380Y-91289142D01*
X219972000Y-91146285D01*
X220019619Y-91098666D01*
X220924380Y-90146285D02*
X220924380Y-90717714D01*
X220924380Y-90432000D02*
X219924380Y-90432000D01*
X220067238Y-90527238D01*
X220162476Y-90622476D01*
X220210095Y-90717714D01*
X212011142Y-87034666D02*
X212058761Y-87082285D01*
X212106380Y-87225142D01*
X212106380Y-87320380D01*
X212058761Y-87463238D01*
X211963523Y-87558476D01*
X211868285Y-87606095D01*
X211677809Y-87653714D01*
X211534952Y-87653714D01*
X211344476Y-87606095D01*
X211249238Y-87558476D01*
X211154000Y-87463238D01*
X211106380Y-87320380D01*
X211106380Y-87225142D01*
X211154000Y-87082285D01*
X211201619Y-87034666D01*
X211201619Y-86653714D02*
X211154000Y-86606095D01*
X211106380Y-86510857D01*
X211106380Y-86272761D01*
X211154000Y-86177523D01*
X211201619Y-86129904D01*
X211296857Y-86082285D01*
X211392095Y-86082285D01*
X211534952Y-86129904D01*
X212106380Y-86701333D01*
X212106380Y-86082285D01*
X215749142Y-93257666D02*
X215796761Y-93305285D01*
X215844380Y-93448142D01*
X215844380Y-93543380D01*
X215796761Y-93686238D01*
X215701523Y-93781476D01*
X215606285Y-93829095D01*
X215415809Y-93876714D01*
X215272952Y-93876714D01*
X215082476Y-93829095D01*
X214987238Y-93781476D01*
X214892000Y-93686238D01*
X214844380Y-93543380D01*
X214844380Y-93448142D01*
X214892000Y-93305285D01*
X214939619Y-93257666D01*
X215177714Y-92400523D02*
X215844380Y-92400523D01*
X214796761Y-92638619D02*
X215511047Y-92876714D01*
X215511047Y-92257666D01*
X210487142Y-91606666D02*
X210534761Y-91654285D01*
X210582380Y-91797142D01*
X210582380Y-91892380D01*
X210534761Y-92035238D01*
X210439523Y-92130476D01*
X210344285Y-92178095D01*
X210153809Y-92225714D01*
X210010952Y-92225714D01*
X209820476Y-92178095D01*
X209725238Y-92130476D01*
X209630000Y-92035238D01*
X209582380Y-91892380D01*
X209582380Y-91797142D01*
X209630000Y-91654285D01*
X209677619Y-91606666D01*
X209582380Y-90701904D02*
X209582380Y-91178095D01*
X210058571Y-91225714D01*
X210010952Y-91178095D01*
X209963333Y-91082857D01*
X209963333Y-90844761D01*
X210010952Y-90749523D01*
X210058571Y-90701904D01*
X210153809Y-90654285D01*
X210391904Y-90654285D01*
X210487142Y-90701904D01*
X210534761Y-90749523D01*
X210582380Y-90844761D01*
X210582380Y-91082857D01*
X210534761Y-91178095D01*
X210487142Y-91225714D01*
X204065142Y-112307666D02*
X204112761Y-112355285D01*
X204160380Y-112498142D01*
X204160380Y-112593380D01*
X204112761Y-112736238D01*
X204017523Y-112831476D01*
X203922285Y-112879095D01*
X203731809Y-112926714D01*
X203588952Y-112926714D01*
X203398476Y-112879095D01*
X203303238Y-112831476D01*
X203208000Y-112736238D01*
X203160380Y-112593380D01*
X203160380Y-112498142D01*
X203208000Y-112355285D01*
X203255619Y-112307666D01*
X203160380Y-111450523D02*
X203160380Y-111641000D01*
X203208000Y-111736238D01*
X203255619Y-111783857D01*
X203398476Y-111879095D01*
X203588952Y-111926714D01*
X203969904Y-111926714D01*
X204065142Y-111879095D01*
X204112761Y-111831476D01*
X204160380Y-111736238D01*
X204160380Y-111545761D01*
X204112761Y-111450523D01*
X204065142Y-111402904D01*
X203969904Y-111355285D01*
X203731809Y-111355285D01*
X203636571Y-111402904D01*
X203588952Y-111450523D01*
X203541333Y-111545761D01*
X203541333Y-111736238D01*
X203588952Y-111831476D01*
X203636571Y-111879095D01*
X203731809Y-111926714D01*
X214463333Y-76557142D02*
X214415714Y-76604761D01*
X214272857Y-76652380D01*
X214177619Y-76652380D01*
X214034761Y-76604761D01*
X213939523Y-76509523D01*
X213891904Y-76414285D01*
X213844285Y-76223809D01*
X213844285Y-76080952D01*
X213891904Y-75890476D01*
X213939523Y-75795238D01*
X214034761Y-75700000D01*
X214177619Y-75652380D01*
X214272857Y-75652380D01*
X214415714Y-75700000D01*
X214463333Y-75747619D01*
X214796666Y-75652380D02*
X215463333Y-75652380D01*
X215034761Y-76652380D01*
X201525142Y-112307666D02*
X201572761Y-112355285D01*
X201620380Y-112498142D01*
X201620380Y-112593380D01*
X201572761Y-112736238D01*
X201477523Y-112831476D01*
X201382285Y-112879095D01*
X201191809Y-112926714D01*
X201048952Y-112926714D01*
X200858476Y-112879095D01*
X200763238Y-112831476D01*
X200668000Y-112736238D01*
X200620380Y-112593380D01*
X200620380Y-112498142D01*
X200668000Y-112355285D01*
X200715619Y-112307666D01*
X201048952Y-111736238D02*
X201001333Y-111831476D01*
X200953714Y-111879095D01*
X200858476Y-111926714D01*
X200810857Y-111926714D01*
X200715619Y-111879095D01*
X200668000Y-111831476D01*
X200620380Y-111736238D01*
X200620380Y-111545761D01*
X200668000Y-111450523D01*
X200715619Y-111402904D01*
X200810857Y-111355285D01*
X200858476Y-111355285D01*
X200953714Y-111402904D01*
X201001333Y-111450523D01*
X201048952Y-111545761D01*
X201048952Y-111736238D01*
X201096571Y-111831476D01*
X201144190Y-111879095D01*
X201239428Y-111926714D01*
X201429904Y-111926714D01*
X201525142Y-111879095D01*
X201572761Y-111831476D01*
X201620380Y-111736238D01*
X201620380Y-111545761D01*
X201572761Y-111450523D01*
X201525142Y-111402904D01*
X201429904Y-111355285D01*
X201239428Y-111355285D01*
X201144190Y-111402904D01*
X201096571Y-111450523D01*
X201048952Y-111545761D01*
X206605142Y-113291857D02*
X206652761Y-113339476D01*
X206700380Y-113482333D01*
X206700380Y-113577571D01*
X206652761Y-113720428D01*
X206557523Y-113815666D01*
X206462285Y-113863285D01*
X206271809Y-113910904D01*
X206128952Y-113910904D01*
X205938476Y-113863285D01*
X205843238Y-113815666D01*
X205748000Y-113720428D01*
X205700380Y-113577571D01*
X205700380Y-113482333D01*
X205748000Y-113339476D01*
X205795619Y-113291857D01*
X206700380Y-112339476D02*
X206700380Y-112910904D01*
X206700380Y-112625190D02*
X205700380Y-112625190D01*
X205843238Y-112720428D01*
X205938476Y-112815666D01*
X205986095Y-112910904D01*
X205700380Y-111720428D02*
X205700380Y-111625190D01*
X205748000Y-111529952D01*
X205795619Y-111482333D01*
X205890857Y-111434714D01*
X206081333Y-111387095D01*
X206319428Y-111387095D01*
X206509904Y-111434714D01*
X206605142Y-111482333D01*
X206652761Y-111529952D01*
X206700380Y-111625190D01*
X206700380Y-111720428D01*
X206652761Y-111815666D01*
X206605142Y-111863285D01*
X206509904Y-111910904D01*
X206319428Y-111958523D01*
X206081333Y-111958523D01*
X205890857Y-111910904D01*
X205795619Y-111863285D01*
X205748000Y-111815666D01*
X205700380Y-111720428D01*
X197135142Y-96654857D02*
X197182761Y-96702476D01*
X197230380Y-96845333D01*
X197230380Y-96940571D01*
X197182761Y-97083428D01*
X197087523Y-97178666D01*
X196992285Y-97226285D01*
X196801809Y-97273904D01*
X196658952Y-97273904D01*
X196468476Y-97226285D01*
X196373238Y-97178666D01*
X196278000Y-97083428D01*
X196230380Y-96940571D01*
X196230380Y-96845333D01*
X196278000Y-96702476D01*
X196325619Y-96654857D01*
X197230380Y-95702476D02*
X197230380Y-96273904D01*
X197230380Y-95988190D02*
X196230380Y-95988190D01*
X196373238Y-96083428D01*
X196468476Y-96178666D01*
X196516095Y-96273904D01*
X197230380Y-94750095D02*
X197230380Y-95321523D01*
X197230380Y-95035809D02*
X196230380Y-95035809D01*
X196373238Y-95131047D01*
X196468476Y-95226285D01*
X196516095Y-95321523D01*
X193286142Y-93448142D02*
X193238523Y-93495761D01*
X193095666Y-93543380D01*
X193000428Y-93543380D01*
X192857571Y-93495761D01*
X192762333Y-93400523D01*
X192714714Y-93305285D01*
X192667095Y-93114809D01*
X192667095Y-92971952D01*
X192714714Y-92781476D01*
X192762333Y-92686238D01*
X192857571Y-92591000D01*
X193000428Y-92543380D01*
X193095666Y-92543380D01*
X193238523Y-92591000D01*
X193286142Y-92638619D01*
X194238523Y-93543380D02*
X193667095Y-93543380D01*
X193952809Y-93543380D02*
X193952809Y-92543380D01*
X193857571Y-92686238D01*
X193762333Y-92781476D01*
X193667095Y-92829095D01*
X194619476Y-92638619D02*
X194667095Y-92591000D01*
X194762333Y-92543380D01*
X195000428Y-92543380D01*
X195095666Y-92591000D01*
X195143285Y-92638619D01*
X195190904Y-92733857D01*
X195190904Y-92829095D01*
X195143285Y-92971952D01*
X194571857Y-93543380D01*
X195190904Y-93543380D01*
X198832742Y-104071657D02*
X198880361Y-104119276D01*
X198927980Y-104262133D01*
X198927980Y-104357371D01*
X198880361Y-104500228D01*
X198785123Y-104595466D01*
X198689885Y-104643085D01*
X198499409Y-104690704D01*
X198356552Y-104690704D01*
X198166076Y-104643085D01*
X198070838Y-104595466D01*
X197975600Y-104500228D01*
X197927980Y-104357371D01*
X197927980Y-104262133D01*
X197975600Y-104119276D01*
X198023219Y-104071657D01*
X198927980Y-103119276D02*
X198927980Y-103690704D01*
X198927980Y-103404990D02*
X197927980Y-103404990D01*
X198070838Y-103500228D01*
X198166076Y-103595466D01*
X198213695Y-103690704D01*
X197927980Y-102214514D02*
X197927980Y-102690704D01*
X198404171Y-102738323D01*
X198356552Y-102690704D01*
X198308933Y-102595466D01*
X198308933Y-102357371D01*
X198356552Y-102262133D01*
X198404171Y-102214514D01*
X198499409Y-102166895D01*
X198737504Y-102166895D01*
X198832742Y-102214514D01*
X198880361Y-102262133D01*
X198927980Y-102357371D01*
X198927980Y-102595466D01*
X198880361Y-102690704D01*
X198832742Y-102738323D01*
X183364142Y-102496857D02*
X183411761Y-102544476D01*
X183459380Y-102687333D01*
X183459380Y-102782571D01*
X183411761Y-102925428D01*
X183316523Y-103020666D01*
X183221285Y-103068285D01*
X183030809Y-103115904D01*
X182887952Y-103115904D01*
X182697476Y-103068285D01*
X182602238Y-103020666D01*
X182507000Y-102925428D01*
X182459380Y-102782571D01*
X182459380Y-102687333D01*
X182507000Y-102544476D01*
X182554619Y-102496857D01*
X183459380Y-101544476D02*
X183459380Y-102115904D01*
X183459380Y-101830190D02*
X182459380Y-101830190D01*
X182602238Y-101925428D01*
X182697476Y-102020666D01*
X182745095Y-102115904D01*
X182459380Y-100687333D02*
X182459380Y-100877809D01*
X182507000Y-100973047D01*
X182554619Y-101020666D01*
X182697476Y-101115904D01*
X182887952Y-101163523D01*
X183268904Y-101163523D01*
X183364142Y-101115904D01*
X183411761Y-101068285D01*
X183459380Y-100973047D01*
X183459380Y-100782571D01*
X183411761Y-100687333D01*
X183364142Y-100639714D01*
X183268904Y-100592095D01*
X183030809Y-100592095D01*
X182935571Y-100639714D01*
X182887952Y-100687333D01*
X182840333Y-100782571D01*
X182840333Y-100973047D01*
X182887952Y-101068285D01*
X182935571Y-101115904D01*
X183030809Y-101163523D01*
X186539142Y-102496857D02*
X186586761Y-102544476D01*
X186634380Y-102687333D01*
X186634380Y-102782571D01*
X186586761Y-102925428D01*
X186491523Y-103020666D01*
X186396285Y-103068285D01*
X186205809Y-103115904D01*
X186062952Y-103115904D01*
X185872476Y-103068285D01*
X185777238Y-103020666D01*
X185682000Y-102925428D01*
X185634380Y-102782571D01*
X185634380Y-102687333D01*
X185682000Y-102544476D01*
X185729619Y-102496857D01*
X186634380Y-101544476D02*
X186634380Y-102115904D01*
X186634380Y-101830190D02*
X185634380Y-101830190D01*
X185777238Y-101925428D01*
X185872476Y-102020666D01*
X185920095Y-102115904D01*
X185634380Y-101211142D02*
X185634380Y-100544476D01*
X186634380Y-100973047D01*
X197080142Y-107322857D02*
X197127761Y-107370476D01*
X197175380Y-107513333D01*
X197175380Y-107608571D01*
X197127761Y-107751428D01*
X197032523Y-107846666D01*
X196937285Y-107894285D01*
X196746809Y-107941904D01*
X196603952Y-107941904D01*
X196413476Y-107894285D01*
X196318238Y-107846666D01*
X196223000Y-107751428D01*
X196175380Y-107608571D01*
X196175380Y-107513333D01*
X196223000Y-107370476D01*
X196270619Y-107322857D01*
X197175380Y-106370476D02*
X197175380Y-106941904D01*
X197175380Y-106656190D02*
X196175380Y-106656190D01*
X196318238Y-106751428D01*
X196413476Y-106846666D01*
X196461095Y-106941904D01*
X196603952Y-105799047D02*
X196556333Y-105894285D01*
X196508714Y-105941904D01*
X196413476Y-105989523D01*
X196365857Y-105989523D01*
X196270619Y-105941904D01*
X196223000Y-105894285D01*
X196175380Y-105799047D01*
X196175380Y-105608571D01*
X196223000Y-105513333D01*
X196270619Y-105465714D01*
X196365857Y-105418095D01*
X196413476Y-105418095D01*
X196508714Y-105465714D01*
X196556333Y-105513333D01*
X196603952Y-105608571D01*
X196603952Y-105799047D01*
X196651571Y-105894285D01*
X196699190Y-105941904D01*
X196794428Y-105989523D01*
X196984904Y-105989523D01*
X197080142Y-105941904D01*
X197127761Y-105894285D01*
X197175380Y-105799047D01*
X197175380Y-105608571D01*
X197127761Y-105513333D01*
X197080142Y-105465714D01*
X196984904Y-105418095D01*
X196794428Y-105418095D01*
X196699190Y-105465714D01*
X196651571Y-105513333D01*
X196603952Y-105608571D01*
X213860142Y-73890142D02*
X213812523Y-73937761D01*
X213669666Y-73985380D01*
X213574428Y-73985380D01*
X213431571Y-73937761D01*
X213336333Y-73842523D01*
X213288714Y-73747285D01*
X213241095Y-73556809D01*
X213241095Y-73413952D01*
X213288714Y-73223476D01*
X213336333Y-73128238D01*
X213431571Y-73033000D01*
X213574428Y-72985380D01*
X213669666Y-72985380D01*
X213812523Y-73033000D01*
X213860142Y-73080619D01*
X214812523Y-73985380D02*
X214241095Y-73985380D01*
X214526809Y-73985380D02*
X214526809Y-72985380D01*
X214431571Y-73128238D01*
X214336333Y-73223476D01*
X214241095Y-73271095D01*
X215288714Y-73985380D02*
X215479190Y-73985380D01*
X215574428Y-73937761D01*
X215622047Y-73890142D01*
X215717285Y-73747285D01*
X215764904Y-73556809D01*
X215764904Y-73175857D01*
X215717285Y-73080619D01*
X215669666Y-73033000D01*
X215574428Y-72985380D01*
X215383952Y-72985380D01*
X215288714Y-73033000D01*
X215241095Y-73080619D01*
X215193476Y-73175857D01*
X215193476Y-73413952D01*
X215241095Y-73509190D01*
X215288714Y-73556809D01*
X215383952Y-73604428D01*
X215574428Y-73604428D01*
X215669666Y-73556809D01*
X215717285Y-73509190D01*
X215764904Y-73413952D01*
X224766142Y-68206857D02*
X224813761Y-68254476D01*
X224861380Y-68397333D01*
X224861380Y-68492571D01*
X224813761Y-68635428D01*
X224718523Y-68730666D01*
X224623285Y-68778285D01*
X224432809Y-68825904D01*
X224289952Y-68825904D01*
X224099476Y-68778285D01*
X224004238Y-68730666D01*
X223909000Y-68635428D01*
X223861380Y-68492571D01*
X223861380Y-68397333D01*
X223909000Y-68254476D01*
X223956619Y-68206857D01*
X223956619Y-67825904D02*
X223909000Y-67778285D01*
X223861380Y-67683047D01*
X223861380Y-67444952D01*
X223909000Y-67349714D01*
X223956619Y-67302095D01*
X224051857Y-67254476D01*
X224147095Y-67254476D01*
X224289952Y-67302095D01*
X224861380Y-67873523D01*
X224861380Y-67254476D01*
X223956619Y-66873523D02*
X223909000Y-66825904D01*
X223861380Y-66730666D01*
X223861380Y-66492571D01*
X223909000Y-66397333D01*
X223956619Y-66349714D01*
X224051857Y-66302095D01*
X224147095Y-66302095D01*
X224289952Y-66349714D01*
X224861380Y-66921142D01*
X224861380Y-66302095D01*
X220845142Y-72819142D02*
X220797523Y-72866761D01*
X220654666Y-72914380D01*
X220559428Y-72914380D01*
X220416571Y-72866761D01*
X220321333Y-72771523D01*
X220273714Y-72676285D01*
X220226095Y-72485809D01*
X220226095Y-72342952D01*
X220273714Y-72152476D01*
X220321333Y-72057238D01*
X220416571Y-71962000D01*
X220559428Y-71914380D01*
X220654666Y-71914380D01*
X220797523Y-71962000D01*
X220845142Y-72009619D01*
X221226095Y-72009619D02*
X221273714Y-71962000D01*
X221368952Y-71914380D01*
X221607047Y-71914380D01*
X221702285Y-71962000D01*
X221749904Y-72009619D01*
X221797523Y-72104857D01*
X221797523Y-72200095D01*
X221749904Y-72342952D01*
X221178476Y-72914380D01*
X221797523Y-72914380D01*
X222702285Y-71914380D02*
X222226095Y-71914380D01*
X222178476Y-72390571D01*
X222226095Y-72342952D01*
X222321333Y-72295333D01*
X222559428Y-72295333D01*
X222654666Y-72342952D01*
X222702285Y-72390571D01*
X222749904Y-72485809D01*
X222749904Y-72723904D01*
X222702285Y-72819142D01*
X222654666Y-72866761D01*
X222559428Y-72914380D01*
X222321333Y-72914380D01*
X222226095Y-72866761D01*
X222178476Y-72819142D01*
X178173142Y-105132142D02*
X178125523Y-105179761D01*
X177982666Y-105227380D01*
X177887428Y-105227380D01*
X177744571Y-105179761D01*
X177649333Y-105084523D01*
X177601714Y-104989285D01*
X177554095Y-104798809D01*
X177554095Y-104655952D01*
X177601714Y-104465476D01*
X177649333Y-104370238D01*
X177744571Y-104275000D01*
X177887428Y-104227380D01*
X177982666Y-104227380D01*
X178125523Y-104275000D01*
X178173142Y-104322619D01*
X178506476Y-104227380D02*
X179125523Y-104227380D01*
X178792190Y-104608333D01*
X178935047Y-104608333D01*
X179030285Y-104655952D01*
X179077904Y-104703571D01*
X179125523Y-104798809D01*
X179125523Y-105036904D01*
X179077904Y-105132142D01*
X179030285Y-105179761D01*
X178935047Y-105227380D01*
X178649333Y-105227380D01*
X178554095Y-105179761D01*
X178506476Y-105132142D01*
X180077904Y-105227380D02*
X179506476Y-105227380D01*
X179792190Y-105227380D02*
X179792190Y-104227380D01*
X179696952Y-104370238D01*
X179601714Y-104465476D01*
X179506476Y-104513095D01*
X186602642Y-106878357D02*
X186650261Y-106925976D01*
X186697880Y-107068833D01*
X186697880Y-107164071D01*
X186650261Y-107306928D01*
X186555023Y-107402166D01*
X186459785Y-107449785D01*
X186269309Y-107497404D01*
X186126452Y-107497404D01*
X185935976Y-107449785D01*
X185840738Y-107402166D01*
X185745500Y-107306928D01*
X185697880Y-107164071D01*
X185697880Y-107068833D01*
X185745500Y-106925976D01*
X185793119Y-106878357D01*
X185697880Y-106545023D02*
X185697880Y-105925976D01*
X186078833Y-106259309D01*
X186078833Y-106116452D01*
X186126452Y-106021214D01*
X186174071Y-105973595D01*
X186269309Y-105925976D01*
X186507404Y-105925976D01*
X186602642Y-105973595D01*
X186650261Y-106021214D01*
X186697880Y-106116452D01*
X186697880Y-106402166D01*
X186650261Y-106497404D01*
X186602642Y-106545023D01*
X185793119Y-105545023D02*
X185745500Y-105497404D01*
X185697880Y-105402166D01*
X185697880Y-105164071D01*
X185745500Y-105068833D01*
X185793119Y-105021214D01*
X185888357Y-104973595D01*
X185983595Y-104973595D01*
X186126452Y-105021214D01*
X186697880Y-105592642D01*
X186697880Y-104973595D01*
X208732380Y-87034666D02*
X208732380Y-87510857D01*
X207732380Y-87510857D01*
X207827619Y-86748952D02*
X207780000Y-86701333D01*
X207732380Y-86606095D01*
X207732380Y-86368000D01*
X207780000Y-86272761D01*
X207827619Y-86225142D01*
X207922857Y-86177523D01*
X208018095Y-86177523D01*
X208160952Y-86225142D01*
X208732380Y-86796571D01*
X208732380Y-86177523D01*
X202017333Y-104973380D02*
X201541142Y-104973380D01*
X201541142Y-103973380D01*
X202255428Y-103973380D02*
X202874476Y-103973380D01*
X202541142Y-104354333D01*
X202684000Y-104354333D01*
X202779238Y-104401952D01*
X202826857Y-104449571D01*
X202874476Y-104544809D01*
X202874476Y-104782904D01*
X202826857Y-104878142D01*
X202779238Y-104925761D01*
X202684000Y-104973380D01*
X202398285Y-104973380D01*
X202303047Y-104925761D01*
X202255428Y-104878142D01*
X187737761Y-88050619D02*
X187642523Y-88003000D01*
X187547285Y-87907761D01*
X187404428Y-87764904D01*
X187309190Y-87717285D01*
X187213952Y-87717285D01*
X187261571Y-87955380D02*
X187166333Y-87907761D01*
X187071095Y-87812523D01*
X187023476Y-87622047D01*
X187023476Y-87288714D01*
X187071095Y-87098238D01*
X187166333Y-87003000D01*
X187261571Y-86955380D01*
X187452047Y-86955380D01*
X187547285Y-87003000D01*
X187642523Y-87098238D01*
X187690142Y-87288714D01*
X187690142Y-87622047D01*
X187642523Y-87812523D01*
X187547285Y-87907761D01*
X187452047Y-87955380D01*
X187261571Y-87955380D01*
X188642523Y-87955380D02*
X188071095Y-87955380D01*
X188356809Y-87955380D02*
X188356809Y-86955380D01*
X188261571Y-87098238D01*
X188166333Y-87193476D01*
X188071095Y-87241095D01*
X178339761Y-108370619D02*
X178244523Y-108323000D01*
X178149285Y-108227761D01*
X178006428Y-108084904D01*
X177911190Y-108037285D01*
X177815952Y-108037285D01*
X177863571Y-108275380D02*
X177768333Y-108227761D01*
X177673095Y-108132523D01*
X177625476Y-107942047D01*
X177625476Y-107608714D01*
X177673095Y-107418238D01*
X177768333Y-107323000D01*
X177863571Y-107275380D01*
X178054047Y-107275380D01*
X178149285Y-107323000D01*
X178244523Y-107418238D01*
X178292142Y-107608714D01*
X178292142Y-107942047D01*
X178244523Y-108132523D01*
X178149285Y-108227761D01*
X178054047Y-108275380D01*
X177863571Y-108275380D01*
X178673095Y-107370619D02*
X178720714Y-107323000D01*
X178815952Y-107275380D01*
X179054047Y-107275380D01*
X179149285Y-107323000D01*
X179196904Y-107370619D01*
X179244523Y-107465857D01*
X179244523Y-107561095D01*
X179196904Y-107703952D01*
X178625476Y-108275380D01*
X179244523Y-108275380D01*
X180117761Y-96305619D02*
X180022523Y-96258000D01*
X179927285Y-96162761D01*
X179784428Y-96019904D01*
X179689190Y-95972285D01*
X179593952Y-95972285D01*
X179641571Y-96210380D02*
X179546333Y-96162761D01*
X179451095Y-96067523D01*
X179403476Y-95877047D01*
X179403476Y-95543714D01*
X179451095Y-95353238D01*
X179546333Y-95258000D01*
X179641571Y-95210380D01*
X179832047Y-95210380D01*
X179927285Y-95258000D01*
X180022523Y-95353238D01*
X180070142Y-95543714D01*
X180070142Y-95877047D01*
X180022523Y-96067523D01*
X179927285Y-96162761D01*
X179832047Y-96210380D01*
X179641571Y-96210380D01*
X180927285Y-95543714D02*
X180927285Y-96210380D01*
X180689190Y-95162761D02*
X180451095Y-95877047D01*
X181070142Y-95877047D01*
X204501761Y-87415619D02*
X204406523Y-87368000D01*
X204311285Y-87272761D01*
X204168428Y-87129904D01*
X204073190Y-87082285D01*
X203977952Y-87082285D01*
X204025571Y-87320380D02*
X203930333Y-87272761D01*
X203835095Y-87177523D01*
X203787476Y-86987047D01*
X203787476Y-86653714D01*
X203835095Y-86463238D01*
X203930333Y-86368000D01*
X204025571Y-86320380D01*
X204216047Y-86320380D01*
X204311285Y-86368000D01*
X204406523Y-86463238D01*
X204454142Y-86653714D01*
X204454142Y-86987047D01*
X204406523Y-87177523D01*
X204311285Y-87272761D01*
X204216047Y-87320380D01*
X204025571Y-87320380D01*
X205311285Y-86320380D02*
X205120809Y-86320380D01*
X205025571Y-86368000D01*
X204977952Y-86415619D01*
X204882714Y-86558476D01*
X204835095Y-86748952D01*
X204835095Y-87129904D01*
X204882714Y-87225142D01*
X204930333Y-87272761D01*
X205025571Y-87320380D01*
X205216047Y-87320380D01*
X205311285Y-87272761D01*
X205358904Y-87225142D01*
X205406523Y-87129904D01*
X205406523Y-86891809D01*
X205358904Y-86796571D01*
X205311285Y-86748952D01*
X205216047Y-86701333D01*
X205025571Y-86701333D01*
X204930333Y-86748952D01*
X204882714Y-86796571D01*
X204835095Y-86891809D01*
X187539333Y-85161380D02*
X187206000Y-84685190D01*
X186967904Y-85161380D02*
X186967904Y-84161380D01*
X187348857Y-84161380D01*
X187444095Y-84209000D01*
X187491714Y-84256619D01*
X187539333Y-84351857D01*
X187539333Y-84494714D01*
X187491714Y-84589952D01*
X187444095Y-84637571D01*
X187348857Y-84685190D01*
X186967904Y-84685190D01*
X188491714Y-85161380D02*
X187920285Y-85161380D01*
X188206000Y-85161380D02*
X188206000Y-84161380D01*
X188110761Y-84304238D01*
X188015523Y-84399476D01*
X187920285Y-84447095D01*
X205049380Y-105830666D02*
X204573190Y-106164000D01*
X205049380Y-106402095D02*
X204049380Y-106402095D01*
X204049380Y-106021142D01*
X204097000Y-105925904D01*
X204144619Y-105878285D01*
X204239857Y-105830666D01*
X204382714Y-105830666D01*
X204477952Y-105878285D01*
X204525571Y-105925904D01*
X204573190Y-106021142D01*
X204573190Y-106402095D01*
X204144619Y-105449714D02*
X204097000Y-105402095D01*
X204049380Y-105306857D01*
X204049380Y-105068761D01*
X204097000Y-104973523D01*
X204144619Y-104925904D01*
X204239857Y-104878285D01*
X204335095Y-104878285D01*
X204477952Y-104925904D01*
X205049380Y-105497333D01*
X205049380Y-104878285D01*
X200747333Y-96464380D02*
X200414000Y-95988190D01*
X200175904Y-96464380D02*
X200175904Y-95464380D01*
X200556857Y-95464380D01*
X200652095Y-95512000D01*
X200699714Y-95559619D01*
X200747333Y-95654857D01*
X200747333Y-95797714D01*
X200699714Y-95892952D01*
X200652095Y-95940571D01*
X200556857Y-95988190D01*
X200175904Y-95988190D01*
X201604476Y-95797714D02*
X201604476Y-96464380D01*
X201366380Y-95416761D02*
X201128285Y-96131047D01*
X201747333Y-96131047D01*
X194524333Y-90876380D02*
X194191000Y-90400190D01*
X193952904Y-90876380D02*
X193952904Y-89876380D01*
X194333857Y-89876380D01*
X194429095Y-89924000D01*
X194476714Y-89971619D01*
X194524333Y-90066857D01*
X194524333Y-90209714D01*
X194476714Y-90304952D01*
X194429095Y-90352571D01*
X194333857Y-90400190D01*
X193952904Y-90400190D01*
X195429095Y-89876380D02*
X194952904Y-89876380D01*
X194905285Y-90352571D01*
X194952904Y-90304952D01*
X195048142Y-90257333D01*
X195286238Y-90257333D01*
X195381476Y-90304952D01*
X195429095Y-90352571D01*
X195476714Y-90447809D01*
X195476714Y-90685904D01*
X195429095Y-90781142D01*
X195381476Y-90828761D01*
X195286238Y-90876380D01*
X195048142Y-90876380D01*
X194952904Y-90828761D01*
X194905285Y-90781142D01*
X190714333Y-93543380D02*
X190381000Y-93067190D01*
X190142904Y-93543380D02*
X190142904Y-92543380D01*
X190523857Y-92543380D01*
X190619095Y-92591000D01*
X190666714Y-92638619D01*
X190714333Y-92733857D01*
X190714333Y-92876714D01*
X190666714Y-92971952D01*
X190619095Y-93019571D01*
X190523857Y-93067190D01*
X190142904Y-93067190D01*
X191571476Y-92543380D02*
X191381000Y-92543380D01*
X191285761Y-92591000D01*
X191238142Y-92638619D01*
X191142904Y-92781476D01*
X191095285Y-92971952D01*
X191095285Y-93352904D01*
X191142904Y-93448142D01*
X191190523Y-93495761D01*
X191285761Y-93543380D01*
X191476238Y-93543380D01*
X191571476Y-93495761D01*
X191619095Y-93448142D01*
X191666714Y-93352904D01*
X191666714Y-93114809D01*
X191619095Y-93019571D01*
X191571476Y-92971952D01*
X191476238Y-92924333D01*
X191285761Y-92924333D01*
X191190523Y-92971952D01*
X191142904Y-93019571D01*
X191095285Y-93114809D01*
X180466380Y-83732666D02*
X179990190Y-84066000D01*
X180466380Y-84304095D02*
X179466380Y-84304095D01*
X179466380Y-83923142D01*
X179514000Y-83827904D01*
X179561619Y-83780285D01*
X179656857Y-83732666D01*
X179799714Y-83732666D01*
X179894952Y-83780285D01*
X179942571Y-83827904D01*
X179990190Y-83923142D01*
X179990190Y-84304095D01*
X179466380Y-83399333D02*
X179466380Y-82732666D01*
X180466380Y-83161238D01*
X228687333Y-67762380D02*
X228354000Y-67286190D01*
X228115904Y-67762380D02*
X228115904Y-66762380D01*
X228496857Y-66762380D01*
X228592095Y-66810000D01*
X228639714Y-66857619D01*
X228687333Y-66952857D01*
X228687333Y-67095714D01*
X228639714Y-67190952D01*
X228592095Y-67238571D01*
X228496857Y-67286190D01*
X228115904Y-67286190D01*
X229163523Y-67762380D02*
X229354000Y-67762380D01*
X229449238Y-67714761D01*
X229496857Y-67667142D01*
X229592095Y-67524285D01*
X229639714Y-67333809D01*
X229639714Y-66952857D01*
X229592095Y-66857619D01*
X229544476Y-66810000D01*
X229449238Y-66762380D01*
X229258761Y-66762380D01*
X229163523Y-66810000D01*
X229115904Y-66857619D01*
X229068285Y-66952857D01*
X229068285Y-67190952D01*
X229115904Y-67286190D01*
X229163523Y-67333809D01*
X229258761Y-67381428D01*
X229449238Y-67381428D01*
X229544476Y-67333809D01*
X229592095Y-67286190D01*
X229639714Y-67190952D01*
X191508142Y-92273380D02*
X191174809Y-91797190D01*
X190936714Y-92273380D02*
X190936714Y-91273380D01*
X191317666Y-91273380D01*
X191412904Y-91321000D01*
X191460523Y-91368619D01*
X191508142Y-91463857D01*
X191508142Y-91606714D01*
X191460523Y-91701952D01*
X191412904Y-91749571D01*
X191317666Y-91797190D01*
X190936714Y-91797190D01*
X192460523Y-92273380D02*
X191889095Y-92273380D01*
X192174809Y-92273380D02*
X192174809Y-91273380D01*
X192079571Y-91416238D01*
X191984333Y-91511476D01*
X191889095Y-91559095D01*
X193412904Y-92273380D02*
X192841476Y-92273380D01*
X193127190Y-92273380D02*
X193127190Y-91273380D01*
X193031952Y-91416238D01*
X192936714Y-91511476D01*
X192841476Y-91559095D01*
X186253380Y-98686857D02*
X185777190Y-99020190D01*
X186253380Y-99258285D02*
X185253380Y-99258285D01*
X185253380Y-98877333D01*
X185301000Y-98782095D01*
X185348619Y-98734476D01*
X185443857Y-98686857D01*
X185586714Y-98686857D01*
X185681952Y-98734476D01*
X185729571Y-98782095D01*
X185777190Y-98877333D01*
X185777190Y-99258285D01*
X186253380Y-97734476D02*
X186253380Y-98305904D01*
X186253380Y-98020190D02*
X185253380Y-98020190D01*
X185396238Y-98115428D01*
X185491476Y-98210666D01*
X185539095Y-98305904D01*
X185348619Y-97353523D02*
X185301000Y-97305904D01*
X185253380Y-97210666D01*
X185253380Y-96972571D01*
X185301000Y-96877333D01*
X185348619Y-96829714D01*
X185443857Y-96782095D01*
X185539095Y-96782095D01*
X185681952Y-96829714D01*
X186253380Y-97401142D01*
X186253380Y-96782095D01*
X209161142Y-99766380D02*
X208827809Y-99290190D01*
X208589714Y-99766380D02*
X208589714Y-98766380D01*
X208970666Y-98766380D01*
X209065904Y-98814000D01*
X209113523Y-98861619D01*
X209161142Y-98956857D01*
X209161142Y-99099714D01*
X209113523Y-99194952D01*
X209065904Y-99242571D01*
X208970666Y-99290190D01*
X208589714Y-99290190D01*
X210113523Y-99766380D02*
X209542095Y-99766380D01*
X209827809Y-99766380D02*
X209827809Y-98766380D01*
X209732571Y-98909238D01*
X209637333Y-99004476D01*
X209542095Y-99052095D01*
X210446857Y-98766380D02*
X211113523Y-98766380D01*
X210684952Y-99766380D01*
X185745380Y-115196857D02*
X185269190Y-115530190D01*
X185745380Y-115768285D02*
X184745380Y-115768285D01*
X184745380Y-115387333D01*
X184793000Y-115292095D01*
X184840619Y-115244476D01*
X184935857Y-115196857D01*
X185078714Y-115196857D01*
X185173952Y-115244476D01*
X185221571Y-115292095D01*
X185269190Y-115387333D01*
X185269190Y-115768285D01*
X185745380Y-114244476D02*
X185745380Y-114815904D01*
X185745380Y-114530190D02*
X184745380Y-114530190D01*
X184888238Y-114625428D01*
X184983476Y-114720666D01*
X185031095Y-114815904D01*
X185173952Y-113673047D02*
X185126333Y-113768285D01*
X185078714Y-113815904D01*
X184983476Y-113863523D01*
X184935857Y-113863523D01*
X184840619Y-113815904D01*
X184793000Y-113768285D01*
X184745380Y-113673047D01*
X184745380Y-113482571D01*
X184793000Y-113387333D01*
X184840619Y-113339714D01*
X184935857Y-113292095D01*
X184983476Y-113292095D01*
X185078714Y-113339714D01*
X185126333Y-113387333D01*
X185173952Y-113482571D01*
X185173952Y-113673047D01*
X185221571Y-113768285D01*
X185269190Y-113815904D01*
X185364428Y-113863523D01*
X185554904Y-113863523D01*
X185650142Y-113815904D01*
X185697761Y-113768285D01*
X185745380Y-113673047D01*
X185745380Y-113482571D01*
X185697761Y-113387333D01*
X185650142Y-113339714D01*
X185554904Y-113292095D01*
X185364428Y-113292095D01*
X185269190Y-113339714D01*
X185221571Y-113387333D01*
X185173952Y-113482571D01*
X157551380Y-88272857D02*
X157075190Y-88606190D01*
X157551380Y-88844285D02*
X156551380Y-88844285D01*
X156551380Y-88463333D01*
X156599000Y-88368095D01*
X156646619Y-88320476D01*
X156741857Y-88272857D01*
X156884714Y-88272857D01*
X156979952Y-88320476D01*
X157027571Y-88368095D01*
X157075190Y-88463333D01*
X157075190Y-88844285D01*
X157551380Y-87320476D02*
X157551380Y-87891904D01*
X157551380Y-87606190D02*
X156551380Y-87606190D01*
X156694238Y-87701428D01*
X156789476Y-87796666D01*
X156837095Y-87891904D01*
X157551380Y-86844285D02*
X157551380Y-86653809D01*
X157503761Y-86558571D01*
X157456142Y-86510952D01*
X157313285Y-86415714D01*
X157122809Y-86368095D01*
X156741857Y-86368095D01*
X156646619Y-86415714D01*
X156599000Y-86463333D01*
X156551380Y-86558571D01*
X156551380Y-86749047D01*
X156599000Y-86844285D01*
X156646619Y-86891904D01*
X156741857Y-86939523D01*
X156979952Y-86939523D01*
X157075190Y-86891904D01*
X157122809Y-86844285D01*
X157170428Y-86749047D01*
X157170428Y-86558571D01*
X157122809Y-86463333D01*
X157075190Y-86415714D01*
X156979952Y-86368095D01*
X165171380Y-88272857D02*
X164695190Y-88606190D01*
X165171380Y-88844285D02*
X164171380Y-88844285D01*
X164171380Y-88463333D01*
X164219000Y-88368095D01*
X164266619Y-88320476D01*
X164361857Y-88272857D01*
X164504714Y-88272857D01*
X164599952Y-88320476D01*
X164647571Y-88368095D01*
X164695190Y-88463333D01*
X164695190Y-88844285D01*
X164266619Y-87891904D02*
X164219000Y-87844285D01*
X164171380Y-87749047D01*
X164171380Y-87510952D01*
X164219000Y-87415714D01*
X164266619Y-87368095D01*
X164361857Y-87320476D01*
X164457095Y-87320476D01*
X164599952Y-87368095D01*
X165171380Y-87939523D01*
X165171380Y-87320476D01*
X164171380Y-86701428D02*
X164171380Y-86606190D01*
X164219000Y-86510952D01*
X164266619Y-86463333D01*
X164361857Y-86415714D01*
X164552333Y-86368095D01*
X164790428Y-86368095D01*
X164980904Y-86415714D01*
X165076142Y-86463333D01*
X165123761Y-86510952D01*
X165171380Y-86606190D01*
X165171380Y-86701428D01*
X165123761Y-86796666D01*
X165076142Y-86844285D01*
X164980904Y-86891904D01*
X164790428Y-86939523D01*
X164552333Y-86939523D01*
X164361857Y-86891904D01*
X164266619Y-86844285D01*
X164219000Y-86796666D01*
X164171380Y-86701428D01*
X191841380Y-113418857D02*
X191365190Y-113752190D01*
X191841380Y-113990285D02*
X190841380Y-113990285D01*
X190841380Y-113609333D01*
X190889000Y-113514095D01*
X190936619Y-113466476D01*
X191031857Y-113418857D01*
X191174714Y-113418857D01*
X191269952Y-113466476D01*
X191317571Y-113514095D01*
X191365190Y-113609333D01*
X191365190Y-113990285D01*
X190936619Y-113037904D02*
X190889000Y-112990285D01*
X190841380Y-112895047D01*
X190841380Y-112656952D01*
X190889000Y-112561714D01*
X190936619Y-112514095D01*
X191031857Y-112466476D01*
X191127095Y-112466476D01*
X191269952Y-112514095D01*
X191841380Y-113085523D01*
X191841380Y-112466476D01*
X191841380Y-111514095D02*
X191841380Y-112085523D01*
X191841380Y-111799809D02*
X190841380Y-111799809D01*
X190984238Y-111895047D01*
X191079476Y-111990285D01*
X191127095Y-112085523D01*
X170814380Y-105798857D02*
X170338190Y-106132190D01*
X170814380Y-106370285D02*
X169814380Y-106370285D01*
X169814380Y-105989333D01*
X169862000Y-105894095D01*
X169909619Y-105846476D01*
X170004857Y-105798857D01*
X170147714Y-105798857D01*
X170242952Y-105846476D01*
X170290571Y-105894095D01*
X170338190Y-105989333D01*
X170338190Y-106370285D01*
X169909619Y-105417904D02*
X169862000Y-105370285D01*
X169814380Y-105275047D01*
X169814380Y-105036952D01*
X169862000Y-104941714D01*
X169909619Y-104894095D01*
X170004857Y-104846476D01*
X170100095Y-104846476D01*
X170242952Y-104894095D01*
X170814380Y-105465523D01*
X170814380Y-104846476D01*
X169909619Y-104465523D02*
X169862000Y-104417904D01*
X169814380Y-104322666D01*
X169814380Y-104084571D01*
X169862000Y-103989333D01*
X169909619Y-103941714D01*
X170004857Y-103894095D01*
X170100095Y-103894095D01*
X170242952Y-103941714D01*
X170814380Y-104513142D01*
X170814380Y-103894095D01*
X218686142Y-88336380D02*
X218352809Y-87860190D01*
X218114714Y-88336380D02*
X218114714Y-87336380D01*
X218495666Y-87336380D01*
X218590904Y-87384000D01*
X218638523Y-87431619D01*
X218686142Y-87526857D01*
X218686142Y-87669714D01*
X218638523Y-87764952D01*
X218590904Y-87812571D01*
X218495666Y-87860190D01*
X218114714Y-87860190D01*
X219067095Y-87431619D02*
X219114714Y-87384000D01*
X219209952Y-87336380D01*
X219448047Y-87336380D01*
X219543285Y-87384000D01*
X219590904Y-87431619D01*
X219638523Y-87526857D01*
X219638523Y-87622095D01*
X219590904Y-87764952D01*
X219019476Y-88336380D01*
X219638523Y-88336380D01*
X220495666Y-87669714D02*
X220495666Y-88336380D01*
X220257571Y-87288761D02*
X220019476Y-88003047D01*
X220638523Y-88003047D01*
X218567095Y-52919380D02*
X218567095Y-53728904D01*
X218614714Y-53824142D01*
X218662333Y-53871761D01*
X218757571Y-53919380D01*
X218948047Y-53919380D01*
X219043285Y-53871761D01*
X219090904Y-53824142D01*
X219138523Y-53728904D01*
X219138523Y-52919380D01*
X219567095Y-53014619D02*
X219614714Y-52967000D01*
X219709952Y-52919380D01*
X219948047Y-52919380D01*
X220043285Y-52967000D01*
X220090904Y-53014619D01*
X220138523Y-53109857D01*
X220138523Y-53205095D01*
X220090904Y-53347952D01*
X219519476Y-53919380D01*
X220138523Y-53919380D01*
X211621761Y-93035380D02*
X211288428Y-92559190D01*
X211050333Y-93035380D02*
X211050333Y-92035380D01*
X211431285Y-92035380D01*
X211526523Y-92083000D01*
X211574142Y-92130619D01*
X211621761Y-92225857D01*
X211621761Y-92368714D01*
X211574142Y-92463952D01*
X211526523Y-92511571D01*
X211431285Y-92559190D01*
X211050333Y-92559190D01*
X211907476Y-92035380D02*
X212240809Y-93035380D01*
X212574142Y-92035380D01*
X213431285Y-93035380D02*
X212859857Y-93035380D01*
X213145571Y-93035380D02*
X213145571Y-92035380D01*
X213050333Y-92178238D01*
X212955095Y-92273476D01*
X212859857Y-92321095D01*
X203366761Y-88590380D02*
X203033428Y-88114190D01*
X202795333Y-88590380D02*
X202795333Y-87590380D01*
X203176285Y-87590380D01*
X203271523Y-87638000D01*
X203319142Y-87685619D01*
X203366761Y-87780857D01*
X203366761Y-87923714D01*
X203319142Y-88018952D01*
X203271523Y-88066571D01*
X203176285Y-88114190D01*
X202795333Y-88114190D01*
X203652476Y-87590380D02*
X203985809Y-88590380D01*
X204319142Y-87590380D01*
X204604857Y-87685619D02*
X204652476Y-87638000D01*
X204747714Y-87590380D01*
X204985809Y-87590380D01*
X205081047Y-87638000D01*
X205128666Y-87685619D01*
X205176285Y-87780857D01*
X205176285Y-87876095D01*
X205128666Y-88018952D01*
X204557238Y-88590380D01*
X205176285Y-88590380D01*
X169322761Y-107989619D02*
X169227523Y-107942000D01*
X169132285Y-107846761D01*
X168989428Y-107703904D01*
X168894190Y-107656285D01*
X168798952Y-107656285D01*
X168846571Y-107894380D02*
X168751333Y-107846761D01*
X168656095Y-107751523D01*
X168608476Y-107561047D01*
X168608476Y-107227714D01*
X168656095Y-107037238D01*
X168751333Y-106942000D01*
X168846571Y-106894380D01*
X169037047Y-106894380D01*
X169132285Y-106942000D01*
X169227523Y-107037238D01*
X169275142Y-107227714D01*
X169275142Y-107561047D01*
X169227523Y-107751523D01*
X169132285Y-107846761D01*
X169037047Y-107894380D01*
X168846571Y-107894380D01*
X170179904Y-106894380D02*
X169703714Y-106894380D01*
X169656095Y-107370571D01*
X169703714Y-107322952D01*
X169798952Y-107275333D01*
X170037047Y-107275333D01*
X170132285Y-107322952D01*
X170179904Y-107370571D01*
X170227523Y-107465809D01*
X170227523Y-107703904D01*
X170179904Y-107799142D01*
X170132285Y-107846761D01*
X170037047Y-107894380D01*
X169798952Y-107894380D01*
X169703714Y-107846761D01*
X169656095Y-107799142D01*
X203652380Y-135008857D02*
X203176190Y-135342190D01*
X203652380Y-135580285D02*
X202652380Y-135580285D01*
X202652380Y-135199333D01*
X202700000Y-135104095D01*
X202747619Y-135056476D01*
X202842857Y-135008857D01*
X202985714Y-135008857D01*
X203080952Y-135056476D01*
X203128571Y-135104095D01*
X203176190Y-135199333D01*
X203176190Y-135580285D01*
X202747619Y-134627904D02*
X202700000Y-134580285D01*
X202652380Y-134485047D01*
X202652380Y-134246952D01*
X202700000Y-134151714D01*
X202747619Y-134104095D01*
X202842857Y-134056476D01*
X202938095Y-134056476D01*
X203080952Y-134104095D01*
X203652380Y-134675523D01*
X203652380Y-134056476D01*
X202652380Y-133151714D02*
X202652380Y-133627904D01*
X203128571Y-133675523D01*
X203080952Y-133627904D01*
X203033333Y-133532666D01*
X203033333Y-133294571D01*
X203080952Y-133199333D01*
X203128571Y-133151714D01*
X203223809Y-133104095D01*
X203461904Y-133104095D01*
X203557142Y-133151714D01*
X203604761Y-133199333D01*
X203652380Y-133294571D01*
X203652380Y-133532666D01*
X203604761Y-133627904D01*
X203557142Y-133675523D01*
X213066333Y-66778142D02*
X213018714Y-66825761D01*
X212875857Y-66873380D01*
X212780619Y-66873380D01*
X212637761Y-66825761D01*
X212542523Y-66730523D01*
X212494904Y-66635285D01*
X212447285Y-66444809D01*
X212447285Y-66301952D01*
X212494904Y-66111476D01*
X212542523Y-66016238D01*
X212637761Y-65921000D01*
X212780619Y-65873380D01*
X212875857Y-65873380D01*
X213018714Y-65921000D01*
X213066333Y-65968619D01*
X213399666Y-65873380D02*
X214018714Y-65873380D01*
X213685380Y-66254333D01*
X213828238Y-66254333D01*
X213923476Y-66301952D01*
X213971095Y-66349571D01*
X214018714Y-66444809D01*
X214018714Y-66682904D01*
X213971095Y-66778142D01*
X213923476Y-66825761D01*
X213828238Y-66873380D01*
X213542523Y-66873380D01*
X213447285Y-66825761D01*
X213399666Y-66778142D01*
X227846190Y-71191380D02*
X227846190Y-70191380D01*
X228084285Y-70191380D01*
X228227142Y-70239000D01*
X228322380Y-70334238D01*
X228370000Y-70429476D01*
X228417619Y-70619952D01*
X228417619Y-70762809D01*
X228370000Y-70953285D01*
X228322380Y-71048523D01*
X228227142Y-71143761D01*
X228084285Y-71191380D01*
X227846190Y-71191380D01*
X228608095Y-71286619D02*
X229370000Y-71286619D01*
X230084285Y-70191380D02*
X229608095Y-70191380D01*
X229560476Y-70667571D01*
X229608095Y-70619952D01*
X229703333Y-70572333D01*
X229941428Y-70572333D01*
X230036666Y-70619952D01*
X230084285Y-70667571D01*
X230131904Y-70762809D01*
X230131904Y-71000904D01*
X230084285Y-71096142D01*
X230036666Y-71143761D01*
X229941428Y-71191380D01*
X229703333Y-71191380D01*
X229608095Y-71143761D01*
X229560476Y-71096142D01*
X230417619Y-70191380D02*
X230750952Y-71191380D01*
X231084285Y-70191380D01*
X231941428Y-71191380D02*
X231370000Y-71191380D01*
X231655714Y-71191380D02*
X231655714Y-70191380D01*
X231560476Y-70334238D01*
X231465238Y-70429476D01*
X231370000Y-70477095D01*
X183428000Y-138247380D02*
X183428000Y-137247380D01*
X183666095Y-137247380D01*
X183808952Y-137295000D01*
X183904190Y-137390238D01*
X183951809Y-137485476D01*
X183999428Y-137675952D01*
X183999428Y-137818809D01*
X183951809Y-138009285D01*
X183904190Y-138104523D01*
X183808952Y-138199761D01*
X183666095Y-138247380D01*
X183428000Y-138247380D01*
X184189904Y-138342619D02*
X184951809Y-138342619D01*
X185666095Y-137247380D02*
X185189904Y-137247380D01*
X185142285Y-137723571D01*
X185189904Y-137675952D01*
X185285142Y-137628333D01*
X185523238Y-137628333D01*
X185618476Y-137675952D01*
X185666095Y-137723571D01*
X185713714Y-137818809D01*
X185713714Y-138056904D01*
X185666095Y-138152142D01*
X185618476Y-138199761D01*
X185523238Y-138247380D01*
X185285142Y-138247380D01*
X185189904Y-138199761D01*
X185142285Y-138152142D01*
X186332761Y-137247380D02*
X186428000Y-137247380D01*
X186523238Y-137295000D01*
X186570857Y-137342619D01*
X186618476Y-137437857D01*
X186666095Y-137628333D01*
X186666095Y-137866428D01*
X186618476Y-138056904D01*
X186570857Y-138152142D01*
X186523238Y-138199761D01*
X186428000Y-138247380D01*
X186332761Y-138247380D01*
X186237523Y-138199761D01*
X186189904Y-138152142D01*
X186142285Y-138056904D01*
X186094666Y-137866428D01*
X186094666Y-137628333D01*
X186142285Y-137437857D01*
X186189904Y-137342619D01*
X186237523Y-137295000D01*
X186332761Y-137247380D01*
X186951809Y-137247380D02*
X187285142Y-138247380D01*
X187618476Y-137247380D01*
X188475619Y-138247380D02*
X187904190Y-138247380D01*
X188189904Y-138247380D02*
X188189904Y-137247380D01*
X188094666Y-137390238D01*
X187999428Y-137485476D01*
X187904190Y-137533095D01*
X174370380Y-97242000D02*
X173370380Y-97242000D01*
X173370380Y-97003904D01*
X173418000Y-96861047D01*
X173513238Y-96765809D01*
X173608476Y-96718190D01*
X173798952Y-96670571D01*
X173941809Y-96670571D01*
X174132285Y-96718190D01*
X174227523Y-96765809D01*
X174322761Y-96861047D01*
X174370380Y-97003904D01*
X174370380Y-97242000D01*
X174465619Y-96480095D02*
X174465619Y-95718190D01*
X173846571Y-95146761D02*
X173846571Y-95480095D01*
X174370380Y-95480095D02*
X173370380Y-95480095D01*
X173370380Y-95003904D01*
X174084666Y-94670571D02*
X174084666Y-94194380D01*
X174370380Y-94765809D02*
X173370380Y-94432476D01*
X174370380Y-94099142D01*
X174370380Y-93765809D02*
X173370380Y-93765809D01*
X174370380Y-93194380D01*
X173370380Y-93194380D01*
X174370380Y-92194380D02*
X174370380Y-92765809D01*
X174370380Y-92480095D02*
X173370380Y-92480095D01*
X173513238Y-92575333D01*
X173608476Y-92670571D01*
X173656095Y-92765809D01*
X176943047Y-94432380D02*
X176943047Y-93432380D01*
X177181142Y-93432380D01*
X177324000Y-93480000D01*
X177419238Y-93575238D01*
X177466857Y-93670476D01*
X177514476Y-93860952D01*
X177514476Y-94003809D01*
X177466857Y-94194285D01*
X177419238Y-94289523D01*
X177324000Y-94384761D01*
X177181142Y-94432380D01*
X176943047Y-94432380D01*
X177704952Y-94527619D02*
X178466857Y-94527619D01*
X178704952Y-94432380D02*
X178704952Y-93432380D01*
X179085904Y-93432380D01*
X179181142Y-93480000D01*
X179228761Y-93527619D01*
X179276380Y-93622857D01*
X179276380Y-93765714D01*
X179228761Y-93860952D01*
X179181142Y-93908571D01*
X179085904Y-93956190D01*
X178704952Y-93956190D01*
X179562095Y-93432380D02*
X180133523Y-93432380D01*
X179847809Y-94432380D02*
X179847809Y-93432380D01*
X180324000Y-93432380D02*
X180895428Y-93432380D01*
X180609714Y-94432380D02*
X180609714Y-93432380D01*
X181752571Y-94432380D02*
X181181142Y-94432380D01*
X181466857Y-94432380D02*
X181466857Y-93432380D01*
X181371619Y-93575238D01*
X181276380Y-93670476D01*
X181181142Y-93718095D01*
X200596761Y-70556380D02*
X200596761Y-69556380D01*
X200834857Y-69556380D01*
X200977714Y-69604000D01*
X201072952Y-69699238D01*
X201120571Y-69794476D01*
X201168190Y-69984952D01*
X201168190Y-70127809D01*
X201120571Y-70318285D01*
X201072952Y-70413523D01*
X200977714Y-70508761D01*
X200834857Y-70556380D01*
X200596761Y-70556380D01*
X201358666Y-70651619D02*
X202120571Y-70651619D01*
X202930095Y-70556380D02*
X202596761Y-70080190D01*
X202358666Y-70556380D02*
X202358666Y-69556380D01*
X202739619Y-69556380D01*
X202834857Y-69604000D01*
X202882476Y-69651619D01*
X202930095Y-69746857D01*
X202930095Y-69889714D01*
X202882476Y-69984952D01*
X202834857Y-70032571D01*
X202739619Y-70080190D01*
X202358666Y-70080190D01*
X203263428Y-69556380D02*
X203930095Y-70556380D01*
X203930095Y-69556380D02*
X203263428Y-70556380D01*
X204834857Y-70556380D02*
X204263428Y-70556380D01*
X204549142Y-70556380D02*
X204549142Y-69556380D01*
X204453904Y-69699238D01*
X204358666Y-69794476D01*
X204263428Y-69842095D01*
X181618285Y-121610380D02*
X181618285Y-120610380D01*
X181856380Y-120610380D01*
X181999238Y-120658000D01*
X182094476Y-120753238D01*
X182142095Y-120848476D01*
X182189714Y-121038952D01*
X182189714Y-121181809D01*
X182142095Y-121372285D01*
X182094476Y-121467523D01*
X181999238Y-121562761D01*
X181856380Y-121610380D01*
X181618285Y-121610380D01*
X182380190Y-121705619D02*
X183142095Y-121705619D01*
X183332571Y-121562761D02*
X183475428Y-121610380D01*
X183713523Y-121610380D01*
X183808761Y-121562761D01*
X183856380Y-121515142D01*
X183904000Y-121419904D01*
X183904000Y-121324666D01*
X183856380Y-121229428D01*
X183808761Y-121181809D01*
X183713523Y-121134190D01*
X183523047Y-121086571D01*
X183427809Y-121038952D01*
X183380190Y-120991333D01*
X183332571Y-120896095D01*
X183332571Y-120800857D01*
X183380190Y-120705619D01*
X183427809Y-120658000D01*
X183523047Y-120610380D01*
X183761142Y-120610380D01*
X183904000Y-120658000D01*
X184189714Y-120610380D02*
X184761142Y-120610380D01*
X184475428Y-121610380D02*
X184475428Y-120610380D01*
X185046857Y-121324666D02*
X185523047Y-121324666D01*
X184951619Y-121610380D02*
X185284952Y-120610380D01*
X185618285Y-121610380D01*
X185808761Y-120610380D02*
X186380190Y-120610380D01*
X186094476Y-121610380D02*
X186094476Y-120610380D01*
X187237333Y-121610380D02*
X186665904Y-121610380D01*
X186951619Y-121610380D02*
X186951619Y-120610380D01*
X186856380Y-120753238D01*
X186761142Y-120848476D01*
X186665904Y-120896095D01*
X184983380Y-78430190D02*
X183983380Y-78430190D01*
X183983380Y-78192095D01*
X184031000Y-78049238D01*
X184126238Y-77954000D01*
X184221476Y-77906380D01*
X184411952Y-77858761D01*
X184554809Y-77858761D01*
X184745285Y-77906380D01*
X184840523Y-77954000D01*
X184935761Y-78049238D01*
X184983380Y-78192095D01*
X184983380Y-78430190D01*
X185078619Y-77668285D02*
X185078619Y-76906380D01*
X183983380Y-76811142D02*
X183983380Y-76239714D01*
X184983380Y-76525428D02*
X183983380Y-76525428D01*
X183983380Y-76001619D02*
X184983380Y-75334952D01*
X183983380Y-75334952D02*
X184983380Y-76001619D01*
X184983380Y-74430190D02*
X184983380Y-75001619D01*
X184983380Y-74715904D02*
X183983380Y-74715904D01*
X184126238Y-74811142D01*
X184221476Y-74906380D01*
X184269095Y-75001619D01*
X174370380Y-107830857D02*
X173894190Y-108164190D01*
X174370380Y-108402285D02*
X173370380Y-108402285D01*
X173370380Y-108021333D01*
X173418000Y-107926095D01*
X173465619Y-107878476D01*
X173560857Y-107830857D01*
X173703714Y-107830857D01*
X173798952Y-107878476D01*
X173846571Y-107926095D01*
X173894190Y-108021333D01*
X173894190Y-108402285D01*
X173465619Y-107449904D02*
X173418000Y-107402285D01*
X173370380Y-107307047D01*
X173370380Y-107068952D01*
X173418000Y-106973714D01*
X173465619Y-106926095D01*
X173560857Y-106878476D01*
X173656095Y-106878476D01*
X173798952Y-106926095D01*
X174370380Y-107497523D01*
X174370380Y-106878476D01*
X173370380Y-106545142D02*
X173370380Y-105878476D01*
X174370380Y-106307047D01*
X176395142Y-136342380D02*
X176061809Y-135866190D01*
X175823714Y-136342380D02*
X175823714Y-135342380D01*
X176204666Y-135342380D01*
X176299904Y-135390000D01*
X176347523Y-135437619D01*
X176395142Y-135532857D01*
X176395142Y-135675714D01*
X176347523Y-135770952D01*
X176299904Y-135818571D01*
X176204666Y-135866190D01*
X175823714Y-135866190D01*
X176776095Y-135437619D02*
X176823714Y-135390000D01*
X176918952Y-135342380D01*
X177157047Y-135342380D01*
X177252285Y-135390000D01*
X177299904Y-135437619D01*
X177347523Y-135532857D01*
X177347523Y-135628095D01*
X177299904Y-135770952D01*
X176728476Y-136342380D01*
X177347523Y-136342380D01*
X177918952Y-135770952D02*
X177823714Y-135723333D01*
X177776095Y-135675714D01*
X177728476Y-135580476D01*
X177728476Y-135532857D01*
X177776095Y-135437619D01*
X177823714Y-135390000D01*
X177918952Y-135342380D01*
X178109428Y-135342380D01*
X178204666Y-135390000D01*
X178252285Y-135437619D01*
X178299904Y-135532857D01*
X178299904Y-135580476D01*
X178252285Y-135675714D01*
X178204666Y-135723333D01*
X178109428Y-135770952D01*
X177918952Y-135770952D01*
X177823714Y-135818571D01*
X177776095Y-135866190D01*
X177728476Y-135961428D01*
X177728476Y-136151904D01*
X177776095Y-136247142D01*
X177823714Y-136294761D01*
X177918952Y-136342380D01*
X178109428Y-136342380D01*
X178204666Y-136294761D01*
X178252285Y-136247142D01*
X178299904Y-136151904D01*
X178299904Y-135961428D01*
X178252285Y-135866190D01*
X178204666Y-135818571D01*
X178109428Y-135770952D01*
X206367142Y-70683380D02*
X206033809Y-70207190D01*
X205795714Y-70683380D02*
X205795714Y-69683380D01*
X206176666Y-69683380D01*
X206271904Y-69731000D01*
X206319523Y-69778619D01*
X206367142Y-69873857D01*
X206367142Y-70016714D01*
X206319523Y-70111952D01*
X206271904Y-70159571D01*
X206176666Y-70207190D01*
X205795714Y-70207190D01*
X206748095Y-69778619D02*
X206795714Y-69731000D01*
X206890952Y-69683380D01*
X207129047Y-69683380D01*
X207224285Y-69731000D01*
X207271904Y-69778619D01*
X207319523Y-69873857D01*
X207319523Y-69969095D01*
X207271904Y-70111952D01*
X206700476Y-70683380D01*
X207319523Y-70683380D01*
X207795714Y-70683380D02*
X207986190Y-70683380D01*
X208081428Y-70635761D01*
X208129047Y-70588142D01*
X208224285Y-70445285D01*
X208271904Y-70254809D01*
X208271904Y-69873857D01*
X208224285Y-69778619D01*
X208176666Y-69731000D01*
X208081428Y-69683380D01*
X207890952Y-69683380D01*
X207795714Y-69731000D01*
X207748095Y-69778619D01*
X207700476Y-69873857D01*
X207700476Y-70111952D01*
X207748095Y-70207190D01*
X207795714Y-70254809D01*
X207890952Y-70302428D01*
X208081428Y-70302428D01*
X208176666Y-70254809D01*
X208224285Y-70207190D01*
X208271904Y-70111952D01*
X182745142Y-79573380D02*
X182411809Y-79097190D01*
X182173714Y-79573380D02*
X182173714Y-78573380D01*
X182554666Y-78573380D01*
X182649904Y-78621000D01*
X182697523Y-78668619D01*
X182745142Y-78763857D01*
X182745142Y-78906714D01*
X182697523Y-79001952D01*
X182649904Y-79049571D01*
X182554666Y-79097190D01*
X182173714Y-79097190D01*
X183078476Y-78573380D02*
X183697523Y-78573380D01*
X183364190Y-78954333D01*
X183507047Y-78954333D01*
X183602285Y-79001952D01*
X183649904Y-79049571D01*
X183697523Y-79144809D01*
X183697523Y-79382904D01*
X183649904Y-79478142D01*
X183602285Y-79525761D01*
X183507047Y-79573380D01*
X183221333Y-79573380D01*
X183126095Y-79525761D01*
X183078476Y-79478142D01*
X184316571Y-78573380D02*
X184411809Y-78573380D01*
X184507047Y-78621000D01*
X184554666Y-78668619D01*
X184602285Y-78763857D01*
X184649904Y-78954333D01*
X184649904Y-79192428D01*
X184602285Y-79382904D01*
X184554666Y-79478142D01*
X184507047Y-79525761D01*
X184411809Y-79573380D01*
X184316571Y-79573380D01*
X184221333Y-79525761D01*
X184173714Y-79478142D01*
X184126095Y-79382904D01*
X184078476Y-79192428D01*
X184078476Y-78954333D01*
X184126095Y-78763857D01*
X184173714Y-78668619D01*
X184221333Y-78621000D01*
X184316571Y-78573380D01*
X176268142Y-100020380D02*
X175934809Y-99544190D01*
X175696714Y-100020380D02*
X175696714Y-99020380D01*
X176077666Y-99020380D01*
X176172904Y-99068000D01*
X176220523Y-99115619D01*
X176268142Y-99210857D01*
X176268142Y-99353714D01*
X176220523Y-99448952D01*
X176172904Y-99496571D01*
X176077666Y-99544190D01*
X175696714Y-99544190D01*
X176601476Y-99020380D02*
X177220523Y-99020380D01*
X176887190Y-99401333D01*
X177030047Y-99401333D01*
X177125285Y-99448952D01*
X177172904Y-99496571D01*
X177220523Y-99591809D01*
X177220523Y-99829904D01*
X177172904Y-99925142D01*
X177125285Y-99972761D01*
X177030047Y-100020380D01*
X176744333Y-100020380D01*
X176649095Y-99972761D01*
X176601476Y-99925142D01*
X178172904Y-100020380D02*
X177601476Y-100020380D01*
X177887190Y-100020380D02*
X177887190Y-99020380D01*
X177791952Y-99163238D01*
X177696714Y-99258476D01*
X177601476Y-99306095D01*
X209654380Y-134199238D02*
X209178190Y-134532571D01*
X209654380Y-134770666D02*
X208654380Y-134770666D01*
X208654380Y-134389714D01*
X208702000Y-134294476D01*
X208749619Y-134246857D01*
X208844857Y-134199238D01*
X208987714Y-134199238D01*
X209082952Y-134246857D01*
X209130571Y-134294476D01*
X209178190Y-134389714D01*
X209178190Y-134770666D01*
X208654380Y-133913523D02*
X209654380Y-133580190D01*
X208654380Y-133246857D01*
X208654380Y-133008761D02*
X208654380Y-132389714D01*
X209035333Y-132723047D01*
X209035333Y-132580190D01*
X209082952Y-132484952D01*
X209130571Y-132437333D01*
X209225809Y-132389714D01*
X209463904Y-132389714D01*
X209559142Y-132437333D01*
X209606761Y-132484952D01*
X209654380Y-132580190D01*
X209654380Y-132865904D01*
X209606761Y-132961142D01*
X209559142Y-133008761D01*
X189253904Y-83764380D02*
X189253904Y-82764380D01*
X189492000Y-82764380D01*
X189634857Y-82812000D01*
X189730095Y-82907238D01*
X189777714Y-83002476D01*
X189825333Y-83192952D01*
X189825333Y-83335809D01*
X189777714Y-83526285D01*
X189730095Y-83621523D01*
X189634857Y-83716761D01*
X189492000Y-83764380D01*
X189253904Y-83764380D01*
X190206285Y-82859619D02*
X190253904Y-82812000D01*
X190349142Y-82764380D01*
X190587238Y-82764380D01*
X190682476Y-82812000D01*
X190730095Y-82859619D01*
X190777714Y-82954857D01*
X190777714Y-83050095D01*
X190730095Y-83192952D01*
X190158666Y-83764380D01*
X190777714Y-83764380D01*
M02*
